<svg xmlns="http://www.w3.org/2000/svg" viewBox="0 0 501.49 50.55"><defs><style>.cls-1{fill:#313b45;}.cls-2{fill:#0c1014;}</style></defs><title>因为希望</title><g id="图层_2" data-name="图层 2"><g id="图层_2-2" data-name="图层 2"><path d="M44,0V44H0V0ZM4,4V40H40V4ZM36,16v4H24v4H20V20H8V16H20V8h4v8ZM8,32h4v4H8Zm4-4h4v4H12Zm4-4h4v4H16Zm8,0h4v4H24Zm4,4h4v4H28Zm4,4h4v4H32Z"/><path d="M50.4,40h4v4h-4Zm40-24h-20v8h-4V16h-12V12h16V0h4V12h20V40h-4Zm-36,20h4v4h-4Zm4-36h4V4h-4Zm0,32h4v4h-4Zm4-28h4V8h-4Zm0,20h4v8h-4Zm12-4h4v4h-4Zm4,4h4v8h-4Zm12,20h-8V40h8Z"/><path d="M112.8,12h-8V8h12v8h20V12h4v4h4v4h-20v4h16V40h-8V36h4V28h-12V44h-4V28h-8V40h-4V28h-4V24h4V20h-8V16h12Zm-12,16h4v4h-4Zm16-24h-8V0h8Zm4,20V20h-8v4Zm8-16h-12V4h12Zm12-4h-12V0h12Zm-4,8h-8V8h8Z"/><path d="M159.2,4V0h4V4h8V8h-12v8h12v4h-16V8h-4V4Zm36,40h-44V40h20V36h-12V32h12V28h-16V24h16V20h4v4h16v4h-16v4h12v4h-12v4h20Zm0-20h-4V20h-16V0h20Zm-4-16V4h-12V8Zm-12,8h12V12h-12Z"/><line class="cls-1" x1="201.49" y1="48.55" x2="501.49" y2="48.55"/><rect class="cls-2" x="201.49" y="46.55" width="300" height="4"/></g></g></svg>