<svg xmlns="http://www.w3.org/2000/svg" viewBox="0 0 146 68"><defs><style>.cls-1{fill:#329af9;}.cls-2{fill:#0c1014;}</style></defs><title>Beep</title><g id="图层_2" data-name="图层 2"><g id="图层_2-2" data-name="图层 2"><path class="cls-1" d="M4,54,2,52V4L4,2H28l2,2V8h4l2,2V22l-2,2H30v2h4l2,2V46l-2,2H30v4l-2,2ZM26,44V30H12V44Zm0-24V12H12v8Z"/><path class="cls-2" d="M28,4v6H10V22H28v6H10V46H28v6H4V4H28m6,6V22H28V10h6m0,18V46H28V28h6M28,0H4L0,4V52l4,4H28l4-4V50h2l4-4V28l-3-3,3-3V10L34,6H32V4L28,0ZM14,14H24v4H14V14Zm0,18H24V42H14V32Z"/><path class="cls-1" d="M46,54l-2-2V48H40l-2-2V22l2-2h4V16l2-2H64l2,2v4h4l2,2V34l-2,2H48v8H62V40l2-2h6l2,2v6l-2,2H66v4l-2,2ZM62,26V24H48v2Z"/><path class="cls-2" d="M64,16v6H46V16H64m6,6V34H46V46H40V22h6v6H64V22h6m0,18v6H64V40h6m-6,6v6H46V46H64m0-34H46l-4,4v2H40l-4,4V46l4,4h2v2l4,4H64l4-4V50h2l4-4V40l-3-3,3-3V22l-4-4H68V16l-4-4ZM50,38H62l-2,2v2H50V38Z"/><path class="cls-1" d="M82,54l-2-2V48H76l-2-2V22l2-2h4V16l2-2h18l2,2v4h4l2,2V34l-2,2H84v8H98V40l2-2h6l2,2v6l-2,2h-4v4l-2,2ZM98,26V24H84v2Z"/><path class="cls-2" d="M100,16v6H82V16h18m6,6V34H82V46H76V22h6v6h18V22h6m0,18v6h-6V40h6m-6,6v6H82V46h18m0-34H82l-4,4v2H76l-4,4V46l4,4h2v2l4,4h18l4-4V50h2l4-4V40l-3-3,3-3V22l-4-4h-2V16l-4-4ZM86,38H98l-2,2v2H86V38Z"/><path class="cls-1" d="M112,66l-2-2V16l2-2h24l2,2v4h4l2,2V46l-2,2h-4v4l-2,2H120V64l-2,2Zm22-22V24H120V44Z"/><path class="cls-2" d="M136,16v6H118V46h18v6H118V64h-6V16h24m6,6V46h-6V22h6m-6-10H112l-4,4V64l4,4h6l4-4V56h14l4-4V50h2l4-4V22l-4-4h-2V16l-4-4ZM122,26h10V42H122V26Z"/></g></g></svg>