<svg xmlns="http://www.w3.org/2000/svg" viewBox="0 0 393.55 619.85"><defs><style>.cls-1{fill:#f9f9f9;}.cls-2{fill:#313b45;}.cls-3{fill:#f9e7cd;}.cls-4{fill:#0c1014;}.cls-5{fill:#c64a39;}.cls-6{fill:#2f5f8f;}.cls-7{fill:#fcc020;}</style></defs><title>有纸卷的舱体</title><g id="图层_2" data-name="图层 2"><g id="图层_2-2" data-name="图层 2"><path class="cls-1" d="M195.82,614.85c-43.42,0-80.07-4.86-108.91-14.43-22.38-7.4-32.42-15.3-34.21-16.81l-4.46-3.78-1.73-5.58c-1.28-4.14-2.55-8.33-3.77-12.47C17.53,476.74,4.83,392.31,5,310.86,5.2,220.88,20.94,134,51.78,52.4V45.85l7.88-6C61.53,38.42,106.47,5,196.78,5S332,38.42,333.91,39.84l7.88,6V52.4c30.83,81.58,46.56,168.51,46.76,258.44.17,81.47-12.53,165.9-37.74,251-1.22,4.12-2.49,8.31-3.77,12.45l-1.73,5.58-4.46,3.78c-1.79,1.51-11.82,9.41-34.23,16.81-28.82,9.57-65.46,14.43-108.88,14.43Z"/><path class="cls-2" d="M197.74,619.85h-1.92c-44,0-81.13-4.94-110.49-14.69C62.09,597.48,51.39,589,49.48,587.43L45,583.65l-1.55-2.34-1.73-5.58c-1.28-4.15-2.55-8.36-3.79-12.53C12.6,477.69-.17,392.79,0,310.85c.2-90.24,15.94-177.5,46.78-259.36V45.85l2-4,7.88-6C58.56,34.4,104.81,0,196.78,0S335,34.4,336.93,35.87l7.89,6,2,4v5.64c30.83,81.89,46.56,169.14,46.76,259.34.17,81.95-12.59,166.87-37.95,252.39-1.23,4.17-2.5,8.38-3.78,12.51l-1.73,5.58-1.55,2.34-4.46,3.78c-1.91,1.61-12.62,10.05-35.88,17.74C278.86,614.91,241.69,619.85,197.74,619.85ZM52.58,577l3.35,2.83c1,.86,10.59,8.62,32.55,15.88,28.34,9.41,64.45,14.18,107.34,14.18h1.92c42.88,0,79-4.77,107.31-14.17,22-7.27,31.55-15,32.57-15.89L341,577l1.3-4.19c1.26-4.09,2.52-8.25,3.75-12.39,25.07-84.6,37.7-168.55,37.53-249.53-.2-89.31-15.82-175.67-46.43-256.68l-.33-1.77V48.33l-5.91-4.51C329.06,42.44,285.43,10,196.78,10S64.5,42.44,62.69,43.83l-5.91,4.5V52.4l-.33,1.77C25.83,135.15,10.2,221.52,10,310.87c-.17,81,12.46,164.91,37.53,249.49,1.22,4.13,2.49,8.31,3.76,12.41Z"/><path class="cls-3" d="M71.81,54C45.41,122.69,25.22,208.09,25,308.88v0c-.15,73.7,10.35,155.59,36.92,245.22q1.8,6.07,3.69,12.21s7.74,6.54,27.6,13.11c20.15,6.68,52.83,13.41,102.61,13.41h1.92c49.78,0,82.45-6.73,102.61-13.41,19.86-6.57,27.59-13.11,27.59-13.11q1.9-6.14,3.69-12.21c26.57-89.63,37.08-171.52,36.92-245.22v0C368.33,208.09,348.14,122.69,321.76,54"/><path class="cls-4" d="M197.74,599.85h-1.92c-52.35,0-85.89-7.49-104.82-13.77-20.54-6.8-29-13.64-29.9-14.4l-2.17-3.28c-1.28-4.14-2.53-8.27-3.72-12.3C30.35,472.26,17.83,389.08,18,308.89c.2-89.7,16.1-176.3,47.27-257.4l13.07,5C47.79,136,32.2,220.93,32,308.9c-.16,78.85,12.16,160.68,36.63,243.23,1,3.25,2,6.57,3,9.9,2.94,2,10.4,6.33,23.8,10.76,18,6,49.93,13.06,100.41,13.06h1.92c50.47,0,82.46-7.1,100.4-13.06C311.52,568.37,319,564,321.94,562c1-3.33,2-6.65,3-9.9,24.47-82.55,36.8-164.38,36.63-243.22-.19-88-15.78-172.87-46.32-252.4l13.07-5c31.16,81.13,47.05,167.72,47.25,257.38.17,80.21-12.35,163.39-37.2,247.24-1.19,4-2.44,8.15-3.72,12.29l-2.17,3.28c-.9.76-9.36,7.6-29.92,14.4C283.63,592.36,250.08,599.85,197.74,599.85Z"/><path class="cls-3" d="M321.76,54s-40.4,30.76-125,30.76S71.81,54,71.81,54"/><path class="cls-4" d="M196.78,91.76c-86,0-127.49-30.88-129.21-32.19l8.48-11.14c.37.28,39.92,29.33,120.73,29.33,81.27,0,120.36-29,120.74-29.33L326,59.57C324.28,60.88,282.73,91.76,196.78,91.76Z"/><path class="cls-3" d="M321.79,53.76S281.38,23,196.78,23s-125,30.76-125,30.76V54s40.4,30.76,125,30.76S321.79,54,321.79,54Z"/><path class="cls-4" d="M196.78,91.76c-86,0-127.52-30.88-129.24-32.19A7,7,0,0,1,64.78,54v-.24a7,7,0,0,1,2.76-5.57C69.26,46.88,110.8,16,196.78,16S324.31,46.87,326,48.19a7,7,0,0,1,2.76,5.57V54A7,7,0,0,1,326,59.57C324.31,60.89,282.75,91.76,196.78,91.76ZM85,53.86c15.88,8.48,52.86,23.9,111.76,23.9s95.81-15.39,111.73-23.88C292.59,45.39,255.61,30,196.78,30,137.62,30,100.83,45.37,85,53.86Z"/><path class="cls-5" d="M196.78,172.86c-45.82,0-89.34,28.45-89.34,28.45v93h13.31V354.2H107.44v89.93S151,472.6,196.78,472.6s89.33-28.47,89.33-28.47V201.31S242.59,172.86,196.78,172.86Zm57,252.06c-13.79,7.05-36.34,16.17-57,16.17s-43.22-9.1-57-16.17V220.52c13.79-7,36.33-16.16,57-16.16s43.21,9.12,57,16.18Z"/><line x1="368.55" y1="308.88" x2="368.54" y2="308.88"/><path class="cls-6" d="M253.8,220.54V424.92c-13.79,7.05-36.34,16.17-57,16.17s-43.22-9.1-57-16.17V220.52c13.79-7,36.33-16.16,57-16.16S240,213.48,253.8,220.54Z"/><rect class="cls-7" x="94.13" y="294.32" width="26.62" height="59.88"/><path class="cls-4" d="M196.78,477.59c-46.77,0-90.25-28.07-92.08-29.27l-2.26-4.18V354.2h10v87.15c9.37,5.62,46.37,26.24,84.34,26.24s75-20.62,84.34-26.24V204.11c-9.38-5.62-46.38-26.25-84.34-26.25s-75,20.63-84.34,26.25v90.21h-10v-93l2.26-4.19c1.83-1.19,45.31-29.27,92.08-29.27s90.24,28.08,92.07,29.27l2.27,4.19V444.14l-2.27,4.18C287,449.52,243.54,477.59,196.78,477.59Z"/><path class="cls-4" d="M196.78,446.09c-23.16,0-47.1-10.47-59.3-16.72l-2.73-4.45V220.53l2.73-4.45c12.2-6.24,36.13-16.71,59.3-16.71s47.09,10.47,59.3,16.71l2.72,4.45V424.92l-2.72,4.46C243.87,435.62,219.94,446.09,196.78,446.09Zm-52-24.26c10.58,5.16,32.08,14.26,52,14.26s41.44-9.1,52-14.26V223.63c-10.58-5.16-32.08-14.26-52-14.26s-41.45,9.09-52,14.25Z"/><path class="cls-4" d="M120.74,359.2H94.13l-5-5V294.32l5-5h26.61l5,5V354.2Zm-21.61-10h16.61V299.32H99.13Z"/><rect class="cls-3" x="121.78" y="299.48" width="150" height="35" transform="translate(-147.74 460.19) rotate(-80.74)"/><path class="cls-4" d="M201.18,398.76l-34.55-5.63-4.13-5.74,24.14-148,5.74-4.13,34.54,5.63,4.13,5.74-24.14,148Zm-28-14.7,24.67,4,22.53-138.17-24.68-4Z"/></g></g></svg>