<svg xmlns="http://www.w3.org/2000/svg" viewBox="0 0 103 103"><defs><style>.cls-1{fill:#329af9;}.cls-2{fill:#f9f9f9;}.cls-3{fill:#313b45;}.cls-4{fill:#fbbd1f;}.cls-5{fill:#0c1014;}</style></defs><title>确认按钮</title><g id="图层_2" data-name="图层 2"><g id="图层_2-2" data-name="图层 2"><rect class="cls-1" x="3" y="3" width="100" height="100"/><rect class="cls-2" x="2" y="2" width="96" height="96"/><path class="cls-3" d="M96,4V96H4V4H96m4-4H0V100H100V0Z"/><polygon class="cls-4" points="82.84 35.73 47.06 76.92 19.64 52.66 26.9 43.43 45.28 58.73 73.74 27.23 82.84 35.73"/><path class="cls-5" d="M45.73,78.42,18.32,54.16l-.25-2.74,7.26-9.23,2.85-.3L45.08,56,72.26,25.89l2.85-.12,9.09,8.5L84.35,37,48.57,78.23Zm-23.35-26L46.87,74.09,80.06,35.87l-6.2-5.79-27.1,30L44,60.26l-16.8-14Z"/></g></g></svg>