<svg xmlns="http://www.w3.org/2000/svg" viewBox="0 0 395 115"><defs><style>.cls-1{fill:#313b45;}.cls-2{fill:#0c1014;}.cls-3{fill:#fbbd1f;}.cls-4{fill:#f9f9f9;}</style></defs><title>传送带下边缘</title><g id="图层_2" data-name="图层 2"><g id="图层_2-2" data-name="图层 2"><rect class="cls-1" x="91" y="5" width="276" height="105"/><path class="cls-2" d="M367,115H91l-5-5V5l5-5H367l5,5V110ZM96,105H362V10H96Z"/><path class="cls-3" d="M390,5H367V110h5.38L390,92.38Z"/><path class="cls-2" d="M372.38,115H367l-5-5V5l5-5h23l5,5V92.38l-1.46,3.54-17.62,17.62ZM372,10v93.31l13-13V10Z"/><rect class="cls-3" x="68" y="5" width="23" height="105" transform="translate(159 115) rotate(180)"/><path class="cls-2" d="M91,115H68l-5-5V5l5-5H91l5,5V110ZM73,105H86V10H73Z"/><rect class="cls-1" x="28" y="5" width="40" height="105"/><path class="cls-2" d="M68,115H28l-5-5V5l5-5H68l5,5V110ZM33,105H63V10H33Z"/><path class="cls-3" d="M28,5H5V95.32L19.68,110H28Z"/><path class="cls-2" d="M28,115H19.68l-3.53-1.46L1.46,98.85,0,95.32V5L5,0H28l5,5V110Zm-6.25-10H23V10H10V93.25Z"/><circle class="cls-4" cx="48" cy="55" r="10"/><path class="cls-2" d="M48,67A12,12,0,1,1,60,55,12,12,0,0,1,48,67Zm0-20a8,8,0,1,0,8,8A8,8,0,0,0,48,47Z"/><path class="cls-1" d="M91,80,193.4,30.92h71.2L367,80"/><polygon class="cls-2" points="364.84 84.51 263.47 35.92 194.53 35.92 93.16 84.51 88.84 75.49 191.24 26.41 193.4 25.92 264.6 25.92 266.76 26.41 369.16 75.49 364.84 84.51"/></g></g></svg>