<svg xmlns="http://www.w3.org/2000/svg" viewBox="0 0 103 103"><defs><style>.cls-1{fill:#329af9;}.cls-2{fill:#f9f9f9;}.cls-3{fill:#313b45;}.cls-4{fill:#2f5f8f;}.cls-5{fill:#0c1014;}.cls-6{fill:#c64a39;}.cls-7{fill:#f9e7cd;}</style></defs><title>编辑按钮</title><g id="图层_2" data-name="图层 2"><g id="图层_2-2" data-name="图层 2"><rect class="cls-1" x="3" y="3" width="100" height="100"/><rect class="cls-2" x="2" y="2" width="96" height="96"/><path class="cls-3" d="M96,4V96H4V4H96m4-4H0V100H100V0Z"/><rect class="cls-4" x="43.59" y="34.8" width="14.52" height="32.8" transform="translate(32.55 -18.6) rotate(30.11)"/><path class="cls-5" d="M47.9,70.76,35.34,63.48l-.73-2.74L51.07,32.37l2.73-.73,12.56,7.29.72,2.73L50.63,70ZM39.08,61l9.09,5.27L62.62,41.38l-9.1-5.27Z"/><rect class="cls-6" x="56.98" y="17.84" width="14.52" height="20.56" transform="translate(22.78 -28.43) rotate(30.11)"/><path class="cls-5" d="M64.35,42.39,51.79,35.11l-.72-2.74L61.38,14.58l2.74-.72,12.55,7.28.73,2.73L67.08,41.66Zm-8.82-9.74,9.1,5.27L72.94,23.6l-9.1-5.28Z"/><polygon class="cls-7" points="31.29 84.92 36.34 61.75 48.9 69.03 31.29 84.92"/><path class="cls-5" d="M32.63,86.4l-3.29-1.91,5.05-23.17,3-1.3L49.9,67.3l.34,3.21Zm5.08-21.55L34.57,79.27l11-9.89Z"/></g></g></svg>