<svg xmlns="http://www.w3.org/2000/svg" viewBox="0 0 103 103"><defs><style>.cls-1{fill:#329af9;}.cls-2{fill:#f9f9f9;}.cls-3{fill:#313b45;}.cls-4{fill:#2f5f8f;}.cls-5{fill:#0c1014;}</style></defs><title>重来按钮</title><g id="图层_2" data-name="图层 2"><g id="图层_2-2" data-name="图层 2"><rect class="cls-1" x="3" y="3" width="100" height="100"/><rect class="cls-2" x="2" y="2" width="96" height="96"/><path class="cls-3" d="M96,4V96H4V4H96m4-4H0V100H100V0Z"/><polygon class="cls-4" points="76.74 50.04 76.74 31.75 76.74 21 20.81 21 20.81 31.75 65.98 31.75 65.98 50.04 59.53 50.04 71.36 59.72 83.19 50.04 76.74 50.04"/><path class="cls-5" d="M72.63,61.26H70.09L58.26,51.59,59.53,48H64V33.75H20.81l-2-2V21l2-2H76.74l2,2V48h4.45l1.27,3.55ZM65.13,52l6.23,5.09L77.59,52h-.85l-2-2V23H22.81v6.75H66l2,2V50l-2,2Z"/><polygon class="cls-4" points="23.26 48.96 23.26 67.25 23.26 78 79.19 78 79.19 67.25 34.02 67.25 34.02 48.96 40.47 48.96 28.64 39.28 16.81 48.96 23.26 48.96"/><path class="cls-5" d="M79.19,80H23.26l-2-2V51H16.81l-1.27-3.55,11.84-9.67h2.53l11.83,9.67L40.47,51H36V65.25H79.19l2,2V78ZM25.26,76H77.19V69.25H34l-2-2V49l2-2h.85l-6.23-5.09L22.41,47h.85l2,2Z"/></g></g></svg>