<svg xmlns="http://www.w3.org/2000/svg" viewBox="0 0 105 33"><defs><style>.cls-1{fill:#0c1014;}</style></defs><title>扫描中</title><g id="图层_2" data-name="图层 2"><g id="图层_2-2" data-name="图层 2"><path class="cls-1" d="M0,18H3V9H0V6H3V0H6V6H9V9H6v6H9v3H6V33H0V30H3V21H0Zm30,9V18H12V15H30V6H12V3H33V30H12V27Z"/><path class="cls-1" d="M36,18h3V9H36V6h3V0h3V6h3V9H42v6h3v3H42V33H36V30h3V21H36ZM57,6H54V9H51V6H48V3h3V0h3V3h3Zm-9,6H69V33H48Zm3,9h6V15H51Zm0,9h6V24H51ZM63,6H60V3h3V0h3V3h3V6H66V9H63Zm-3,9v6h6V15Zm0,9v6h6V24Z"/><path class="cls-1" d="M87,6V0h3V6h15V21H90V33H87V21H72V6ZM75,9v9H87V9Zm15,9h12V9H90Z"/></g></g></svg>