<svg xmlns="http://www.w3.org/2000/svg" viewBox="0 0 600.28 52.21"><defs><style>.cls-1{fill:#313b45;}.cls-2{fill:#0c1014;}</style></defs><title>你在焦虑</title><g id="图层_2" data-name="图层 2"><g id="图层_2-2" data-name="图层 2"><path d="M8,44H4V20H0V16H4V8H8ZM8,0h4V8H8Zm4,12h4v4H12Zm0,20h4v4H12ZM16,0h4V4H44V16H40V8H32V20h4v4H32V44H24V40h4V8H20v4H16Zm0,28h4v4H16Zm4-8h4v8H20Zm16,4h4v4H36Zm4,4h4v8H40Z"/><path d="M62.4,12h-12V8h16V0h4V8h24v4h-28v8h-4Zm-12,16h4v4h-4Zm8,0h-4V24h4V20h4V44h-4Zm36,16h-28V40h12V28h-8V24h8V16h4v8h8v4h-8V40h12Z"/><path d="M100.8,16h4v4h-4Zm0,24h4v4h-4Zm12-40h4V4h12V0h4V4h8V8h-12v4h12v4h-12v4h12v4h-12v4h12v4h-32V16h-4V12h4V4h4Zm-8,36h4v4h-4Zm20-24V8h-12v4Zm-12,4v4h12V16Zm0,8v4h12V24Zm0,12h4v4h-4Zm4,4h4v4h-4Zm8-4h4v4h-4Zm4,4h4v4h-4Zm8-4h4v4h-4Zm4,4h4v4h-4Z"/><path d="M151.2,28h4v8h-4Zm20-20V0h20V4h-16V8h20v8h-4V12h-16v4h12v4h-12v4h16V20h4v8h-16v4h-4V28h-4V20h-8V16h8V12h-12V28h-4V8Zm-16,32h4v4h-4Zm4-4h4v4h-4Zm8-4h4v8h-4Zm20,8v4h-16V40Zm-8-8h4v4h-4Zm8,0h4v4h-4Zm4,4h4v4h-4Z"/><line class="cls-1" x1="202.28" y1="50.21" x2="600.28" y2="50.21"/><rect class="cls-2" x="202.28" y="48.21" width="398" height="4"/></g></g></svg>