<svg xmlns="http://www.w3.org/2000/svg" viewBox="0 0 470.12 619.85"><defs><style>.cls-1{fill:#f9f9f9;}.cls-2{fill:#313b45;}.cls-3{fill:#f9e7cd;}.cls-4{fill:#0c1014;}.cls-5{fill:#fcc020;}.cls-6{fill:#c64a39;}.cls-7{fill:#2f5f8f;}</style></defs><title>打开舱门有纸卷</title><g id="图层_2" data-name="图层 2"><g id="图层_2-2" data-name="图层 2"><path class="cls-1" d="M272.38,614.85c-43.42,0-80.06-4.86-108.91-14.43-22.38-7.4-32.42-15.3-34.2-16.81l-4.47-3.78-1.73-5.58c-1.28-4.14-2.55-8.33-3.77-12.47-25.21-85-37.91-169.47-37.74-250.92.2-90,15.94-176.91,46.78-258.46V45.85l7.88-6C138.09,38.42,183,5,273.34,5S408.6,38.42,410.47,39.84l7.89,6V52.4c30.82,81.58,46.56,168.51,46.75,258.44.17,81.47-12.52,165.9-37.74,251-1.21,4.12-2.48,8.31-3.76,12.45l-1.73,5.58-4.47,3.78c-1.78,1.51-11.82,9.41-34.22,16.81-28.83,9.57-65.47,14.43-108.89,14.43Z"/><path class="cls-2" d="M274.3,619.85h-1.92c-44,0-81.13-4.94-110.49-14.69C138.65,597.48,128,589,126,587.43l-4.47-3.78L120,581.31l-1.74-5.58c-1.28-4.15-2.55-8.36-3.78-12.53C89.16,477.69,76.39,392.79,76.56,310.85c.2-90.24,15.94-177.5,46.78-259.36V45.85l2-4,7.88-6C135.12,34.4,181.37,0,273.34,0S411.57,34.4,413.5,35.87l7.88,6,2,4v5.64c30.82,81.89,46.55,169.14,46.75,259.34.18,81.95-12.59,166.87-37.94,252.39-1.24,4.17-2.51,8.38-3.79,12.51l-1.73,5.58-1.55,2.34-4.46,3.78c-1.91,1.61-12.62,10.05-35.88,17.74C355.42,614.91,318.25,619.85,274.3,619.85ZM129.15,577l3.34,2.83c1,.86,10.6,8.62,32.55,15.88,28.34,9.41,64.46,14.18,107.34,14.18h1.92c42.88,0,79-4.77,107.31-14.17,22-7.27,31.56-15,32.57-15.89l3.35-2.83,1.3-4.19c1.27-4.09,2.53-8.25,3.75-12.39,25.07-84.6,37.7-168.55,37.53-249.53-.19-89.31-15.82-175.67-46.43-256.68l-.32-1.77V48.33l-5.92-4.51C405.63,42.44,362,10,273.34,10S141.07,42.44,139.25,43.83l-5.91,4.5V52.4L133,54.17c-30.63,81-46.26,167.35-46.46,256.7-.17,81,12.46,164.91,37.53,249.49,1.23,4.14,2.49,8.31,3.76,12.41Z"/><path class="cls-3" d="M148.37,56c-26.4,68.69-46.58,154.09-46.81,254.88v0c-.15,73.7,10.35,155.59,36.92,245.22q1.8,6.07,3.7,12.21s7.73,6.54,27.59,13.11c20.15,6.68,52.83,13.41,102.61,13.41h1.92c49.78,0,82.45-6.73,102.61-13.41,19.86-6.57,27.59-13.11,27.59-13.11q1.9-6.14,3.7-12.21c26.56-89.63,37.07-171.52,36.91-245.22v0C444.89,210.09,424.7,124.69,398.33,56"/><path class="cls-4" d="M274.3,601.85h-1.92c-52.34,0-85.89-7.49-104.81-13.77-20.55-6.8-29-13.64-29.91-14.4l-2.17-3.28c-1.28-4.15-2.54-8.29-3.72-12.3-24.85-83.84-37.37-167-37.21-247.21.2-89.7,16.11-176.3,47.27-257.4l13.07,5C124.35,138,108.76,222.93,108.56,310.9c-.16,78.85,12.16,160.68,36.63,243.23,1,3.24,2,6.56,3,9.91,2.93,1.94,10.39,6.32,23.79,10.75,17.95,6,49.94,13.06,100.41,13.06h1.92c50.47,0,82.46-7.1,100.4-13.06,13.38-4.42,20.84-8.79,23.8-10.76,1-3.34,2-6.66,3-9.9,24.47-82.55,36.8-164.38,36.63-243.21-.19-88-15.78-172.88-46.32-252.41l13.07-5c31.16,81.13,47.06,167.72,47.25,257.38.17,80.21-12.35,163.39-37.2,247.24-1.19,4-2.44,8.14-3.72,12.29L409,573.68c-.9.76-9.36,7.6-29.91,14.4C360.19,594.36,326.64,601.85,274.3,601.85Z"/><path class="cls-3" d="M398.33,56s-40.41,30.76-125,30.76S148.37,56,148.37,56"/><path class="cls-4" d="M273.34,93.76c-85.95,0-127.49-30.88-129.21-32.19l8.48-11.14c.37.28,39.93,29.33,120.73,29.33,81.28,0,120.36-29,120.74-29.33l8.49,11.14C400.84,62.88,359.29,93.76,273.34,93.76Z"/><path class="cls-3" d="M398.36,55.76S357.94,25,273.34,25s-125,30.76-125,30.76V56s40.4,30.76,125,30.76S398.36,56,398.36,56Z"/><path class="cls-4" d="M273.34,93.76c-86,0-127.51-30.88-129.24-32.19A7,7,0,0,1,141.34,56v-.24a7,7,0,0,1,2.76-5.57C145.83,48.88,187.37,18,273.34,18S400.87,48.88,402.6,50.19a7,7,0,0,1,2.76,5.57V56a7,7,0,0,1-2.76,5.57C400.87,62.88,359.31,93.76,273.34,93.76ZM161.62,55.88c15.91,8.48,52.88,23.88,111.72,23.88s95.81-15.39,111.73-23.88C369.15,47.39,332.17,32,273.34,32S177.54,47.39,161.62,55.88Z"/><rect class="cls-5" x="170.69" y="296.32" width="26.62" height="59.88"/><path class="cls-6" d="M94.34,174.86c45.81,0,89.33,28.45,89.33,28.45v93H170.36V356.2h13.31v89.93S140.15,474.6,94.34,474.6,5,446.13,5,446.13V203.31S48.53,174.86,94.34,174.86Zm-57,252.06c13.79,7.05,36.34,16.17,57,16.17s43.21-9.1,57-16.17V222.52c-13.79-7-36.34-16.16-57-16.16s-43.21,9.12-57,16.18Z"/><path class="cls-4" d="M94.34,479.59c-46.77,0-90.25-28.07-92.08-29.27L0,446.14V203.32l2.26-4.19c1.83-1.19,45.31-29.27,92.08-29.27s90.25,28.08,92.07,29.27l2.27,4.19v93h-10V206.11c-9.37-5.62-46.37-26.25-84.34-26.25s-75,20.63-84.34,26.25V443.35c9.37,5.62,46.37,26.24,84.34,26.24s75-20.62,84.34-26.24V356.2h10v89.94l-2.27,4.18C184.59,451.52,141.11,479.59,94.34,479.59Z"/><path class="cls-7" d="M273.34,174.86c-45.81,0-89.34,28.45-89.34,28.45v93h13.31V356.2H184v89.93s43.53,28.47,89.34,28.47,89.33-28.47,89.33-28.47V203.31S319.15,174.86,273.34,174.86Z"/><path class="cls-4" d="M273.34,479.59c-46.77,0-90.25-28.07-92.08-29.27L179,446.14V356.2h10v87.15c9.37,5.62,46.37,26.24,84.34,26.24s75-20.62,84.34-26.24V206.11c-9.37-5.62-46.37-26.25-84.34-26.25s-75,20.63-84.34,26.25v90.21H179v-93l2.26-4.19c1.83-1.19,45.31-29.27,92.08-29.27s90.25,28.08,92.07,29.27l2.27,4.19V446.14l-2.27,4.18C363.59,451.52,320.11,479.59,273.34,479.59Z"/><path class="cls-7" d="M37.32,222.54V426.92c13.79,7.05,36.34,16.17,57,16.17s43.21-9.1,57-16.17V222.52c-13.79-7-36.34-16.16-57-16.16S51.13,215.48,37.32,222.54Z"/><path class="cls-4" d="M94.34,448.09c-23.16,0-47.1-10.47-59.3-16.71l-2.73-4.46V222.53L35,218.08c12.2-6.24,36.14-16.71,59.3-16.71s47.09,10.47,59.3,16.71l2.72,4.45V426.92l-2.72,4.45C141.43,437.62,117.5,448.09,94.34,448.09Zm-52-24.26c10.59,5.16,32.08,14.26,52,14.26s41.44-9.1,52-14.26V225.62c-10.58-5.16-32.07-14.25-52-14.25s-41.44,9.1-52,14.26Z"/><path class="cls-4" d="M197.31,361.2H170.7l-5-5V296.32l5-5h26.61l5,5V356.2Zm-21.61-10h16.61V301.32H175.7Z"/><rect class="cls-3" x="198.34" y="407.98" width="150" height="35"/><path class="cls-4" d="M348.34,448h-150l-5-5V408l5-5h150l5,5v35Zm-145-10h140V413h-140Z"/></g></g></svg>