<svg xmlns="http://www.w3.org/2000/svg" viewBox="0 0 403.55 629.85"><defs><style>.cls-1{fill:#f9f9f9;}.cls-2{fill:#313b45;}.cls-3{fill:#f9e7cd;}.cls-4{fill:#0c1014;}.cls-5{fill:#c64a39;}.cls-6{fill:#2f5f8f;}.cls-7{fill:#fcc020;}</style></defs><title>关闭舱门</title><g id="图层_2" data-name="图层 2"><g id="图层_2-2" data-name="图层 2"><path class="cls-1" d="M200.82,624.85c-44,0-81.13-4.94-110.49-14.69C67.09,602.47,56.39,594,54.48,592.43l-5.58-4.72-2.17-7c-1.28-4.14-2.55-8.35-3.79-12.53C17.6,482.69,4.83,397.79,5,315.85c.2-90.24,15.94-177.5,46.78-259.36V48.37l9.85-7.5C63.56,39.4,109.81,5,201.78,5S340,39.4,341.93,40.87l9.86,7.5v8.12c30.83,81.89,46.56,169.14,46.76,259.34.17,81.95-12.59,166.87-37.95,252.39-1.23,4.17-2.5,8.38-3.78,12.51l-2.16,7-5.58,4.72c-1.91,1.61-12.61,10.05-35.89,17.74-29.33,9.74-66.5,14.68-110.45,14.68Z"/><path class="cls-2" d="M202.74,629.85h-1.92c-44.5,0-82.2-5-112.06-14.94-24.13-8-35.48-16.95-37.51-18.66l-5.58-4.72-1.55-2.34-2.16-7c-1.27-4.1-2.55-8.34-3.81-12.59C12.66,483.65-.17,398.26,0,315.84.2,225.32,15.94,137.76,46.78,55.58V48.37l2-4,9.85-7.5C60.58,35.39,108.1,0,201.78,0S343,35.38,345,36.89l9.86,7.5,2,4v7.21c30.83,82.21,46.56,169.75,46.76,260.24.17,82.43-12.66,167.83-38.15,253.82-1.23,4.16-2.51,8.39-3.8,12.57l-2.17,7-1.54,2.34-5.59,4.71c-2,1.72-13.38,10.69-37.53,18.68C284.92,624.82,247.23,629.85,202.74,629.85Zm-149.5-45,4.47,3.78c1.09.92,11.34,9.25,34.19,16.81,28.85,9.57,65.5,14.43,108.92,14.43h1.92c43.42,0,80.05-4.85,108.88-14.42,22.89-7.57,33.14-15.9,34.23-16.82l4.46-3.78,1.73-5.58c1.28-4.14,2.55-8.32,3.77-12.44,25.21-85.07,37.91-169.5,37.74-251-.2-89.59-15.82-176.26-46.44-257.59l-.32-1.76V50.85l-7.88-6C337,43.42,292.08,10,201.78,10S66.53,43.42,64.66,44.85l-7.88,6v5.64l-.32,1.76C25.83,139.55,10.2,226.23,10,315.86c-.17,81.45,12.53,165.87,37.74,250.92,1.24,4.21,2.51,8.41,3.77,12.47Z"/><path class="cls-1" d="M200.82,619.85c-43.42,0-80.07-4.86-108.91-14.43-22.38-7.4-32.42-15.3-34.21-16.81l-4.46-3.78-1.73-5.58c-1.28-4.14-2.55-8.33-3.77-12.47C22.53,481.74,9.83,397.31,10,315.86c.2-90,15.94-176.91,46.78-258.46V50.85l7.88-6C66.53,43.42,111.47,10,201.78,10S337,43.42,338.91,44.84l7.88,6V57.4c30.83,81.58,46.56,168.51,46.76,258.44.17,81.47-12.53,165.9-37.74,251-1.22,4.12-2.49,8.31-3.77,12.45l-1.73,5.58-4.46,3.78c-1.79,1.51-11.82,9.41-34.23,16.81-28.82,9.57-65.46,14.43-108.88,14.43Z"/><path class="cls-2" d="M202.74,624.85h-1.92c-44,0-81.13-4.94-110.49-14.69C67.09,602.48,56.39,594,54.48,592.43L50,588.65l-1.55-2.34-1.73-5.58c-1.28-4.15-2.55-8.36-3.79-12.53C17.6,482.69,4.83,397.79,5,315.85c.2-90.24,15.94-177.5,46.78-259.36V50.85l2-4,7.88-6C63.56,39.4,109.81,5,201.78,5S340,39.4,341.93,40.87l7.89,6,2,4v5.64c30.83,81.89,46.56,169.14,46.76,259.34.17,81.95-12.59,166.87-37.95,252.39-1.23,4.17-2.5,8.38-3.78,12.51l-1.73,5.58-1.55,2.34-4.46,3.78c-1.91,1.61-12.62,10.05-35.88,17.74C283.86,619.91,246.69,624.85,202.74,624.85ZM57.58,582l3.35,2.83c1,.86,10.59,8.62,32.55,15.88,28.34,9.41,64.45,14.18,107.34,14.18h1.92c42.88,0,79-4.77,107.31-14.17,22-7.27,31.55-15,32.57-15.89L346,582l1.3-4.19c1.26-4.09,2.52-8.25,3.75-12.39,25.07-84.6,37.7-168.55,37.53-249.53-.2-89.31-15.82-175.67-46.43-256.68l-.33-1.77V53.33l-5.91-4.51C334.06,47.44,290.43,15,201.78,15S69.5,47.44,67.69,48.83l-5.91,4.5V57.4l-.33,1.77C30.83,140.15,15.2,226.52,15,315.87c-.17,81,12.46,164.91,37.53,249.49,1.22,4.14,2.49,8.31,3.76,12.41Z"/><path class="cls-3" d="M76.81,61C50.41,129.69,30.22,215.09,30,315.88v0c-.15,73.7,10.35,155.59,36.92,245.22q1.8,6.07,3.69,12.21s7.74,6.54,27.6,13.11c20.15,6.68,52.83,13.41,102.61,13.41h1.92c49.78,0,82.45-6.73,102.61-13.41,19.86-6.57,27.59-13.11,27.59-13.11q1.9-6.14,3.69-12.21c26.57-89.63,37.08-171.52,36.92-245.22v0C373.33,215.09,353.14,129.69,326.76,61"/><path class="cls-4" d="M202.74,606.85h-1.92c-52.35,0-85.89-7.49-104.82-13.77-20.54-6.8-29-13.64-29.9-14.4l-2.17-3.28c-1.29-4.15-2.54-8.29-3.72-12.3C35.35,479.26,22.83,396.08,23,315.89c.2-89.7,16.1-176.3,47.27-257.4l13.07,5C52.79,143,37.2,227.93,37,315.9c-.16,78.85,12.16,160.68,36.63,243.23,1,3.24,2,6.56,3,9.91,2.93,1.94,10.39,6.32,23.79,10.75,18,6,49.93,13.06,100.41,13.06h1.92c50.47,0,82.46-7.1,100.4-13.06C316.52,575.37,324,571,326.94,569c1-3.34,2-6.66,3-9.9,24.47-82.55,36.8-164.38,36.63-243.21-.19-88-15.78-172.88-46.32-252.41l13.07-5c31.16,81.13,47.05,167.72,47.25,257.38.17,80.21-12.35,163.39-37.2,247.24-1.19,4-2.44,8.14-3.72,12.29l-2.17,3.28c-.9.76-9.36,7.6-29.92,14.4C288.63,599.36,255.08,606.85,202.74,606.85Z"/><path class="cls-3" d="M326.76,61s-40.4,30.76-125,30.76S76.81,61,76.81,61"/><path class="cls-4" d="M201.78,98.76c-86,0-127.49-30.88-129.21-32.19l8.48-11.14c.37.28,39.92,29.33,120.73,29.33,81.27,0,120.36-29,120.74-29.33L331,66.57C329.28,67.88,287.73,98.76,201.78,98.76Z"/><path class="cls-3" d="M326.79,60.76S286.38,30,201.78,30s-125,30.76-125,30.76V61s40.4,30.76,125,30.76S326.79,61,326.79,61Z"/><path class="cls-4" d="M201.78,98.76c-86,0-127.52-30.88-129.24-32.19A7,7,0,0,1,69.78,61v-.24a7,7,0,0,1,2.76-5.57C74.26,53.88,115.8,23,201.78,23S329.31,53.88,331,55.19a7,7,0,0,1,2.76,5.57V61A7,7,0,0,1,331,66.57C329.31,67.88,287.75,98.76,201.78,98.76ZM90.06,60.88c15.9,8.48,52.88,23.88,111.72,23.88s95.81-15.39,111.73-23.88C297.59,52.39,260.61,37,201.78,37S106,52.39,90.06,60.88Z"/><path class="cls-5" d="M201.78,179.86c-45.82,0-89.34,28.45-89.34,28.45v93h13.31V361.2H112.44v89.93S156,479.6,201.78,479.6s89.33-28.47,89.33-28.47V208.31S247.59,179.86,201.78,179.86Zm57,252.06c-13.79,7.05-36.34,16.17-57,16.17s-43.22-9.1-57-16.17V227.52c13.79-7,36.33-16.16,57-16.16s43.21,9.12,57,16.18Z"/><path class="cls-6" d="M258.8,227.54V431.92c-13.79,7.05-36.34,16.17-57,16.17s-43.22-9.1-57-16.17V227.52c13.79-7,36.33-16.16,57-16.16S245,220.48,258.8,227.54Z"/><rect class="cls-7" x="99.13" y="301.32" width="26.62" height="59.88"/><path class="cls-4" d="M201.78,484.59c-46.77,0-90.25-28.07-92.08-29.27l-2.26-4.18V361.2h10v87.15c9.37,5.62,46.37,26.24,84.34,26.24s75-20.62,84.34-26.24V211.11c-9.38-5.62-46.38-26.25-84.34-26.25s-75,20.63-84.34,26.25v90.21h-10v-93l2.26-4.19c1.83-1.19,45.31-29.27,92.08-29.27s90.24,28.08,92.07,29.27l2.27,4.19V451.14l-2.27,4.18C292,456.52,248.54,484.59,201.78,484.59Z"/><path class="cls-4" d="M201.78,453.09c-23.16,0-47.1-10.47-59.3-16.72l-2.73-4.45V227.53l2.73-4.45c12.2-6.24,36.14-16.71,59.3-16.71s47.09,10.47,59.3,16.71l2.72,4.45V431.92l-2.72,4.46C248.87,442.62,224.94,453.09,201.78,453.09Zm-52-24.26c10.58,5.16,32.08,14.26,52,14.26s41.44-9.1,52-14.26V230.63c-10.58-5.16-32.08-14.26-52-14.26s-41.45,9.09-52,14.25Z"/><path class="cls-4" d="M125.74,366.2H99.13l-5-5V301.32l5-5h26.61l5,5V361.2Zm-21.61-10h16.61V306.32H104.13Z"/></g></g></svg>