<svg xmlns="http://www.w3.org/2000/svg" viewBox="0 0 193.93 118.25"><defs><style>.cls-1{fill:#fbbd1f;}.cls-2{fill:#0c1014;}</style></defs><title>Click</title><g id="图层_2" data-name="图层 2"><g id="图层_2-2" data-name="图层 2"><polygon class="cls-1" points="6.42 50.34 5.28 47.75 6.73 44.02 3 42.57 1.86 39.98 14.9 6.42 17.49 5.28 21.22 6.73 22.67 3 25.26 1.86 42.03 8.38 43.17 10.97 41.73 14.7 45.45 16.15 46.59 18.74 44.42 24.33 41.83 25.47 36.24 23.3 35.1 20.71 36.55 16.98 23.5 11.91 11.91 41.74 24.96 46.81 26.41 43.08 29 41.94 34.59 44.11 35.73 46.7 33.56 52.29 30.97 53.43 27.24 51.98 25.79 55.71 23.2 56.85 6.42 50.34"/><path class="cls-2" d="M24.53,3.73l16.78,6.52-2.17,5.59L22.36,9.32l2.17-5.59M16.77,7.15l5.59,2.17-13,33.56L3.73,40.71l13-33.56m22.37,8.69L44.73,18l-2.17,5.6L37,21.43l2.18-5.59m-29.82,27L26.1,49.4,23.93,55,7.15,48.47l2.17-5.59m19,.92L33.86,46l-2.17,5.59L26.1,49.4l2.17-5.6M26,0,20.8,2.28l-.72,1.86-1.87-.72L13,5.7,0,39.26l2.28,5.17,1.86.73L3.42,47,5.7,52.2l16.78,6.52,5.17-2.28.73-1.87,1.86.73L35.42,53l2.17-5.59-2.28-5.18-5.59-2.17-5.18,2.28-.72,1.86L14.5,40.6,24.64,14.5,34,18.12,33.23,20l2.28,5.18,5.6,2.17,5.17-2.28,2.18-5.59-2.28-5.18-1.87-.72L45,11.7,42.76,6.52,26,0Z"/><polygon class="cls-1" points="37.74 62.5 36.6 59.91 38.78 54.32 41.37 53.18 50.69 56.8 62.27 26.98 58.55 25.53 57.41 22.94 59.58 17.34 62.17 16.2 73.35 20.55 74.49 23.14 60.01 60.42 69.33 64.05 70.47 66.64 68.3 72.23 65.71 73.37 37.74 62.5"/><path class="cls-2" d="M61.44,18.07l11.19,4.35L57.42,61.56,68.6,65.91,66.43,71.5l-28-10.86,2.17-5.59,11.19,4.34,13-33.56-5.59-2.17,2.17-5.59m1.45-3.73-5.18,2.28-2.17,5.59,2.28,5.18,1.87.72L49.55,54.21l-7.46-2.89L36.91,53.6l-2.17,5.59L37,64.37,65,75.23,70.16,73l2.17-5.59-2.28-5.18-7.45-2.9L76.36,23.86l-2.28-5.17L62.89,14.34Z"/><path class="cls-1" d="M74.66,76.84l-1.14-2.59,2.17-5.59,2.59-1.14,9.32,3.62L94.84,52.5l-9.32-3.62-1.14-2.59,2.17-5.59,2.59-1.14,16.78,6.52,1.14,2.59L96.92,74.77l9.32,3.62L107.38,81l-2.17,5.59-2.59,1.14ZM101.05,42l-1.14-2.59,2.17-5.59,2.59-1.14,5.6,2.17,1.14,2.59-2.18,5.59-2.59,1.14Z"/><path class="cls-2" d="M104,34.58l5.59,2.18-2.17,5.59-5.59-2.17,2.17-5.6M88.42,41.42l16.78,6.52-10.87,28,11.19,4.34-2.18,5.59L75.38,75l2.17-5.59,11.19,4.34,8.69-22.37L86.24,47l2.18-5.6m17-10.57-5.18,2.28-2.17,5.6,1.14,2.59-9.32-3.63L84.69,40l-2.17,5.6,2.28,5.17,7.45,2.9L86.46,68.56,79,65.66l-5.18,2.28-2.17,5.59,2.28,5.18,28,10.86,5.18-2.28,2.17-5.59L107,76.52l-7.45-2.89,9.41-24.24-1.71-3.88,3.89-1.71,2.17-5.6L111,33l-5.59-2.18Z"/><polygon class="cls-1" points="117.16 93.36 116.02 90.77 117.47 87.04 113.74 85.59 112.6 83 121.29 60.63 123.88 59.49 127.61 60.94 129.06 57.21 131.65 56.07 148.42 62.59 149.56 65.18 148.12 68.91 151.84 70.36 152.98 72.94 150.81 78.54 148.22 79.68 142.63 77.5 141.49 74.92 142.94 71.19 129.89 66.12 122.65 84.76 135.69 89.83 137.14 86.1 139.73 84.96 145.32 87.14 146.47 89.72 144.29 95.32 141.7 96.46 137.97 95.01 136.53 98.74 133.94 99.88 117.16 93.36"/><path class="cls-2" d="M130.92,57.94l16.78,6.52-2.17,5.59-16.78-6.52,2.17-5.59m-7.76,3.42,5.59,2.17L120.06,85.9l-5.6-2.17,8.7-22.37m22.37,8.69,5.59,2.17L149,77.81l-5.6-2.17,2.18-5.59M120.06,85.9l16.77,6.52L134.66,98l-16.78-6.52,2.18-5.59m18.95.93L144.6,89l-2.17,5.59-5.6-2.17L139,86.83m-6.64-32.62-5.18,2.28-.72,1.86-1.87-.72-5.17,2.28-8.69,22.37L113,87.46l1.86.72L114.16,90l2.28,5.18,16.77,6.52,5.18-2.28.72-1.86,1.87.72L146.16,96l2.17-5.59-2.28-5.18-5.59-2.17-5.18,2.28-.72,1.86-9.33-3.62L131,68.71l9.32,3.62-.72,1.86,2.27,5.18,5.6,2.17,5.17-2.28,2.18-5.59-2.28-5.18-1.87-.72.73-1.87-2.28-5.17-16.78-6.52Z"/><polygon class="cls-1" points="170.85 114.22 169.71 111.63 171.16 107.9 167.43 106.45 166.29 103.86 167.74 100.13 164.01 98.69 162.87 96.1 164.32 92.37 162.45 91.64 156.66 106.56 154.07 107.7 148.48 105.53 147.34 102.94 164.72 58.19 167.31 57.05 172.9 59.23 174.04 61.82 166.08 82.32 173.53 85.22 174.98 81.49 177.57 80.35 181.3 81.8 182.75 78.07 185.34 76.93 190.93 79.1 192.07 81.69 189.9 87.29 187.31 88.43 183.58 86.98 182.13 90.71 179.54 91.85 175.81 90.4 172.92 97.85 176.65 99.3 177.78 101.89 176.34 105.62 180.06 107.07 181.2 109.66 179.03 115.25 176.44 116.39 170.85 114.22"/><path class="cls-2" d="M166.59,58.92l5.59,2.17-8.69,22.37,11.18,4.35L170.33,99l-5.6-2.17,2.18-5.59-5.6-2.17-6.51,16.77-5.6-2.17,17.39-44.74m18,19.88L190.2,81,188,86.56l-5.59-2.17,2.17-5.59m-7.76,3.42,5.59,2.17L180.27,90l-5.6-2.17,2.18-5.59M170.33,99l5.59,2.18-2.17,5.59-5.6-2.17,2.18-5.6m3.42,7.77,5.59,2.17-2.17,5.6-5.6-2.18,2.18-5.59M168,55.19l-5.17,2.28-17.39,44.74,2.28,5.18,5.6,2.17,5.17-2.28L162.15,98l1.14,2.59,1.86.72-.72,1.87,2.28,5.18,1.86.72-.72,1.87,2.28,5.17,5.59,2.17L180.9,116l2.17-5.59-2.28-5.17-1.87-.73.73-1.86-2.28-5.18-1.87-.73L177,93l1.87.72L184,91.43l.73-1.86,1.86.72L191.76,88l2.17-5.59-2.28-5.18-5.59-2.17-5.18,2.28-.72,1.86-1.87-.72-5.17,2.28-.73,1.86-3.73-1.45,7.25-18.64-2.28-5.18L168,55.19Z"/></g></g></svg>