<svg xmlns="http://www.w3.org/2000/svg" viewBox="0 0 188.68 309.73"><defs><style>.cls-1{fill:#c64a39;}.cls-2{fill:#0c1014;}.cls-3{fill:#2f5f8f;}</style></defs><title>舱门</title><g id="图层_2" data-name="图层 2"><g id="图层_2-2" data-name="图层 2"><path class="cls-1" d="M94.34,5c45.81,0,89.33,28.45,89.33,28.45v93H170.36v59.88h13.31v89.93s-43.52,28.47-89.33,28.47S5,276.27,5,276.27V33.45S48.53,5,94.34,5Zm-57,252.06c13.79,7.05,36.34,16.17,57,16.17s43.21-9.1,57-16.17V52.66c-13.79-7-36.34-16.17-57-16.17s-43.21,9.12-57,16.19Z"/><path class="cls-2" d="M94.34,309.73c-46.77,0-90.25-28.08-92.08-29.27L0,276.27V33.46l2.26-4.19C4.09,28.08,47.57,0,94.34,0s90.25,28.08,92.07,29.27l2.27,4.19v93h-10V36.24C169.31,30.63,132.31,10,94.34,10S19.37,30.63,10,36.24V273.49c9.37,5.61,46.37,26.24,84.34,26.24s75-20.63,84.34-26.24V186.34h10v89.93l-2.27,4.19C184.59,281.65,141.11,309.73,94.34,309.73Z"/><path class="cls-3" d="M37.32,52.68V257.06c13.79,7.05,36.34,16.17,57,16.17s43.21-9.1,57-16.17V52.66c-13.79-7-36.34-16.17-57-16.17S51.13,45.61,37.32,52.68Z"/><path class="cls-2" d="M94.34,278.23c-23.16,0-47.1-10.47-59.3-16.72l-2.73-4.45V52.67L35,48.22C47.24,42,71.18,31.5,94.34,31.5S141.43,42,153.64,48.22l2.72,4.45V257.06l-2.72,4.45C141.43,267.75,117.5,278.23,94.34,278.23ZM42.31,254c10.59,5.16,32.08,14.26,52,14.26s41.44-9.1,52-14.26V55.76c-10.58-5.16-32.07-14.26-52-14.26s-41.44,9.1-52,14.26Z"/></g></g></svg>