<svg xmlns="http://www.w3.org/2000/svg" viewBox="0 0 601.04 430"><defs><style>.cls-1{fill:#f9e7cd;}.cls-2{fill:#0c1014;}</style></defs><title>展开纸卷</title><g id="图层_2" data-name="图层 2"><g id="图层_2-2" data-name="图层 2"><path class="cls-1" d="M375,5S539,378,564,372s44,49,23,53H14c-21-4-2-59,23-53S225,5,225,5Z"/><path class="cls-2" d="M587,430H14l-.93-.09C7.4,428.83,3.2,425,1.26,419.11-2.67,407.24,2.92,388,13.73,376.28c7.11-7.74,15.55-11,23.84-9.28,2.06-1,11.08-8,38.54-58.72,16.65-30.74,37.68-72.94,62.5-125.43C180.9,93.39,220.05,3.89,220.44,3L225,0H375l4.58,3c.39.89,39.78,90.4,82.33,179.87,25,52.5,46.1,94.7,62.83,125.43C552.37,359,561.41,366,563.47,367c8.29-1.74,16.73,1.54,23.85,9.28,10.8,11.75,16.4,31,12.47,42.83-1.95,5.88-6.15,9.72-11.83,10.8ZM14.56,420H586.49c1.33-.33,2.86-1.18,3.8-4,2.77-8.34-2.16-24-10.34-32.92-3.34-3.64-8.62-7.66-14.76-6.19s-14.87-1.69-45.62-57.25c-16.76-30.28-38.27-72.91-63.94-126.71C416.37,110.58,379.14,26.7,371.76,10H228.29C220.94,26.73,184,110.59,144.91,192.89,119.4,246.69,98,289.32,81.32,319.6c-30.6,55.56-39.24,58.76-45.47,57.26s-11.42,2.55-14.76,6.19C12.92,391.93,8,407.63,10.75,416,11.69,418.82,13.22,419.67,14.56,420Z"/><line class="cls-1" x1="74.02" y1="371" x2="526.02" y2="371"/><rect class="cls-2" x="74.02" y="367" width="452" height="8"/></g></g></svg>