<svg xmlns="http://www.w3.org/2000/svg" viewBox="0 0 87.95 240.56"><defs><style>.cls-1{fill:#2f5f8f;}.cls-2{fill:#0c1014;}.cls-3{fill:#c64a39;}.cls-4{fill:#f9e7cd;}</style></defs><title>笔</title><g id="图层_2" data-name="图层 2"><g id="图层_2-2" data-name="图层 2"><rect class="cls-1" x="36.76" y="36.5" width="23.31" height="169.68" transform="matrix(0.96, -0.27, 0.27, 0.96, -31.49, 17.99)"/><path class="cls-2" d="M61.91,210.92l-6.18-3.43L9.08,44.35l3.43-6.18,22.42-6.41,6.18,3.43L87.76,198.33l-3.43,6.18ZM20.07,46.41,64,199.93l12.8-3.66L32.87,42.75Z"/><rect class="cls-3" x="8.9" y="7.38" width="23.31" height="33.03" transform="matrix(0.96, -0.27, 0.27, 0.96, -5.78, 6.57)"/><path class="cls-2" d="M15.26,47.78,9.08,44.35,0,12.59,3.43,6.41,25.85,0,32,3.43l9.08,31.76-3.43,6.18ZM11,14.65l6.33,22.14,12.8-3.66L23.79,11Z"/><polygon class="cls-4" points="81.72 237.78 60.54 206.11 82.95 199.7 81.72 237.78"/><path class="cls-2" d="M77.56,240.56,56.38,208.89l2.78-7.59,22.42-6.41,6.37,5-1.24,38.08Zm-9-31.53,8.71,13,.51-15.68Z"/></g></g></svg>