<svg xmlns="http://www.w3.org/2000/svg" viewBox="0 0 85.33 85.33"><defs><style>.cls-1{fill:#c64a39;}.cls-2{fill:#0c1014;}</style></defs><title>红色十字星</title><g id="图层_2" data-name="图层 2"><g id="图层_2-2" data-name="图层 2"><path class="cls-1" d="M31,80.79l-9.92-4.6A34,34,0,0,0,4.53,31l4.61-9.92A34,34,0,0,0,54.34,4.53l9.92,4.61a34,34,0,0,0,16.53,45.2l-4.6,9.92A34,34,0,0,0,31,80.79Z"/><path class="cls-2" d="M28.88,85.33,19,80.72l-2.42-6.64A29.07,29.07,0,0,0,2.43,35.52L0,28.88,4.6,19l6.64-2.42A29.08,29.08,0,0,0,49.81,2.43L56.45,0l9.91,4.6,2.43,6.64A29.08,29.08,0,0,0,82.9,49.81l2.43,6.64-4.61,9.91-6.64,2.43A29.06,29.06,0,0,0,35.52,82.9ZM27.42,73.62l1.42.67A39.13,39.13,0,0,1,73.62,57.9l.67-1.42A39.12,39.12,0,0,1,57.9,11.7L56.48,11A39.1,39.1,0,0,1,11.7,27.42L11,28.84A39.12,39.12,0,0,1,27.42,73.62Z"/></g></g></svg>