<svg xmlns="http://www.w3.org/2000/svg" viewBox="0 0 296 44"><title>写下你的焦虑</title><g id="图层_2" data-name="图层 2"><g id="图层_2-2" data-name="图层 2"><path d="M0,0H44V12H40V4H4v8H0ZM32,32v4H0V32Zm4-8H8V8h4v4H36v4H12v4H40V40H36Zm0,16v4H24V40Z"/><path d="M50.4,0h44V4h-20V44h-4V4h-20Zm28,16h4v4h-4Zm4,4h4v4h-4Zm4,4h4v4h-4Z"/><path d="M108.8,44h-4V20h-4V16h4V8h4Zm0-44h4V8h-4Zm4,12h4v4h-4Zm0,20h4v4h-4Zm4-32h4V4h24V16h-4V8h-8V20h4v4h-4V44h-8V40h4V8h-8v4h-4Zm0,28h4v4h-4Zm4-8h4v8h-4Zm16,4h4v4h-4Zm4,4h4v8h-4Z"/><path d="M151.2,8h4V4h4V8h12v4h4v4h-4V44h-20Zm4,16h12V12h-12Zm0,16h12V28h-12Zm4-40h4V4h-4Zm32,12h-16V8h4V0h4V8h12V40h-4Zm-12,8h4v4h-4Zm4,4h4v8h-4Zm8,20h-8V40h8Z"/><path d="M201.6,16h4v4h-4Zm0,24h4v4h-4Zm12-40h4V4h12V0h4V4h8V8h-12v4h12v4h-12v4h12v4h-12v4h12v4h-32V16h-4V12h4V4h4Zm-8,36h4v4h-4Zm20-24V8h-12v4Zm-12,4v4h12V16Zm0,8v4h12V24Zm0,12h4v4h-4Zm4,4h4v4h-4Zm8-4h4v4h-4Zm4,4h4v4h-4Zm8-4h4v4h-4Zm4,4h4v4h-4Z"/><path d="M252,28h4v8h-4ZM272,8V0h20V4H276V8h20v8h-4V12H276v4h12v4H276v4h16V20h4v8H280v4h-4V28h-4V20h-8V16h8V12H260V28h-4V8ZM256,40h4v4h-4Zm4-4h4v4h-4Zm8-4h4v8h-4Zm20,8v4H272V40Zm-8-8h4v4h-4Zm8,0h4v4h-4Zm4,4h4v4h-4Z"/></g></g></svg>