<svg xmlns="http://www.w3.org/2000/svg" viewBox="0 0 196.85 209.67"><defs><style>.cls-1{fill:#fbbd1f;}.cls-2{fill:#0c1014;}</style></defs><title>黄色星星</title><g id="图层_2" data-name="图层 2"><g id="图层_2-2" data-name="图层 2"><polygon class="cls-1" points="86.48 2.13 75.46 65.47 13.22 58.86 49.57 102.37 3.31 143.13 69.4 128.26 95.29 208.13 117.87 135.97 156.43 170.12 141.56 105.13 193.33 53.9 116.77 66.57 86.48 2.13"/><path class="cls-2" d="M90.53,209.67,66.05,134.14,4.4,148,0,139.38l42.61-37.54L9.38,62.07l4.37-8.18L71.34,60,81.55,1.27,91,0l28.69,61L192.52,49l4.33,8.49-49.8,49.26L161.3,169l-8.19,4.86-32.77-29-20.28,64.79ZM68.3,123.38l5.86,3.34,21,64.93,17.89-57.17,8.09-2.25,26.89,23.82-11.4-49.81,1.36-4.67,40.6-40.17-61,10.1-5.34-2.8L88.69,18.59l-8.3,47.74-5.46,4.11L25,65.14l28.43,34-.53,7L21.28,134Z"/></g></g></svg>