<svg xmlns="http://www.w3.org/2000/svg" viewBox="0 0 120.98 79.46"><defs><style>.cls-1{fill:#c64a39;}.cls-2{fill:#0c1014;}</style></defs><title>wow</title><g id="图层_2" data-name="图层 2"><g id="图层_2-2" data-name="图层 2"><polygon class="cls-1" points="19.45 76.07 15.56 60.55 11.68 61.52 9.25 60.07 1.94 30.98 3.39 28.55 9.21 27.09 11.64 28.54 18.46 55.7 20.4 55.21 13.58 28.05 15.03 25.63 20.85 24.16 23.28 25.62 30.1 52.77 32.04 52.28 25.22 25.13 26.67 22.7 32.49 21.24 34.91 22.69 42.23 51.79 40.77 54.21 36.89 55.19 40.79 70.71 39.34 73.13 33.52 74.6 31.09 73.14 27.2 57.63 25.25 58.11 29.15 73.63 27.7 76.06 21.88 77.52 19.45 76.07"/><path class="cls-2" d="M33,23.18l7.31,29.09-5.82,1.47-7.31-29.1L33,23.18M21.34,26.1l7.31,29.1-5.82,1.46L15.52,27.57l5.82-1.47M9.7,29,17,58.12l-5.82,1.46L3.88,30.49,9.7,29M34.47,53.74l4.38,17.45L33,72.66,28.65,55.2l5.82-1.46M22.83,56.66l4.38,17.46-5.82,1.46L17,58.12l5.82-1.46M32,19.3l-5.82,1.46L24,24.4l-3.64-2.18-5.82,1.47-2.18,3.64L8.72,25.15,2.9,26.61,0,31.46l7.31,29.1,4.85,2.9L14.1,63l3.41,13.58,4.86,2.9L28.19,78l2.18-3.64L34,76.54l5.82-1.47,2.9-4.85L39.32,56.64l1.94-.49,2.91-4.85L36.85,22.2,32,19.3Z"/><path class="cls-1" d="M57.86,66.42l-1-3.88-3.88,1-2.43-1.45L44.73,38.78l1.45-2.42,3.88-1-1-3.88,1.45-2.42L68,24.69l2.42,1.45,1,3.88,3.88-1,2.43,1.45,5.84,23.28L82.1,56.2l-3.88,1,1,3.88-1.46,2.42L60.29,67.87Zm1.93-8.74,13.58-3.41L68.5,34.88,54.92,38.29Z"/><path class="cls-2" d="M68.48,26.63,70,32.45,52.49,36.84,51,31l17.45-4.39M75.77,31l5.84,23.27L75.8,55.73,70,32.45,75.77,31M52.49,36.84l5.85,23.27-5.82,1.46L46.67,38.3l5.82-1.46M75.8,55.73l1.46,5.81L59.8,65.93l-1.46-5.82L75.8,55.73m-8.29-33L50.05,27.14,47.15,32l.49,1.94-1.94.49-2.91,4.85,5.85,23.28,4.85,2.9L55.43,65l.49,1.94,4.85,2.9,17.46-4.39,2.91-4.85-.49-1.94,1.94-.49,2.9-4.85L79.65,30l-4.86-2.9-1.94.48-.49-1.94-4.85-2.9Zm-10.17,17L67,37.3l3.9,15.52-9.7,2.44-3.9-15.52Z"/><polygon class="cls-1" points="96.27 56.77 92.37 41.25 88.49 42.23 86.06 40.77 78.75 11.68 80.2 9.25 86.02 7.79 88.45 9.24 95.27 36.4 97.21 35.91 90.39 8.75 91.84 6.33 97.66 4.86 100.09 6.32 106.91 33.47 108.85 32.98 102.03 5.83 103.48 3.4 109.3 1.94 111.73 3.39 119.04 32.49 117.58 34.91 113.71 35.89 117.6 51.41 116.15 53.84 110.33 55.3 107.91 53.84 104.01 38.33 102.07 38.81 105.97 54.33 104.51 56.76 98.69 58.22 96.27 56.77"/><path class="cls-2" d="M109.79,3.88,117.1,33l-5.82,1.46L104,5.34l5.82-1.46M98.15,6.8l7.31,29.1-5.82,1.46L92.33,8.27,98.15,6.8M86.51,9.73l7.31,29.09L88,40.29l-7.31-29.1,5.82-1.46m24.77,24.71,4.38,17.46-5.81,1.46L105.46,35.9l5.82-1.46M99.64,37.36,104,54.82l-5.82,1.46L93.82,38.82l5.82-1.46M108.81,0,103,1.46,100.81,5.1,97.17,2.92,91.36,4.39,89.18,8,85.54,5.85,79.72,7.31l-2.91,4.85,7.31,29.1L89,44.17l1.94-.49,3.41,13.58,4.85,2.9L105,58.7l2.18-3.64,3.64,2.18,5.82-1.47,2.9-4.85-3.41-13.58,1.94-.49L121,32,113.67,2.9,108.81,0Z"/></g></g></svg>