<svg xmlns="http://www.w3.org/2000/svg" viewBox="0 0 602 532"><defs><style>.cls-1{fill:#2f5f8f;}.cls-2{fill:#0c1014;}.cls-3{fill:#f9e7cd;}.cls-4{fill:#313b45;stroke:#0c1014;stroke-linejoin:bevel;stroke-width:4px;}</style></defs><title>传送带面板</title><g id="图层_2" data-name="图层 2"><g id="图层_2-2" data-name="图层 2"><polygon class="cls-1" points="57.31 527 53.77 525.54 6.46 478.23 5 474.69 5 57.31 6.46 53.77 53.77 6.46 57.31 5 544.69 5 548.23 6.46 595.53 53.77 597 57.31 597 474.69 595.53 478.23 548.23 525.54 544.69 527 57.31 527"/><path class="cls-2" d="M544.69,10,592,57.31V474.69L544.69,522H57.31C38.83,503.53,28.47,493.17,10,474.69V57.31C28.47,38.83,38.83,28.47,57.31,10H544.69m0-10H57.31L50.23,2.93,26.58,26.58,2.93,50.23,0,57.31V474.69l2.93,7.08,47.3,47.3L57.31,532H544.69l7.08-2.93,47.3-47.3,2.93-7.08V57.31l-2.93-7.08L575.42,26.58,551.77,2.93,544.69,0Z"/><polygon class="cls-3" points="69.1 488.33 65.56 486.87 46.47 467.77 45 464.24 45 67.76 46.47 64.23 65.56 45.13 69.1 43.66 532.9 43.66 536.44 45.13 555.53 64.23 557 67.76 557 464.24 555.53 467.77 536.44 486.87 532.9 488.33 69.1 488.33"/><path class="cls-2" d="M532.9,48.67,552,67.76V464.24l-19.1,19.09H69.1L50,464.24V67.76L69.1,48.67H532.9m0-10H69.1L62,41.59l-9.55,9.55-9.55,9.55L40,67.76V464.24l2.93,7.07,9.55,9.55L62,490.41l7.07,2.92H532.9l7.07-2.92,9.55-9.55,9.55-9.55,2.93-7.07V67.76l-2.93-7.07-9.55-9.55L540,41.59l-7.07-2.92Z"/><circle class="cls-4" cx="527" cy="458" r="10"/><circle class="cls-4" cx="75" cy="458" r="10"/></g></g></svg>