<svg xmlns="http://www.w3.org/2000/svg" viewBox="0 0 280.32 1343.38"><defs><style>.cls-1{fill:#0c1014;}</style></defs><title>传送带花纹（一组）</title><g id="图层_2" data-name="图层 2"><g id="图层_2-2" data-name="图层 2"><polygon class="cls-1" points="276 1343.38 174.63 1294.79 105.69 1294.79 4.32 1343.38 0 1334.36 102.4 1285.28 104.56 1284.79 175.76 1284.79 177.93 1285.28 280.32 1334.36 276 1343.38"/><polygon class="cls-1" points="276 1236.32 174.63 1187.72 105.69 1187.72 4.32 1236.32 0 1227.3 102.4 1178.21 104.56 1177.72 175.76 1177.72 177.93 1178.21 280.32 1227.3 276 1236.32"/><polygon class="cls-1" points="276 1129.25 174.63 1080.66 105.69 1080.66 4.32 1129.25 0 1120.23 102.4 1071.15 104.56 1070.66 175.76 1070.66 177.93 1071.15 280.32 1120.23 276 1129.25"/><polygon class="cls-1" points="276 1022.18 174.63 973.59 105.69 973.59 4.32 1022.18 0 1013.17 102.4 964.08 104.56 963.59 175.76 963.59 177.93 964.08 280.32 1013.17 276 1022.18"/><polygon class="cls-1" points="276 915.12 174.63 866.53 105.69 866.53 4.32 915.12 0 906.1 102.4 857.02 104.56 856.53 175.76 856.53 177.93 857.02 280.32 906.1 276 915.12"/><polygon class="cls-1" points="276 808.05 174.63 759.46 105.69 759.46 4.32 808.05 0 799.03 102.4 749.95 104.56 749.46 175.76 749.46 177.93 749.95 280.32 799.03 276 808.05"/><polygon class="cls-1" points="276 700.99 174.63 652.39 105.69 652.39 4.32 700.99 0 691.97 102.4 642.89 104.56 642.39 175.76 642.39 177.93 642.89 280.32 691.97 276 700.99"/><polygon class="cls-1" points="276 593.92 174.63 545.33 105.69 545.33 4.32 593.92 0 584.9 102.4 535.82 104.56 535.33 175.76 535.33 177.93 535.82 280.32 584.9 276 593.92"/><polygon class="cls-1" points="276 486.86 174.63 438.26 105.69 438.26 4.32 486.86 0 477.84 102.4 428.75 104.56 428.26 175.76 428.26 177.93 428.75 280.32 477.84 276 486.86"/><polygon class="cls-1" points="276 379.79 174.63 331.2 105.69 331.2 4.32 379.79 0 370.77 102.4 321.69 104.56 321.2 175.76 321.2 177.93 321.69 280.32 370.77 276 379.79"/><polygon class="cls-1" points="276 272.72 174.63 224.13 105.69 224.13 4.32 272.72 0 263.71 102.4 214.62 104.56 214.13 175.76 214.13 177.93 214.62 280.32 263.71 276 272.72"/><polygon class="cls-1" points="276 165.66 174.63 117.07 105.69 117.07 4.32 165.66 0 156.64 102.4 107.56 104.56 107.07 175.76 107.07 177.93 107.56 280.32 156.64 276 165.66"/><polygon class="cls-1" points="276 58.59 174.63 10 105.69 10 4.32 58.59 0 49.57 102.4 0.49 104.56 0 175.76 0 177.93 0.49 280.32 49.57 276 58.59"/></g></g></svg>