<svg xmlns="http://www.w3.org/2000/svg" viewBox="0 0 395 115"><defs><style>.cls-1{fill:#313b45;}.cls-2{fill:#0c1014;}.cls-3{fill:#fbbd1f;}.cls-4{fill:#f9f9f9;}</style></defs><title>传送带上边缘</title><g id="图层_2" data-name="图层 2"><g id="图层_2-2" data-name="图层 2"><rect class="cls-1" x="91" y="5" width="276" height="105"/><path class="cls-2" d="M367,115H91l-5-5V5l5-5H367l5,5V110ZM96,105H362V10H96Z"/><path class="cls-3" d="M390,110H367V5h5.38L390,22.62Z"/><path class="cls-2" d="M390,115H367l-5-5V5l5-5h5.38l3.54,1.46,17.62,17.62L395,22.62V110Zm-18-10h13V24.69l-13-13Z"/><rect class="cls-3" x="68" y="5" width="23" height="105" transform="translate(159 115) rotate(-180)"/><path class="cls-2" d="M91,115H68l-5-5V5l5-5H91l5,5V110ZM73,105H86V10H73Z"/><rect class="cls-1" x="28" y="5" width="40" height="105"/><path class="cls-2" d="M68,115H28l-5-5V5l5-5H68l5,5V110ZM33,105H63V10H33Z"/><path class="cls-3" d="M28,110H5V19.68L19.68,5H28Z"/><path class="cls-2" d="M28,115H5l-5-5V19.68l1.46-3.53L16.15,1.46,19.68,0H28l5,5V110ZM10,105H23V10H21.75L10,21.75Z"/><circle class="cls-4" cx="48" cy="60" r="10"/><path class="cls-2" d="M48,72A12,12,0,1,1,60,60,12,12,0,0,1,48,72Zm0-20a8,8,0,1,0,8,8A8,8,0,0,0,48,52Z"/><path class="cls-1" d="M91,84.08,193.4,35h71.2L367,84.08"/><polygon class="cls-2" points="364.84 88.59 263.47 40 194.53 40 93.16 88.59 88.84 79.57 191.24 30.49 193.4 30 264.6 30 266.76 30.49 369.16 79.57 364.84 88.59"/></g></g></svg>