<svg xmlns="http://www.w3.org/2000/svg" viewBox="0 0 629.14 1376"><defs><style>.cls-1,.cls-4{fill:#313b45;}.cls-1,.cls-12,.cls-2,.cls-3,.cls-4,.cls-5,.cls-9{stroke:#0c1014;stroke-linejoin:bevel;}.cls-1,.cls-12,.cls-2,.cls-3,.cls-9{stroke-width:4px;}.cls-2,.cls-5{fill:#fbbd1f;}.cls-10,.cls-3{fill:#2f5f8f;}.cls-4,.cls-5{stroke-width:10px;}.cls-12,.cls-6{fill:#c95119;}.cls-7{fill:#0c1014;}.cls-8{fill:#c64a39;}.cls-11,.cls-9{fill:#f9f9f9;}</style></defs><title>传送带</title><g id="图层_2" data-name="图层 2"><g id="图层_2-2" data-name="图层 2"><polygon class="cls-1" points="514.57 925 495.52 887.66 459.87 895.87 455.57 902.6 491.21 899.61 501.05 925 514.57 925"/><polygon class="cls-1" points="514.57 925 495.52 962.34 459.87 954.13 455.57 947.4 491.21 950.39 501.05 925 514.57 925"/><rect class="cls-2" x="516.68" y="1115.85" width="34" height="164.16" transform="translate(1248.38 98.37) rotate(57.04)"/><rect class="cls-2" x="539.59" y="895.46" width="20.33" height="107.17" transform="matrix(-0.5, 0.87, -0.87, -0.5, 1646.53, 947.47)"/><rect class="cls-3" x="579.66" y="962.79" width="28.41" height="211.36"/><rect class="cls-4" x="132.07" y="5" width="276" height="1366"/><rect class="cls-5" x="408.07" y="5" width="23" height="1366"/><rect class="cls-5" x="109.07" y="5" width="23" height="1366" transform="translate(241.14 1376) rotate(-180)"/><rect class="cls-4" x="69.07" y="5" width="40" height="1366"/><rect class="cls-5" x="46.07" y="5" width="23" height="1366"/><polygon class="cls-6" points="29.59 182.17 20.99 178.73 14.4 181.96 9.62 177.3 12.69 170.63 9.04 162.12 2.1 159.75 2.02 153.06 8.9 150.52 12.34 141.92 9.11 135.34 13.77 130.55 20.44 133.62 28.95 129.97 31.32 123.03 38 122.95 40.55 129.83 49.15 133.27 55.73 130.04 60.52 134.7 57.45 141.37 61.1 149.88 68.04 152.25 68.12 158.94 61.24 161.48 57.8 170.08 61.03 176.66 56.37 181.45 49.7 178.38 41.19 182.03 38.81 188.97 32.13 189.05 29.59 182.17"/><path class="cls-7" d="M36.62,125l1.74,4.72.62,1.67,1.65.66,3.47,1.39,3.48,1.39,1.65.66,1.6-.79,4.52-2.21,1.37,1.34,1.39,1.35L56,139.72l-.74,1.62L56,143l1.44,3.37,1.51,3.51.7,1.64,1.68.57,4.77,1.63,0,1.82,0,2-4.72,1.74-1.67.62-.66,1.65-2.78,6.95-.66,1.65.79,1.6,2.21,4.52L55.92,179l-4.57-2.11-1.62-.74-1.63.7-3.44,1.48-3.44,1.47-1.64.7L39,182.22,37.38,187l-1.94,0-1.92,0-1.74-4.72-.62-1.67L29.51,180,26,178.59l-3.47-1.39-1.65-.66-1.6.79-4.52,2.21-1.37-1.34L12,176.85l2.11-4.57.74-1.62-.7-1.63-1.44-3.37-1.51-3.51-.7-1.64-1.68-.57-4.77-1.63,0-1.82,0-2,4.73-1.74,1.67-.62.66-1.65,2.77-6.95.66-1.65-.78-1.6-2.22-4.52,2.7-2.76,4.57,2.11,1.62.74,1.63-.7,3.44-1.48,3.44-1.47,1.64-.7.57-1.68L32.76,125l1.94,0,1.92,0m2.77-4-9.5.12-2.54,7.43-6.88,3-7.14-3.28C10,131.54,10,131.55,6.69,135L10.15,142l-2.78,7L0,151.68c.06,4.74.06,4.76.12,9.5l7.43,2.54c1.18,2.75,1.77,4.14,3,6.88l-3.28,7.14,6.8,6.64,7.05-3.46,7,2.78,2.73,7.37,9.5-.12,2.54-7.43,6.88-3,7.14,3.28,6.64-6.8L60,170l2.78-7,7.37-2.72c-.06-4.74-.06-4.76-.12-9.5l-7.43-2.54c-1.18-2.75-1.78-4.14-3-6.88l3.28-7.14-6.8-6.64-7.06,3.46-7-2.78-2.72-7.37Z"/><circle class="cls-1" cx="35.07" cy="156" r="10"/><polygon class="cls-8" points="588.59 1185.17 579.99 1181.73 573.4 1184.96 568.62 1180.3 571.69 1173.63 568.04 1165.12 561.1 1162.74 561.02 1156.07 567.9 1153.52 571.34 1144.92 568.11 1138.34 572.77 1133.55 579.44 1136.62 587.95 1132.97 590.32 1126.03 597 1125.95 599.54 1132.83 608.15 1136.27 614.73 1133.04 619.51 1137.7 616.45 1144.37 620.1 1152.88 627.04 1155.26 627.12 1161.93 620.24 1164.48 616.8 1173.08 620.03 1179.66 615.37 1184.45 608.7 1181.38 600.19 1185.03 597.81 1191.97 591.13 1192.05 588.59 1185.17"/><path class="cls-7" d="M595.62,1128l1.74,4.72.62,1.67,1.65.66,3.47,1.39,3.48,1.39,1.65.66,1.6-.79,4.52-2.21,1.37,1.33,1.39,1.36-2.11,4.57-.74,1.62.7,1.63,2.95,6.88.7,1.64,1.68.57,4.77,1.63,0,1.93,0,1.93-4.72,1.74-1.67.62-.66,1.65-2.78,7-.66,1.65.79,1.6,2.21,4.52-1.4,1.43-1.29,1.33-4.57-2.11-1.62-.74-1.63.7-3.8,1.63-3.08,1.32-1.64.7-.57,1.68-1.63,4.77-3.86,0-1.74-4.72-.62-1.67-1.65-.66-3.48-1.39-3.47-1.39-1.65-.66-1.6.79-4.52,2.21-1.37-1.33-1.39-1.36,2.11-4.57.74-1.62-.7-1.63-1.48-3.44-1.47-3.44-.7-1.64-1.68-.57-4.77-1.63,0-1.82,0-2,4.73-1.74,1.67-.62.66-1.65.13-.35,2.64-6.6.66-1.65-.78-1.6-2.22-4.52,2.7-2.76,4.57,2.11,1.62.74,1.63-.7,3.44-1.48,3.44-1.47,1.64-.7.57-1.68,1.63-4.77,3.86,0m2.77-4-9.5.12-2.54,7.43-6.88,3-7.14-3.28c-3.32,3.39-3.33,3.4-6.64,6.8l3.46,7-2.78,7-7.37,2.72c.06,4.74.06,4.76.12,9.5l7.43,2.54c1.18,2.75,1.77,4.14,3,6.88l-3.28,7.14,6.8,6.64,7.05-3.46,6.95,2.78,2.73,7.37,9.5-.12,2.54-7.43,6.88-3,7.14,3.28,6.64-6.8-3.46-7,2.78-7,7.37-2.72c-.06-4.74-.06-4.76-.12-9.5l-7.43-2.54c-1.18-2.75-1.78-4.14-3-6.88l3.28-7.14-6.8-6.64-7.06,3.46-6.95-2.78-2.72-7.37Z"/><circle class="cls-1" cx="594.07" cy="1159" r="10"/><circle class="cls-9" cx="89.07" cy="37" r="10"/><circle class="cls-9" cx="89.07" cy="95.36" r="10"/><circle class="cls-9" cx="89.07" cy="153.73" r="10"/><circle class="cls-9" cx="89.07" cy="212.09" r="10"/><circle class="cls-9" cx="89.07" cy="270.45" r="10"/><circle class="cls-9" cx="89.07" cy="312" r="10"/><circle class="cls-9" cx="89.07" cy="387.18" r="10"/><circle class="cls-9" cx="89.07" cy="445.55" r="10"/><circle class="cls-9" cx="89.07" cy="503.91" r="10"/><circle class="cls-9" cx="89.07" cy="562.27" r="10"/><circle class="cls-9" cx="89.07" cy="620.64" r="10"/><circle class="cls-9" cx="89.07" cy="679" r="10"/><circle class="cls-9" cx="89.07" cy="737.36" r="10"/><circle class="cls-9" cx="89.07" cy="795.73" r="10"/><circle class="cls-9" cx="89.07" cy="854.09" r="10"/><circle class="cls-9" cx="89.07" cy="912.45" r="10"/><circle class="cls-9" cx="89.07" cy="970.82" r="10"/><circle class="cls-9" cx="89.07" cy="1029.18" r="10"/><circle class="cls-9" cx="89.07" cy="1087.55" r="10"/><circle class="cls-9" cx="89.07" cy="1145.91" r="10"/><circle class="cls-9" cx="89.07" cy="1204.27" r="10"/><circle class="cls-9" cx="89.07" cy="1262.64" r="10"/><circle class="cls-9" cx="89.07" cy="1321" r="10"/><polygon class="cls-10" points="92.09 247.1 80.51 246.61 73.65 253.58 64.91 249.51 65.83 239.77 57.99 231.23 48.21 231.31 44.91 222.26 52.44 216.02 52.94 204.44 45.97 197.58 50.04 188.84 59.77 189.76 68.31 181.92 68.24 172.14 77.29 168.84 83.53 176.38 95.11 176.87 101.97 169.9 110.7 173.97 109.79 183.71 117.62 192.25 127.4 192.17 130.71 201.22 123.17 207.46 122.67 219.04 129.65 225.9 125.58 234.63 115.84 233.72 107.3 241.56 107.38 251.34 98.33 254.64 92.09 247.1"/><path class="cls-7" d="M76.65,171.2,81.42,177l1.13,1.37,1.78.07,4.5.19,5.3.23,1.78.08,1.25-1.27,5.24-5.33,2.61,1.21,3.57,1.66-.7,7.45-.17,1.77,1.2,1.31,3.15,3.43,3.49,3.8,1.2,1.31h1.78l7.48-.06,1.17,3.2,1.16,3.2-5.76,4.77-1.37,1.13-.07,1.78-.43,9.8-.07,1.78,1.27,1.25,5.33,5.24-2.88,6.18-7.44-.7-1.77-.17-1.31,1.2-3.62,3.32-3.62,3.32-1.31,1.2,0,1.78.06,7.48-3.2,1.17L99,252.27l-4.77-5.76-1.13-1.37-1.78-.07-3.6-.16-6.21-.26-1.77-.08-1.25,1.27-5.25,5.33-3.45-1.61L67,248.29l.7-7.44.17-1.77-1.21-1.31-3.31-3.62-3.32-3.61-1.21-1.31H57.09l-7.48.06-1.23-3.37-1.11-3L53,218.13,54.4,217l.08-1.78.42-9.81.08-1.77-1.27-1.25-5.33-5.24L51.25,191l7.45.7,1.77.17,1.31-1.21,3.45-3.16L69,184l1.31-1.2V181l-.06-7.48,5.56-2,.84-.31m1.28-4.72-11.71,4.27.09,10.3-7.23,6.64-10.26-1L43.56,198l7.35,7.22c-.17,3.92-.26,5.89-.43,9.81l-7.93,6.57,4.27,11.7,10.3-.08,6.64,7.23-1,10.26L74.09,256l7.22-7.35,9.81.42L97.69,257l11.7-4.27-.08-10.3,7.23-6.64,10.26,1c2.62-5.64,2.63-5.66,5.26-11.3l-7.35-7.22c.17-3.92.25-5.9.42-9.81l7.94-6.57-4.27-11.7-10.3.08L111.86,183l1-10.26-11.3-5.26-7.22,7.35-9.81-.42-6.57-7.94Z"/><circle class="cls-1" cx="87.81" cy="211.74" r="13.11"/><polygon class="cls-11" points="588.47 995.08 578.73 994.66 573.23 1000.25 566.62 997.17 567.36 989.37 560.77 982.18 552.93 982.25 550.43 975.4 556.47 970.4 556.89 960.66 551.3 955.16 554.38 948.55 562.18 949.29 569.36 942.7 569.3 934.86 576.15 932.36 581.15 938.4 590.88 938.82 596.38 933.23 602.99 936.31 602.26 944.11 608.85 951.29 616.69 951.23 619.18 958.08 613.15 963.08 612.73 972.82 618.32 978.31 615.24 984.92 607.43 984.19 600.25 990.78 600.32 998.62 593.47 1001.12 588.47 995.08"/><path class="cls-7" d="M575.51,934.73,579,939l1.13,1.37,1.78.08,3.46.15,4.5.19,1.78.08,1.24-1.27,3.89-4,1.3.61,2.75,1.28-.52,5.51-.17,1.77,1.2,1.31,5.39,5.87,1.2,1.31h1.78l5.54,0,.88,2.42.65,1.78L612.55,961l-1.36,1.14-.08,1.77-.28,6.51-.06,1.45-.08,1.78,1.27,1.24,3.95,3.89-1.13,2.42L614,982.8l-5.51-.52-1.77-.17-1.31,1.21-3.78,3.46-2.09,1.92-1.31,1.2v1.78l0,5.54-2.1.77-2.1.76-3.53-4.26-1.14-1.37-1.77-.08-4.21-.18-3.75-.16-1.78-.08-1.25,1.27-3.88,4-4-1.89.52-5.51.16-1.77-1.2-1.31-5.39-5.87-1.2-1.31h-1.77l-5.54,0-.23-.62L552.79,976l4.27-3.53,1.37-1.14.08-1.77.28-6.51.06-1.45.08-1.78-1.27-1.25-3.95-3.88,1.13-2.42.75-1.63,5.52.52,1.77.16,1.31-1.2,2.94-2.69,2.93-2.69,1.31-1.21V941.8l-.05-5.54,2.1-.77,2.1-.76m1.28-4.73-9.5,3.47.07,8.36-5.87,5.39-8.33-.79-4.27,9.17,6,5.87c-.13,3.17-.2,4.78-.34,8l-6.44,5.33c1.73,4.74,1.73,4.76,3.46,9.5l8.37-.07,5.38,5.87-.78,8.33,9.17,4.27,5.86-6,8,.35,5.34,6.44,9.5-3.47-.07-8.36,5.87-5.39,8.33.79,4.26-9.17-6-5.87c.14-3.17.21-4.78.35-8l6.44-5.33-3.47-9.5-8.36.07-5.39-5.87.79-8.33L596,930.82l-5.87,6-8-.34L576.79,930Z"/><circle class="cls-1" cx="584.81" cy="966.74" r="10.64"/><polygon class="cls-3" points="458.07 1297.25 431.07 1308 431.07 1155 458.07 1164.92 458.07 1297.25"/><rect class="cls-12" x="458.07" y="1164.92" width="50" height="132.32"/><circle class="cls-1" cx="482.81" cy="1231.74" r="13.11"/><circle class="cls-1" cx="507.94" cy="925.37" r="13.11"/><circle class="cls-9" cx="507.94" cy="925.37" r="7"/></g></g></svg>