<svg xmlns="http://www.w3.org/2000/svg" viewBox="0 0 330.36 75"><defs><style>.cls-1{fill:#329af9;}.cls-2{fill:#f9f9f9;}.cls-3{fill:#313b45;}</style></defs><title>发射按钮</title><g id="图层_2" data-name="图层 2"><g id="图层_2-2" data-name="图层 2"><rect class="cls-1" x="3" y="3" width="327.36" height="72"/><rect class="cls-2" x="2" y="2" width="323.36" height="68"/><path class="cls-3" d="M323.36,4V68H4V4H323.36m4-4H0V72H327.36V0Z"/><path d="M90.18,26.08h3v-3h3v3h3v9h-3v9h-3v-9h-3Zm3,21h3v3h-3Z"/><path d="M128,29.08v-9h3v9h18v3H128v3h15v6h-3v-3H128v3h-3v-9h-9v-3h3v-6h3v6Zm-12,21h3v3h-3Zm3-3h3v3h-3Zm3-6h3v6h-3Zm0,9h6v3h-6Zm6-9h3v3h-3Zm0,6h3v3h-3Zm3-3h6v3h-6Zm6-24h3v3h-3Zm0,21h3v3h-3Zm0,6h6v3h-6Zm3-24h3v3h-3Zm3,27h6v3h-6Z"/><path d="M176.58,23.08h3v-3h3v3h6v30h-6v-3h3v-6h-3v3h-3v-3h-6v-3h3Zm-3,27h3v3h-3Zm3-3h3v3h-3Zm9-18v-3h-6v3Zm-6,3v3h6v-3Zm6,6h-6v3h6Zm15-6h-9v-3h9v-9h3v9h3v3h-3v21h-9v-3h6Zm-9,3h3v3h-3Zm3,3h3v6h-3Z"/><path d="M223.38,26.08h3v-3h3v3h3v9h-3v9h-3v-9h-3Zm3,21h3v3h-3Z"/></g></g></svg>