<svg xmlns="http://www.w3.org/2000/svg" viewBox="0 0 112.05 191.16"><defs><style>.cls-1{fill:#2f5f8f;}.cls-2{fill:#0c1014;}.cls-3{fill:#fbbd1f;}.cls-4{fill:none;stroke:#0c1014;stroke-linejoin:bevel;stroke-width:8px;}</style></defs><title>右尾板</title><g id="图层_2" data-name="图层 2"><g id="图层_2-2" data-name="图层 2"><path class="cls-1" d="M7.77,150.25l-3-6.08C18.54,97.79,25.47,51.82,25.37,7.53l8.3-3.77L80.9,45.16,82.52,48l24.62,132.92-6.74,5.57Zm24.35-17.83a1.75,1.75,0,1,0,1.74,1.75A1.75,1.75,0,0,0,32.12,132.42ZM47.53,46.69a1.75,1.75,0,1,0,1.74,1.75A1.75,1.75,0,0,0,47.53,46.69Z"/><path class="cls-2" d="M30.37,7.52,77.6,48.92l24.62,132.93L9.59,145.59C24.55,95.13,30.46,49,30.37,7.52M47.53,55.18a6.74,6.74,0,1,0-6.74-6.74,6.73,6.73,0,0,0,6.74,6.74M32.12,140.91a6.75,6.75,0,1,0-6.75-6.74,6.74,6.74,0,0,0,6.75,6.74M37,0,20.37,7.54c.1,43.8-6.76,89.29-20.37,135.21L5.94,154.9l92.64,36.26L112.05,180,87.43,47.1l-3.24-5.7L37,0Z"/><circle class="cls-3" cx="47.53" cy="48.44" r="6.74"/><circle class="cls-3" cx="32.12" cy="134.17" r="6.74"/><circle class="cls-4" cx="47.53" cy="48.44" r="6.74"/><circle class="cls-4" cx="32.12" cy="134.17" r="6.74"/></g></g></svg>