<svg xmlns="http://www.w3.org/2000/svg" viewBox="0 0 232.89 331.61"><defs><style>.cls-1{fill:#c64a39;}.cls-2{fill:#c95119;}.cls-3{fill:#fbbd1f;}.cls-4,.cls-5{fill:none;stroke:#0c1014;stroke-linejoin:bevel;}.cls-4{stroke-width:11.3px;}.cls-5{stroke-width:7.53px;}</style></defs><title>尾焰</title><g id="图层_2" data-name="图层 2"><g id="图层_2-2" data-name="图层 2"><path class="cls-1" d="M201.66,97.24l5.58,106.6-44.69-39.27L116.45,330.1,70.35,164.57,25.66,203.84l5.58-106.6L4.7,88.83,61.87,3.14a123.62,123.62,0,0,0,17.34,4.2L56.38,66.1l18.17,60.34,18.15-2.52,23.75,89.26,23.74-89.26,18.16,2.52L176.51,66.1,153.68,7.34A123.62,123.62,0,0,0,171,3.14l57.17,85.69Z"/><path class="cls-2" d="M176.51,66.1l-18.16,60.34-18.16-2.52-23.74,89.26L92.7,123.92l-18.15,2.52L56.38,66.1,79.21,7.34a193.39,193.39,0,0,0,24.28,2.52L96.89,66.1l19.56,60.34L136,66.1l-6.6-56.24a193.42,193.42,0,0,0,24.27-2.52Z"/><path class="cls-3" d="M136,66.1l-19.56,60.34L96.89,66.1l6.6-56.24c3.91.19,8.05.29,12.45.29h1q6.6,0,12.46-.29Z"/><polyline class="cls-4" points="171.02 3.14 228.19 88.82 201.65 97.24 207.24 203.85 162.54 164.57 116.45 330.1 70.35 164.57 25.65 203.85 31.24 97.24 4.7 88.82 61.87 3.14"/><polyline class="cls-5" points="153.68 7.33 176.51 66.1 158.35 126.44 140.19 123.92 116.45 213.18 92.7 123.92 74.54 126.44 56.38 66.1 79.21 7.33"/><polyline class="cls-5" points="129.41 9.87 136 66.1 116.45 126.44 96.89 66.1 103.48 9.87"/></g></g></svg>