<svg xmlns="http://www.w3.org/2000/svg" viewBox="0 0 114.15 200.78"><defs><style>.cls-1{fill:#2f5f8f;}.cls-2{fill:#0c1014;}.cls-3{fill:#fbbd1f;}.cls-4{fill:none;stroke:#0c1014;stroke-linejoin:bevel;stroke-width:8px;}</style></defs><title>左尾板</title><g id="图层_2" data-name="图层 2"><g id="图层_2-2" data-name="图层 2"><path class="cls-1" d="M25.67,194,4.94,60.37l.59-3.22L36.41,2.46l9.07.81C60,45.1,81.78,86.19,110.09,125.42l-.79,6.71L33.87,197ZM81,123.27a1.65,1.65,0,0,0-.58.1,1.74,1.74,0,0,0,.57,3.39,1.91,1.91,0,0,0,.58-.1,1.74,1.74,0,0,0-.57-3.39ZM38.1,47.46a1.85,1.85,0,0,0-.57.1A1.74,1.74,0,0,0,38.1,51a1.69,1.69,0,0,0,.58-.1,1.73,1.73,0,0,0,1-.89,1.74,1.74,0,0,0-1.57-2.5Z"/><path class="cls-2" d="M40.76,4.92C54.4,44.11,75.23,85.67,106,128.34L30.61,193.19,9.88,59.61,40.76,4.92M38.1,56a6.75,6.75,0,1,0-6.36-4.51A6.7,6.7,0,0,0,38.1,56M81,131.76a6.75,6.75,0,1,0,0-13.49,6.66,6.66,0,0,0-2.23.38A6.74,6.74,0,0,0,81,131.76M32.05,0,1.17,54.69,0,61.14,20.72,194.73l16.41,6.05,75.43-64.85,1.59-13.44C86.12,83.66,64.6,43,50.2,1.63L32.05,0Z"/><circle class="cls-3" cx="38.1" cy="49.21" r="6.74"/><circle class="cls-3" cx="81" cy="125.01" r="6.74"/><circle class="cls-4" cx="38.1" cy="49.21" r="6.74"/><circle class="cls-4" cx="81" cy="125.01" r="6.74"/></g></g></svg>