<svg xmlns="http://www.w3.org/2000/svg" viewBox="0 0 330.36 75"><defs><style>.cls-1{fill:#329af9;}.cls-2{fill:#f9f9f9;}.cls-3{fill:#313b45;}.cls-4{fill:#fbbd1f;}</style></defs><title>我能影响</title><g id="图层_2" data-name="图层 2"><g id="图层_2-2" data-name="图层 2"><rect class="cls-1" x="3" y="3" width="327.36" height="72"/><rect class="cls-2" x="2" y="2" width="323.36" height="68"/><path class="cls-3" d="M323.36,4V68H4V4H323.36m4-4H0V72H327.36V0Z"/><path d="M155.08,29.08v-9h3v9h9v3h-9v9h-3v-9h-12v6h6v3h-6v12h-6v-3h3v-6h-6v-3h6v-9h-6v-3h6v-3h-6v-3h9v6Zm-12-9h6v3h-6Zm9,30h3v3h-3Zm3-3h3v3h-3Zm3-6h3v6h-3Zm3-21h3v3h-3Zm0,15h3v6h-3Zm0,12h3v-3h3v9h-3v-3h-3Zm3-24h3v3h-3Z"/><path d="M180.88,29.08h-9v-6h3v3h6Zm-9,3h15v21h-6v-3h3v-3h-9v6h-3Zm3-12h3v3h-3Zm9,18v-3h-9v3Zm-9,3v3h9v-3Zm6-18h3v3h-3Zm3,3h3v3h-3Zm6-6h3v3h9v3h-9v6h-3Zm12,21v3h-9v6h-3v-12h3v3Zm3-9v3h-12v-3Zm-3,15h3v6h-12v-3h9Z"/><path d="M221.68,47.08v6h-6v-3h3v-3h-3v3h-3v-9h-3v-3h9v-3h-6v-15h15v15h-6v3h9v3h-3v9h-3v-3Zm-12,3h3v3h-3Zm15-24v-3h-9v3Zm-9,3v3h9v-3Zm9,15v-3h-9v3Zm3,6h3v3h-3Zm6-24h3v3h-3Zm0,12h3v3h-3Zm0,12h3v3h-3Zm3-27h3v3h-3Zm0,12h3v3h-3Zm0,12h3v3h-3Zm3-27h3v3h-3Zm0,12h3v3h-3Zm0,12h3v3h-3Z"/><path d="M247.48,23.08h9v24h-9Zm3,21h3v-18h-3Zm27-15h-15v24h-3v-27h6v-3h3v3h12v27h-6v-3h3Zm-3,18h-9v-15h9Zm-6-27h3v3h-3Zm3,15h-3v9h3Z"/><path class="cls-1" d="M84.32,58H65L54.68,47.64V28.36L65,18H84.32L94.68,28.36V47.64Z"/><polygon class="cls-4" points="63.87 54 54.68 44.81 54.68 27.19 63.87 18 81.49 18 90.68 27.19 90.68 44.81 81.49 54 63.87 54"/><path class="cls-3" d="M80.66,20l4.15,4.15L88.68,28V44l-3.87,3.87L80.66,52h-16l-4.15-4.15L56.68,44V28l3.87-3.87L64.7,20h16m1.66-4H63c-4,4.05-6.31,6.32-10.36,10.36V45.64L63,56H82.32c4-4,6.31-6.32,10.36-10.36V26.36c-4.05-4-6.32-6.31-10.36-10.36Z"/></g></g></svg>