<svg xmlns="http://www.w3.org/2000/svg" viewBox="0 0 145.76 141.91"><defs><style>.cls-1{fill:#c64a39;}.cls-2{fill:#0c1014;}</style></defs><title>火箭头</title><g id="图层_2" data-name="图层 2"><g id="图层_2-2" data-name="图层 2"><path class="cls-1" d="M141.65,98.3s-18,22.24-64.23,33.58S5,131.81,5,131.81C14.91,53.48,45.31,5.37,45.31,5.37l2.08-.51S96.6,33.46,141.65,98.3Z"/><path class="cls-2" d="M38.15,141.91C16,141.91,3.72,136.72,3,136.39l-3-5.21C10,52.65,39.82,4.7,41.09,2.69l3-2.18L46.2,0l3.7.53C52,1.72,100.59,30.44,145.76,95.45l-.22,6c-.78,1-19.58,23.69-66.93,35.29A169.65,169.65,0,0,1,38.15,141.91ZM10.46,128.39c8.35,2.42,31.33,7.07,65.77-1.37s52.67-23.19,59-29.21c-37-52-76.5-79.73-87.4-86.8C41.41,22.32,19.18,65.18,10.46,128.39Z"/></g></g></svg>