<svg xmlns="http://www.w3.org/2000/svg" viewBox="0 0 78.14 78.14"><defs><style>.cls-1{fill:#f9e7cd;}.cls-2{fill:#0c1014;}.cls-3{fill:#2f5f8f;}</style></defs><title>米色齿轮</title><g id="图层_2" data-name="图层 2"><g id="图层_2-2" data-name="图层 2"><path class="cls-1" d="M60.81,66.92l-7.14-3.28-6.88,2.94L44.25,74l-9.5.12L32,66.77l-7-2.78-7,3.46-6.8-6.64,3.28-7.14-2.95-6.88L4.12,44.25,4,34.75,11.37,32l2.78-7-3.46-7,6.64-6.8,7.13,3.28,6.89-2.95,2.54-7.43L43.39,4l2.72,7.37,7,2.78,7.06-3.46,6.8,6.64-3.28,7.13,2.94,6.89L74,33.89l.12,9.5-7.37,2.72-2.78,7,3.46,7.06Z"/><path class="cls-2" d="M34.8,78.14,31,75.52l-2.11-5.7-3.65-1.46L19.78,71l-4.56-.73-6.8-6.64-.84-4.53,2.55-5.53L8.58,50,2.82,48,.12,44.3,0,34.8,2.61,31l5.71-2.11,1.46-3.65L7.1,19.78l.73-4.56,6.63-6.8L19,7.58l5.52,2.54,3.62-1.54,2-5.76L33.84.12,43.34,0l3.8,2.61,2.11,5.71L52.9,9.78,58.36,7.1l4.55.73,6.8,6.63L70.55,19,68,24.52l1.55,3.62,5.75,2L78,33.84l.12,9.5-2.62,3.8-5.7,2.11L68.36,52.9,71,58.36l-.73,4.55-6.64,6.8-4.53.84L53.61,68,50,69.56l-2,5.75L44.3,78ZM26.56,60.27l7,2.78,2.27,2.33,1.74,4.72,3.86,0L43,65.29l2.2-2.38L52.1,60l3.24,0,4.58,2.11,2.69-2.76L60.4,54.83l-.13-3.25,2.78-6.95,2.33-2.27,4.72-1.74,0-3.86-4.77-1.63-2.38-2.21L60,26l0-3.25,2.11-4.57-2.76-2.7-4.52,2.22-3.25.12-6.95-2.78-2.27-2.32L40.62,8l-3.86.05-1.63,4.77-2.21,2.38L26,18.18l-3.25-.05L18.22,16l-2.7,2.76,2.22,4.52.12,3.25-2.78,7-2.32,2.27L8,37.52l.05,3.86L12.85,43l2.38,2.2,2.95,6.89-.05,3.25L16,59.92l2.76,2.69,4.52-2.21Z"/><circle class="cls-3" cx="39.07" cy="39.07" r="10"/><path class="cls-2" d="M39.07,53.07a14,14,0,1,1,14-14A14,14,0,0,1,39.07,53.07Zm0-20a6,6,0,1,0,6,6A6,6,0,0,0,39.07,33.07Z"/></g></g></svg>