<svg xmlns="http://www.w3.org/2000/svg" viewBox="0 0 80.22 80.22"><defs><style>.cls-1{fill:#e34123;}.cls-2{fill:#0c1014;}.cls-3{fill:#313b45;}</style></defs><title>红色齿轮</title><g id="图层_2" data-name="图层 2"><g id="图层_2-2" data-name="图层 2"><path class="cls-1" d="M61.85,68l-7.14-3.28-6.88,2.95-2.54,7.43-9.5.12-2.72-7.37-7-2.78-7,3.46-6.8-6.64,3.28-7.13-2.95-6.89L5.16,45.29,5,35.79l7.37-2.72,2.78-6.95-3.46-7.06,6.64-6.8,7.14,3.28,6.88-2.94,2.54-7.44L44.43,5l2.73,7.37,7,2.78,7-3.46L68,18.37l-3.28,7.14,2.95,6.88,7.43,2.54.12,9.5-7.37,2.73-2.78,7,3.46,7Z"/><path class="cls-2" d="M32.32,80.22l-3.17-8.59L26.32,70.5l-8.23,4L6.24,63l3.83-8.33-1.2-2.79-8.67-3L0,32.32l8.59-3.17,1.13-2.83-4-8.23L17.25,6.24l8.33,3.83,2.8-1.19,3-8.68L47.9,0l3.18,8.6L53.9,9.73l8.23-4L74,17.26l-3.83,8.32,1.2,2.8,8.67,3,.2,16.56-8.59,3.18L70.5,53.9l4,8.23L63,74l-8.33-3.83-2.79,1.2-3,8.67ZM25.91,59.56,37,64l2.27,6.15,2.44,0,2.12-6.2,11-4.7,6,2.74,1.71-1.75-2.89-5.89L64,43.24,70.14,41l0-2.45-6.2-2.12-4.7-11,2.74-6-1.75-1.7-5.89,2.88L43.24,16.23,41,10.09l-2.44,0L36.4,16.31,25.43,21l-5.95-2.74L17.77,20l2.89,5.88L16.23,37l-6.15,2.27,0,2.44,6.2,2.12,4.71,11-2.75,6L20,62.45Z"/><circle class="cls-3" cx="40.11" cy="40.11" r="10"/><path class="cls-2" d="M40.11,52.11a12,12,0,1,1,12-12A12,12,0,0,1,40.11,52.11Zm0-20a8,8,0,1,0,8,8A8,8,0,0,0,40.11,32.11Z"/></g></g></svg>