<svg xmlns="http://www.w3.org/2000/svg" viewBox="0 0 606.43 784.7"><defs><style>.cls-1{fill:#c64a39;}.cls-2{fill:#0c1014;}</style></defs><title>红色爆炸</title><g id="图层_2" data-name="图层 2"><g id="图层_2-2" data-name="图层 2"><polygon class="cls-1" points="232.69 203.53 75.69 109.53 131.69 351.53 2.69 430.61 152.69 526.53 160.8 780.53 365.69 644.53 551.34 709.4 473.86 476.5 603.69 391.6 461.3 339.98 461.3 95.61 365.69 241.53 288.54 1.53 232.69 203.53"/><path class="cls-2" d="M163.56,784.7l-7.76-4-8-251.37L0,434.82l.08-8.47L126,349.15,70.82,110.66l7.44-5.42,151.37,90.63L283.72.2l9.57-.2,74,230L457.11,92.87l9.19,2.74V336.47L605.4,386.9l1,8.89L479.82,478.58l76.27,229.24-6.4,6.3-183.3-64ZM12.11,430.7l143.28,91.62,2.3,4,7.82,245,197.42-131,4.41-.55,176.05,61.51L469.12,478.08l2-5.76,121.46-79.43-133-48.21L456.3,340V112.36L369.88,244.27l-8.95-1.21L288.9,19,237.51,204.86l-7.38,3-146.91-88L136.56,350.4l-2.25,5.39Z"/></g></g></svg>