<svg xmlns="http://www.w3.org/2000/svg" viewBox="0 0 447.74 658.78"><defs><style>.cls-1,.cls-10{fill:#2f5f8f;}.cls-2{fill:#0c1014;}.cls-3,.cls-4{fill:#f9e7cd;}.cls-10,.cls-11,.cls-13,.cls-3,.cls-4,.cls-7,.cls-8,.cls-9{stroke:#0c1014;}.cls-11,.cls-13,.cls-3,.cls-7,.cls-9{stroke-linejoin:bevel;}.cls-10,.cls-11,.cls-3,.cls-4,.cls-7,.cls-8{stroke-width:10px;}.cls-4{stroke-linejoin:round;}.cls-11,.cls-5{fill:#c64a39;}.cls-6{fill:#fcc020;}.cls-13,.cls-7{fill:none;}.cls-8{fill:#e34123;}.cls-10,.cls-8{stroke-miterlimit:10;}.cls-9{fill:#313b45;stroke-width:4px;}.cls-12{fill:#fbbd1f;}.cls-13{stroke-width:8px;}</style></defs><title>组件堆</title><g id="图层_2" data-name="图层 2"><g id="图层_2-2" data-name="图层 2"><path class="cls-1" d="M347.26,255.87a31.77,31.77,0,0,1-8.84-1l-2.34-1.55c-4.13-4.87-8.13-9.83-11.9-14.73l3.55-8c10.53-.86,28.55-4.21,54.58-15.28l1-.42c26-11.07,40.93-21.72,48.86-28.71l8.25,3c.92,6.12,1.71,12.45,2.36,18.8l-.51,2.76c-.24.47-2.52,4.76-9.54,10.91a101.11,101.11,0,0,1-11.55,8.6,157.17,157.17,0,0,1-16.9,9.36c-2.8,1.35-5.8,2.71-8.91,4l-.71.3c-3.1,1.32-6.16,2.54-9.09,3.62a154.17,154.17,0,0,1-18.46,5.68,99.42,99.42,0,0,1-14.2,2.35C350.94,255.79,349,255.87,347.26,255.87Z"/><path class="cls-2" d="M435.47,190q1.35,9.08,2.32,18.57s-1.87,3.71-8.36,9.39a93.75,93.75,0,0,1-11,8.16,147.53,147.53,0,0,1-16.36,9.06q-4.05,2-8.69,3.94l-.71.3q-4.67,2-8.87,3.53A148.16,148.16,0,0,1,366,248.4a95.58,95.58,0,0,1-13.48,2.24c-2,.17-3.71.23-5.21.23a27.61,27.61,0,0,1-7.36-.73q-6.18-7.29-11.76-14.55c11.92-1,30.33-4.69,56.12-15.66l1-.42c25.79-11,41.24-21.65,50.21-29.56m-6.61-7.5c-7.65,6.75-22.11,17.05-47.52,27.86l-1,.42c-25.41,10.8-42.86,14.06-53,14.89l-7.12,16.06c3.82,5,7.87,10,12.06,14.93l4.67,3.09a36.8,36.8,0,0,0,10.32,1.17c1.92,0,4-.09,6.06-.27a103.42,103.42,0,0,0,14.92-2.47,157.13,157.13,0,0,0,19.08-5.86c3-1.1,6.12-2.35,9.29-3.69l.71-.31c3.17-1.34,6.24-2.74,9.14-4.13a161.85,161.85,0,0,0,17.42-9.66,107.14,107.14,0,0,0,12.13-9C443.4,219,446.08,214.3,446.72,213l1-5.51c-.65-6.44-1.45-12.84-2.38-19l-16.5-6Z"/><path class="cls-3" d="M239.84,5.13c-38.28,24.33-79.62,59.22-116.73,109.06h0c-27.13,36.44-52,80.85-71.72,135-.89,2.45-1.78,4.92-2.65,7.41,0,0,1.43,6.07,8.86,16.62s21.24,26,45.89,44.3l1,.7c24.66,18.27,43.31,26.93,55.74,31,12.25,4,18.48,3.63,18.48,3.63q3.19-2.34,6.31-4.69c46.06-34.64,81.31-71.34,108.29-107.9h0c36.89-50,58.23-99.7,70.37-143.4"/><path class="cls-3" d="M363.63,96.87s-31.3.4-73.19-30.64-50.6-61.1-50.6-61.1"/><path class="cls-4" d="M363.74,96.76S355,66.69,313.11,35.64,239.91,5,239.91,5l-.09.12s8.72,30.06,50.62,61.11,73.21,30.65,73.21,30.65Z"/><path class="cls-5" d="M258.11,109.86c-22.69-16.81-54.69-18.69-54.69-18.69l-34.13,46.06,6.59,4.89-22,29.65-6.59-4.88-33,44.54s11.11,30.07,33.8,46.88S202.79,277,202.79,277l89.12-120.26S280.8,126.68,258.11,109.86ZM193.84,255.63c-9.42-1.57-23.93-5.33-34.17-12.92s-18.07-20.37-22.31-28.94l75-101.23c9.41,1.57,23.93,5.33,34.17,12.92s18.06,20.38,22.3,28.94Z"/><line x1="293.26" y1="240.27" x2="293.25" y2="240.27"/><path class="cls-1" d="M268.85,154.4l-75,101.23c-9.42-1.57-23.93-5.33-34.17-12.92s-18.07-20.37-22.31-28.94l75-101.23c9.41,1.57,23.93,5.33,34.17,12.92S264.61,145.84,268.85,154.4Z"/><rect class="cls-6" x="139.84" y="143.86" width="36.91" height="16.41" transform="translate(-58.12 188.71) rotate(-53.46)"/><path class="cls-7" d="M147.31,166.89l-33,44.54s11.11,30.07,33.8,46.88S202.79,277,202.79,277l44.56-60.13,44.56-60.13s-11.11-30.07-33.8-46.89-54.69-18.69-54.69-18.69l-34.14,46.06"/><path class="cls-7" d="M159.67,242.71c-10.24-7.59-18.06-20.37-22.31-28.94l75-101.23c9.42,1.57,23.93,5.33,34.18,12.93s18.06,20.36,22.31,28.93l-75,101.23C184.43,254.06,169.91,250.3,159.67,242.71Z"/><rect class="cls-7" x="150.09" y="133.6" width="16.4" height="36.91" transform="translate(121.65 -64.36) rotate(36.54)"/><rect class="cls-3" x="158.98" y="170.46" width="92.46" height="21.58" transform="translate(-68.26 194.38) rotate(-44.2)"/><path class="cls-8" d="M340.17,340.17,333,336.88l-6.88,2.95-2.54,7.44-9.5.11L311.38,340l-6.95-2.78-7.05,3.46-6.81-6.63,3.29-7.14L290.91,320l-7.43-2.54-.12-9.51,7.37-2.72,2.78-6.95-3.46-7.06,6.64-6.8,7.13,3.29,6.88-2.95,2.55-7.44,9.5-.11,2.72,7.37,6.95,2.78,7.06-3.46,6.8,6.63L343,297.71l2.95,6.88,7.44,2.54.12,9.51-7.37,2.72-2.78,6.95,3.46,7.06Z"/><circle class="cls-9" cx="318.43" cy="312.32" r="10"/><path class="cls-10" d="M90.16,114.07l-10.26-1-7.23,6.63.08,10.31-11.7,4.27-6.57-7.94L44.67,126l-7.23,7.34L26.15,128l1-10.25-6.63-7.23-10.3.08L5.91,98.93l7.93-6.57.42-9.8L6.92,75.33,12.18,64l10.25,1,7.24-6.63-.09-10.31,11.71-4.27,6.57,7.94,9.8.42,7.23-7.34,11.3,5.26-1,10.25,6.64,7.24,10.3-.09,4.27,11.71-7.94,6.57-.42,9.8,7.34,7.23Z"/><circle class="cls-9" cx="51.17" cy="89.06" r="13.11"/><path class="cls-11" d="M158.23,381.82s-6.55,27.84-43.3,58.12-65.32,31.38-65.32,31.38c-25-74.88-18.51-131.43-18.51-131.43l1.65-1.36S89.5,343,158.23,381.82Z"/><path class="cls-1" d="M243.29,505l-3-6.08C254.06,452.57,261,406.6,260.9,362.31l8.29-3.77,47.23,41.4,1.62,2.85,24.62,132.92-6.74,5.57Zm24.35-17.83a1.75,1.75,0,1,0,1.74,1.75A1.74,1.74,0,0,0,267.64,487.2Zm15.41-85.72a1.74,1.74,0,1,0,1.75,1.74A1.74,1.74,0,0,0,283.05,401.48Z"/><path class="cls-2" d="M265.9,362.3l47.22,41.4,24.62,132.93-92.63-36.26c15-50.46,20.87-96.57,20.79-138.07M283.05,410a6.74,6.74,0,1,0-6.74-6.74,6.74,6.74,0,0,0,6.74,6.74m-15.41,85.73A6.75,6.75,0,1,0,260.9,489a6.74,6.74,0,0,0,6.74,6.74m4.85-140.91-16.59,7.54c.09,43.8-6.77,89.29-20.38,135.21l5.95,12.15,92.63,36.26,13.48-11.14L323,401.88l-3.24-5.7-47.23-41.4Z"/><circle class="cls-12" cx="283.05" cy="403.22" r="6.74"/><circle class="cls-12" cx="267.64" cy="488.95" r="6.74"/><circle class="cls-13" cx="283.05" cy="403.22" r="6.74"/><circle class="cls-13" cx="267.64" cy="488.95" r="6.74"/><path class="cls-1" d="M150.55,652,129.83,518.38l.59-3.23,30.87-54.68,9.08.81c14.56,41.83,36.3,82.92,64.61,122.14l-.8,6.72L158.75,655Zm55.33-70.69a1.63,1.63,0,0,0-.57.1,1.74,1.74,0,0,0-1.07,2.22,1.76,1.76,0,0,0,1.64,1.17,1.91,1.91,0,0,0,.58-.1,1.79,1.79,0,0,0,1-.89,1.75,1.75,0,0,0-1.58-2.5ZM163,505.47a1.69,1.69,0,0,0-.58.1A1.75,1.75,0,0,0,163,509a2,2,0,0,0,.58-.1,1.76,1.76,0,0,0,1-.89,1.71,1.71,0,0,0,.07-1.33A1.74,1.74,0,0,0,163,505.47Z"/><path class="cls-2" d="M165.65,462.92c13.64,39.19,34.47,80.75,65.28,123.43L155.49,651.2,134.77,517.61l30.88-54.69M163,514a6.75,6.75,0,1,0-6.36-4.52A6.7,6.7,0,0,0,163,514m42.89,75.81a6.75,6.75,0,1,0,0-13.49,6.6,6.6,0,0,0-2.22.38,6.74,6.74,0,0,0,2.22,13.11M156.94,458,126.06,512.7l-1.17,6.45,20.72,133.58,16.4,6,75.43-64.85L239,580.5c-28-38.83-49.54-79.5-63.94-120.86L156.94,458Z"/><circle class="cls-12" cx="162.99" cy="507.21" r="6.74"/><circle class="cls-12" cx="205.89" cy="583.02" r="6.74"/><circle class="cls-13" cx="162.99" cy="507.21" r="6.74"/><circle class="cls-13" cx="205.88" cy="583.02" r="6.74"/></g></g></svg>