<svg xmlns="http://www.w3.org/2000/svg" viewBox="0 0 435.69 563"><defs><style>.cls-1{fill:#2f5f8f;}.cls-2{fill:#c64a39;}.cls-3{fill:#f9e7cd;}.cls-4{fill:#fcc020;}.cls-5{fill:#fbbd1f;}.cls-6{fill:#0c1014;}</style></defs><title>组装完成火箭</title><g id="图层_2" data-name="图层 2"><g id="图层_2-2" data-name="图层 2"><path class="cls-1" d="M95.67,329.28,36,381.58,4.92,549.48l117-45.79C103,439.94,95.56,381.7,95.67,329.28Zm-21.4,60.2A8.52,8.52,0,1,1,82.79,381,8.51,8.51,0,0,1,74.27,389.48ZM93.74,497.77a8.52,8.52,0,1,1,8.51-8.51A8.51,8.51,0,0,1,93.74,497.77Z"/><line x1="95.68" y1="329.27" x2="95.67" y2="329.27"/><path class="cls-2" d="M306.74,148s-28.74,21.88-88.9,21.88S129,148,129,148C164.72,54.89,216.49,5,216.49,5h2.7S271,54.89,306.74,148Z"/><path class="cls-3" d="M306.74,148s-28.74,21.88-88.9,21.88S129,148,129,148c-18.77,48.85-33.13,109.59-33.29,181.28h0c-.11,52.42,7.36,110.66,26.26,174.41q1.27,4.32,2.63,8.68s5.5,4.65,19.62,9.32c14.34,4.76,37.57,9.54,73,9.54h1.36c35.41,0,58.65-4.78,73-9.54,14.13-4.67,19.63-9.32,19.63-9.32q1.35-4.37,2.63-8.68c18.89-63.75,26.36-122,26.25-174.41h0C339.86,257.58,325.5,196.84,306.74,148ZM281.38,425.46s-30.95,20.25-63.54,20.25-63.53-20.25-63.53-20.25v-64h-9.47V318.91h9.47V252.76s30.95-20.23,63.53-20.23,63.54,20.23,63.54,20.23Z"/><path class="cls-2" d="M217.84,232.53c-32.58,0-63.53,20.23-63.53,20.23v66.15h9.46V361.5h-9.46v64s30.95,20.25,63.53,20.25,63.54-20.25,63.54-20.25V252.76S250.43,232.53,217.84,232.53ZM258.4,411.8c-9.81,5-25.85,11.5-40.56,11.5s-30.73-6.48-40.55-11.5V266.42c9.81-5,25.84-11.49,40.55-11.49s30.74,6.48,40.56,11.51Z"/><path class="cls-1" d="M291.5,521.69q-2.89,11.2-6.47,22.73s-4,3.4-14.37,6.79a118.46,118.46,0,0,1-16.78,4.06,186.12,186.12,0,0,1-23.49,2.45c-3.79.18-7.8.28-12.06.28h-1q-6.39,0-12.06-.28a186.3,186.3,0,0,1-23.5-2.45A118.8,118.8,0,0,1,165,551.21c-10.35-3.39-14.36-6.79-14.36-6.79q-3.58-11.53-6.48-22.73c14.34,4.76,37.57,9.54,73,9.54h1.36C253.93,531.23,277.17,526.45,291.5,521.69Z"/><path class="cls-1" d="M399.67,381.58,340,329.28c.11,52.42-7.36,110.66-26.25,174.41l117,45.79ZM342.22,497.77a8.52,8.52,0,1,1,8.51-8.51A8.52,8.52,0,0,1,342.22,497.77Zm19.46-108.29A8.52,8.52,0,1,1,370.2,381,8.51,8.51,0,0,1,361.68,389.48Z"/><line x1="340.01" y1="329.27" x2="340" y2="329.27"/><path class="cls-1" d="M258.4,266.44V411.8c-9.81,5-25.85,11.5-40.56,11.5s-30.73-6.48-40.55-11.5V266.42c9.81-5,25.84-11.49,40.55-11.49S248.58,261.41,258.4,266.44Z"/><rect class="cls-4" x="144.84" y="318.91" width="18.93" height="42.59"/><circle class="cls-5" cx="74.27" cy="380.97" r="8.52"/><circle class="cls-5" cx="93.74" cy="489.26" r="8.52"/><circle class="cls-5" cx="361.68" cy="380.97" r="8.52"/><circle class="cls-5" cx="342.22" cy="489.26" r="8.52"/><polygon class="cls-6" points="6.74 554.14 0 548.57 31.09 380.67 32.72 377.81 92.38 325.51 98.98 333.03 40.61 384.19 11.47 541.55 120.11 499.03 123.75 508.35 6.74 554.14"/><path class="cls-6" d="M218.52,536.23h-1.35c-71.31,0-94.87-19.22-95.84-20l-1.54-2.34c-23-74.12-32.44-147.16-28.06-217.09a506.59,506.59,0,0,1,36.65-160.88C163.86,49.36,211,3.32,213,1.4L216.49,0h2.7l3.47,1.4c2,1.92,49.16,48,84.64,134.48A506.6,506.6,0,0,1,344,296.76c4.38,69.93-5.06,143-28.06,217.09l-1.55,2.34C313.38,517,289.83,536.23,218.52,536.23ZM128.84,509.3c5.1,3.35,29.4,16.93,88.33,16.93h1.35c58.84,0,83.16-13.54,88.32-16.94,50.5-164.13,23.24-291.29-8.6-369.16-30.47-74.5-70.78-119.32-80.4-129.37-9.61,10-49.93,54.87-80.39,129.37C105.61,218,78.35,345.16,128.84,509.3Z"/><path class="cls-6" d="M218.33,563h-1c-51.87,0-69.22-14.16-69.93-14.76l-1.55-2.34c-2.37-7.64-4.57-15.36-6.53-22.95l9.68-2.51c1.78,6.9,3.77,13.91,5.9,20.87,4.21,2.62,21.66,11.69,62.43,11.69h1c40.77,0,58.22-9.06,62.42-11.69,2.14-6.95,4.12-14,5.91-20.87l9.68,2.51c-2,7.59-4.17,15.31-6.54,22.95l-1.54,2.34C287.54,548.84,270.2,563,218.33,563Z"/><polygon class="cls-6" points="428.95 554.14 311.93 508.35 315.57 499.03 424.21 541.55 395.07 384.19 336.71 333.03 343.3 325.51 402.97 377.81 404.59 380.67 435.69 548.57 428.95 554.14"/><path class="cls-6" d="M217.84,449.7c-33.39,0-64.42-20-65.73-20.89l-1.81-3.35v-64h8v61.73c7,4.15,32.93,18.47,59.54,18.47s52.58-14.32,59.54-18.47V255c-7-4.15-32.92-18.47-59.54-18.47S165.27,250.85,158.3,255v63.91h-8V252.77l1.81-3.35c1.31-.86,32.34-20.89,65.73-20.89s64.43,20,65.73,20.89l1.81,3.35V425.46l-1.81,3.35C282.27,429.67,251.24,449.7,217.84,449.7Z"/><path class="cls-6" d="M217.84,427.3c-16.56,0-33.66-7.48-42.38-11.94l-2.17-3.56V266.43l2.17-3.56c8.72-4.46,25.82-11.94,42.38-11.94s33.67,7.48,42.38,11.94l2.18,3.56V411.8l-2.18,3.56C251.5,419.82,234.41,427.3,217.84,427.3Zm-36.55-18c7.57,3.67,22.61,10,36.55,10s29-6.3,36.56-10V268.91c-7.58-3.67-22.61-10-36.56-10s-29,6.3-36.55,10Z"/><path class="cls-6" d="M217.84,173.87c-60.81,0-90.09-21.77-91.31-22.7l4.84-6.37c.28.21,28.61,21.07,86.47,21.07S304,145,304.31,144.8l4.84,6.37C307.94,152.1,278.65,173.87,217.84,173.87Z"/><path class="cls-6" d="M163.77,365.5H144.84l-4-4V318.91l4-4h18.93l4,4V361.5Zm-14.93-8h10.93V322.91H148.84Z"/><path class="cls-6" d="M74.27,393.48A12.52,12.52,0,1,1,86.79,381,12.53,12.53,0,0,1,74.27,393.48Zm0-17A4.52,4.52,0,1,0,78.79,381,4.53,4.53,0,0,0,74.27,376.45Z"/><path class="cls-6" d="M93.74,501.77a12.52,12.52,0,1,1,12.51-12.51A12.52,12.52,0,0,1,93.74,501.77Zm0-17a4.52,4.52,0,1,0,4.51,4.52A4.52,4.52,0,0,0,93.74,484.74Z"/><path class="cls-6" d="M361.69,393.48A12.52,12.52,0,1,1,374.2,381,12.52,12.52,0,0,1,361.69,393.48Zm0-17A4.52,4.52,0,1,0,366.2,381,4.53,4.53,0,0,0,361.69,376.45Z"/><path class="cls-6" d="M342.22,501.77a12.52,12.52,0,1,1,12.52-12.51A12.53,12.53,0,0,1,342.22,501.77Zm0-17a4.52,4.52,0,1,0,4.52,4.52A4.52,4.52,0,0,0,342.22,484.74Z"/><rect class="cls-3" x="168.47" y="329.11" width="98.74" height="23.04" transform="translate(-153.4 500.82) rotate(-80.74)"/><path class="cls-6" d="M220.62,395.16l-22.73-3.71-3.31-4.59,15.89-97.45,4.59-3.31,22.74,3.71,3.3,4.59-15.88,97.45Zm-17.5-11L218,386.62l14.6-89.56-14.84-2.42Z"/></g></g></svg>