<svg xmlns="http://www.w3.org/2000/svg" viewBox="0 0 243.56 364.26"><defs><style>.cls-1{fill:#f9e7cd;}.cls-2{fill:#0c1014;}.cls-3{fill:#c64a39;}.cls-4{fill:#2f5f8f;}.cls-5{fill:#fcc020;}</style></defs><title>舱体</title><g id="图层_2" data-name="图层 2"><g id="图层_2-2" data-name="图层 2"><path class="cls-1" d="M85.76,10.63C59.77,47.81,35,95.91,19.92,156.18h0C8.88,200.26,3,250.81,5.6,308.38q.18,3.9.4,7.86s3.65,5.05,14.56,11.93c11.07,7,29.62,15.87,59.4,23.26l1.15.28c29.78,7.4,50.33,8.22,63.38,7.21,12.86-1,18.45-3.74,18.45-3.74q2.06-3.39,4-6.76c29.2-49.68,47.64-97.11,58.49-141.23h0c14.83-60.34,15.43-114.43,9.85-159.44"/><path class="cls-2" d="M164.38,360c-2.1.88-8.27,3-19.51,3.9-12.3.95-33.56.45-65-7.34l-1.14-.29C47.35,348.49,28.32,339,17.89,332.4,6.5,325.21,2.38,319.76,2,319.16L1,316.52q-.24-4-.4-7.92C-1.82,254.68,3.05,203,15.07,155v0C28.53,101.25,50.93,51.73,81.67,7.77l8.19,5.73c-30,43-51.93,91.37-65.09,143.89v0C13,204.49,8.21,255.2,10.6,308.16c.08,2,.19,4.07.3,6.11a62.54,62.54,0,0,0,12.33,9.67c9.81,6.21,27.83,15.17,57.94,22.64l1.14.28c30.11,7.47,50.22,8,61.79,7.08a62.75,62.75,0,0,0,15.43-2.79c1.06-1.75,2.1-3.51,3.13-5.26C189.52,300.19,209,253.12,220.6,206v0c12.92-52.56,16.19-105.59,9.74-157.62l9.92-1.23c6.61,53.24,3.26,107.49-10,161.25h0c-11.82,48.07-31.68,96-59,142.56q-2,3.41-4.06,6.82l-2.06,1.89C165.05,359.72,164.79,359.84,164.38,360Z"/><path class="cls-1" d="M235.31,47.74S206.57,60.15,156,47.59s-70.2-37-70.2-37"/><path class="cls-2" d="M237.15,52.39c-2.55,1.06-32,12.56-82.39,0-51.65-12.81-72-37.62-72.89-38.67L89.66,7.5c.18.22,19.43,23.31,67.51,35.24,47.88,11.88,75.67.61,76.17.41h0l3.95,9.18Z"/><path class="cls-1" d="M235.36,47.6s-19.61-24.4-70.23-37-79.35-.15-79.35-.15l0,.14S105.35,35,156,47.59s79.37.16,79.37.16Z"/><path class="cls-2" d="M237.17,52.4c-2.53,1.05-32,12.55-82.41,0C103.1,39.62,82.69,14.81,81.85,13.76a5,5,0,0,1-1-4.34l0-.14A5,5,0,0,1,83.8,5.9C85,5.36,114.69-7,166.34,5.79s72.07,37.63,72.92,38.68a5,5,0,0,1,1,4.33l0,.14a5,5,0,0,1-2.87,3.4Zm-142-39.51c8.72,7.6,28.27,21.47,62,29.85S214.69,48,226,45.35c-8.73-7.61-28.28-21.48-62-29.86S106.41,10.24,95.14,12.89Z"/><path class="cls-3" d="M142.88,100.3c-27.41-6.8-57.67,3.76-57.67,3.76L71.4,159.71l8,2-8.89,35.83-8-2L49.16,249.34S71,272.83,98.39,279.63s57.67-3.77,57.67-3.77l36.05-145.28S170.29,107.1,142.88,100.3Zm-3.3,159.27c-9.3,2.17-24.14,4.28-36.52,1.21s-24.5-11.86-31.71-18.14L101.7,120.35c9.29-2.17,24.13-4.28,36.51-1.21s24.5,11.87,31.71,18.15Z"/><line x1="225.46" y1="207.18" x2="225.45" y2="207.18"/><path class="cls-4" d="M169.92,137.29,139.58,259.57c-9.3,2.17-24.14,4.28-36.52,1.21s-24.5-11.86-31.71-18.14L101.7,120.35c9.29-2.17,24.13-4.28,36.51-1.21S162.71,131,169.92,137.29Z"/><rect class="cls-5" x="48.51" y="169.41" width="36.91" height="16.41" transform="translate(-121.56 199.83) rotate(-76.06)"/><path class="cls-2" d="M157.71,280.58c-1.29.46-32,11-60.53,3.9S46.43,253.74,45.5,252.74l-1.19-4.61,13.35-53.8,9.71,2.4L54.69,247.81c5.69,5.53,23.72,21.71,44.9,27s44.68-.61,52.3-2.84l34.69-139.82c-5.69-5.53-23.72-21.7-44.9-27S97,105.76,89.39,108L76.26,160.91l-9.71-2.41,13.81-55.64,3.2-3.52c1.3-.45,32-11,60.53-3.89s50.75,30.73,51.68,31.74l1.19,4.6-36,145.28Z"/><path class="cls-2" d="M140.72,264.44c-8.4,2-24.61,4.73-38.86,1.19s-27.29-13.56-33.79-19.22l-1.58-5L96.84,119.15l3.71-3.66c8.4-2,24.61-4.73,38.86-1.19s27.29,13.55,33.8,19.22l1.57,5L144.43,260.78ZM77,240.82c5.72,4.68,16.38,12.39,27.32,15.1h0c10.94,2.72,24,.89,31.21-.57L164.32,139.1c-5.72-4.68-16.38-12.38-27.32-15.1s-24-.88-31.21.58Z"/><path class="cls-2" d="M69.27,202.36l-15.92-4-3.65-6.06,8.89-35.82,6.06-3.65,15.92,4,3.65,6.06-8.89,35.82Zm-8.66-12.45,6.22,1.54,6.48-26.12-6.22-1.54Z"/><rect class="cls-1" x="75.26" y="175.74" width="92.46" height="21.58" transform="translate(-97.81 224.73) rotate(-66.8)"/><path class="cls-2" d="M117.79,235.24l-6.57,2.63-19.83-8.5-2.62-6.57,36.42-85,6.56-2.62,19.83,8.5,2.63,6.56ZM99.93,222.15l10.64,4.56,32.48-75.8-10.64-4.56Z"/></g></g></svg>