<svg xmlns="http://www.w3.org/2000/svg" viewBox="0 0 163.03 83"><defs><style>.cls-1{fill:#329af9;}.cls-2{fill:#0c1014;}</style></defs><title>蓝boom</title><g id="图层_2" data-name="图层 2"><g id="图层_2-2" data-name="图层 2"><path class="cls-1" d="M11,79.45,2,32.31,3.55,30l23.57-4.52L29.46,27,30.22,31l3.93-.75,2.34,1.58,2.25,11.79-1.58,2.34-3.93.75.37,2,3.93-.76,2.34,1.59,3.39,17.68L41.67,69.5l-3.93.75.76,3.93-1.59,2.34L13.34,81Zm8.31-9.74,13.75-2.63L30.43,53.33,16.68,56ZM14.8,46.14l13.75-2.63L27,35.65,13.29,38.28Z"/><path class="cls-2" d="M27.5,27.42l1.13,5.89L11,36.7l2.26,11.78,17.68-3.39L32,51,14.34,54.37l3.39,17.68L35.4,68.67l1.13,5.89L13,79.08l-9-47.15L27.5,27.42m7,4.76L36.78,44l-5.89,1.12L28.63,33.31l5.89-1.13m3.39,17.68L41.3,67.54l-5.9,1.13L32,51l5.89-1.13M26.75,23.49,3.18,28,0,32.69,9,79.83,13.71,83l23.58-4.51,3.17-4.69-.37-2,2-.37,3.18-4.69L41.84,49.11l-3.51-2.39,2.38-3.51L38.45,31.43l-4.68-3.18-2,.38-.37-2-4.68-3.17ZM15.63,39.87,25.45,38l.76,3.93L16.38,43.8l-.75-3.93ZM19,57.55l9.82-1.88,1.88,9.82L20.9,67.37,19,57.55Z"/><path class="cls-1" d="M55.78,70.87,55,66.94l-3.93.75-2.34-1.58L42,30.75l1.58-2.34,3.93-.75-.75-3.93,1.59-2.34L66,18l2.34,1.59.75,3.93L73,22.76l2.34,1.59,6.77,35.36-1.58,2.34-3.93.75.75,3.93L75.8,69.07,58.12,72.46Zm2.43-8.61L72,59.63l-6-31.43L52.18,30.83Z"/><path class="cls-2" d="M66.39,20l1.13,5.9L49.84,29.24l-1.13-5.89L66.39,20m7,4.77,6.78,35.35L74.3,61.21,67.52,25.86l5.89-1.13M49.84,29.24,56.62,64.6l-5.89,1.13L44,30.37l5.89-1.13m24.46,32,1.13,5.9L57.75,70.49,56.62,64.6,74.3,61.21M65.64,16,48,19.42,44.79,24.1l.37,2-2,.37L40,31.13,46.8,66.48l4.68,3.18,2-.38.38,2,4.68,3.17L76.18,71l3.17-4.68-.37-2,2-.38,3.18-4.68L77.34,24,72.66,20.8l-2,.37-.38-2L65.64,16ZM54.52,32.42l9.82-1.88L69.61,58l-9.82,1.88-5.27-27.5Z"/><path class="cls-1" d="M94.68,63.42l-.76-3.93L90,60.24l-2.34-1.59L80.88,23.3,82.47,21l3.92-.76-.75-3.93,1.59-2.34,17.68-3.38,2.34,1.58.75,3.93,3.93-.75,2.34,1.59L121,52.25l-1.58,2.35-3.93.75.75,3.93-1.58,2.34L97,65Zm2.42-8.61,13.75-2.64-6-31.43L91.08,23.38Z"/><path class="cls-2" d="M105.28,12.51l1.13,5.89L88.74,21.79,87.61,15.9l17.67-3.39m7,4.76,6.77,35.36-5.89,1.13L106.41,18.4l5.9-1.13M88.74,21.79l6.77,35.36-5.89,1.13L82.84,22.92l5.9-1.13m24.45,32,1.13,5.89L96.64,63l-1.13-5.89,17.68-3.39M104.53,8.58,86.85,12l-3.17,4.68.37,2-2,.37-3.18,4.68L85.69,59l4.68,3.18,2-.38.38,2L97.39,67l17.68-3.39,3.18-4.68-.38-2,2-.38L123,51.88l-6.78-35.36-4.68-3.17-2,.37-.38-2-4.68-3.18ZM93.42,25l9.82-1.89,5.27,27.5-9.82,1.89L93.42,25Z"/><polygon class="cls-1" points="127.68 57.09 118.64 9.95 120.23 7.61 126.12 6.48 128.46 8.07 129.22 12 133.14 11.24 135.48 12.83 137.37 22.65 139.33 22.28 137.45 12.46 139.04 10.12 142.97 9.36 142.21 5.43 143.8 3.09 149.69 1.96 152.03 3.55 161.07 50.69 159.48 53.03 153.59 54.16 151.25 52.58 145.97 25.08 144.01 25.45 145.89 35.27 144.31 37.62 138.41 38.74 136.07 37.16 134.19 27.34 132.23 27.71 137.5 55.21 135.91 57.55 130.02 58.68 127.68 57.09"/><path class="cls-2" d="M150.07,3.93l9,47.14-5.89,1.13-5.65-29.46-5.89,1.13-2.26-11.79,5.9-1.13-1.13-5.89,5.89-1.13M126.5,8.45l1.13,5.89,5.89-1.13L135.78,25l-5.89,1.13,5.64,29.47-5.89,1.13-9-47.14,5.9-1.13m15.17,15.42,2.26,11.78L138,36.78,135.78,25l5.89-1.12M149.32,0l-5.9,1.13-3.17,4.68.37,2-2,.38-2.38,3.51-3.51-2.38-2,.38-.37-2-4.69-3.17-5.89,1.13-3.17,4.68,9,47.14,4.68,3.18,5.89-1.13,3.18-4.69-3-15.71,2.34,1.59,5.89-1.13,1.59-2.34,3,15.71L154,56.13l5.9-1.13L163,50.32,154,3.18,149.32,0Z"/></g></g></svg>