<svg xmlns="http://www.w3.org/2000/svg" viewBox="0 0 61.3 61.3"><defs><style>.cls-1{fill:#2f5f8f;}.cls-2{fill:#0c1014;}.cls-3{fill:#f9e7cd;}</style></defs><title>蓝色弹飞齿轮</title><g id="图层_2" data-name="图层 2"><g id="图层_2-2" data-name="图层 2"><path class="cls-1" d="M50.92,47.3l-5.71-1.22-4.5,3.25-.64,5.8L33.2,56.76,30,51.86,24.55,51,20,54.62l-6-3.7,1.22-5.71L12,40.7l-5.8-.63L4.54,33.2,9.44,30l.89-5.49L6.68,20l3.7-6,5.71,1.23L20.59,12l.64-5.8L28.1,4.54l3.16,4.9,5.49.89L41.3,6.68l6,3.7-1.22,5.71,3.25,4.5,5.8.64,1.63,6.87-4.9,3.16L51,36.75l3.65,4.55Z"/><path class="cls-2" d="M31.38,61.3l-3.74-5.78-2-.32L20.3,59.51,9.49,52.84l1.44-6.73L9.76,44.49l-6.83-.75L0,31.38l5.78-3.74.32-2L1.79,20.3,8.46,9.49l6.73,1.45,1.62-1.18.75-6.83L29.92,0l3.74,5.78,2,.32L41,1.79,51.81,8.46l-1.45,6.73,1.18,1.62,6.84.75L61.3,29.92l-5.78,3.74-.32,2L59.51,41,52.84,51.81l-6.73-1.45-1.62,1.18-.75,6.83ZM23.43,46.74l9,1.45,2.6,4,1.37-.32.52-4.76,7.39-5.33,4.69,1,.73-1.2-3-3.73,1.45-9,4-2.6-.32-1.37-4.76-.52L41.8,17l1-4.69-1.2-.74-3.73,3-9-1.45-2.6-4-1.37.33-.52,4.76L17,19.5l-4.69-1-.74,1.2,3,3.73-1.45,9-4,2.6.32,1.37,4.76.52,5.33,7.39L18.5,49l1.2.74Z"/><circle class="cls-3" cx="30.65" cy="30.65" r="7.42"/><path class="cls-2" d="M30.63,42.08A11.43,11.43,0,0,1,28.15,19.5h0a11.42,11.42,0,1,1,5,22.3A11.92,11.92,0,0,1,30.63,42.08ZM29.9,27.31A3.42,3.42,0,1,0,34,29.9a3.4,3.4,0,0,0-4.09-2.59Z"/></g></g></svg>