<svg xmlns="http://www.w3.org/2000/svg" viewBox="0 0 349.04 390.04"><defs><style>.cls-1{fill:#2f5f8f;}.cls-2{fill:#0c1014;}</style></defs><title>蓝色爆炸</title><g id="图层_2" data-name="图层 2"><g id="图层_2-2" data-name="图层 2"><polygon class="cls-1" points="36.49 17.85 149.49 113.85 200.49 41.85 236.49 155.85 335.49 155.85 239.49 237.85 324.49 342.85 186.49 297.85 122.49 374.85 132.49 237.85 15.49 227.85 104.49 172.85 36.49 17.85"/><path class="cls-2" d="M116.37,390l10.77-147.62L0,231.55l98.17-60.67L23.2,0,148.57,106.51l53.66-75.76,37.92,120.1H349l-102.6,87.64L339,352.85,188.17,303.66ZM31,224.16l106.86,9.13-9.23,126.38,56.2-67.62L310,332.86l-77.42-95.65,89.4-76.36H232.83L198.75,53,150.41,121.2,49.78,35.71l61,139.11Z"/></g></g></svg>