<svg xmlns="http://www.w3.org/2000/svg" viewBox="0 0 163.48 86.9"><defs><style>.cls-1{fill:#fbbd1f;}.cls-2{fill:#0c1014;}</style></defs><title>黄boom</title><g id="图层_2" data-name="图层 2"><g id="图层_2-2" data-name="图层 2"><path class="cls-1" d="M3.47,52.72,2,50.33,12.35,3.47,14.74,2l23.43,5.2,1.51,2.39-.86,3.9,3.91.87,1.51,2.38-2.6,11.72-2.38,1.52-3.91-.87-.43,2,3.91.87,1.51,2.39L36.45,51.84l-2.39,1.52-3.91-.87-.86,3.91L26.9,57.92Zm23.65-5,3-13.67L16.48,31l-3,13.67Zm5.19-23.43,1.74-7.81-13.67-3-1.73,7.81Z"/><path class="cls-2" d="M14.3,3.91,37.73,9.1,36.43,15l-17.57-3.9-2.6,11.72,17.57,3.9-1.3,5.85L15,28.63l-3.9,17.58,17.57,3.9L27.34,56,3.91,50.76,14.3,3.91M36.43,15l5.86,1.3L39.69,28l-5.86-1.3L36.43,15m-3.9,17.57,5.86,1.3-3.9,17.58-5.86-1.3,3.9-17.58M15.17,0,10.4,3,0,49.9l3,4.77,23.43,5.2,4.77-3,.43-1.95,2,.43,4.77-3L42.3,34.7,40,31.12l3.58-2.28,2.6-11.71-3-4.77-2-.44L41.64,10l-3-4.77L15.17,0ZM21,19.74l.87-3.91L31.66,18l-.86,3.9L21,19.74Zm-5.2,23.43L18,33.41l9.76,2.16L25.6,45.33l-9.77-2.16Z"/><path class="cls-1" d="M48,62.6l-1.52-2.39.87-3.91-3.91-.86-1.52-2.39,7.8-35.14,2.39-1.52,3.9.86.87-3.9,2.38-1.52,17.58,3.9,1.51,2.38L77.48,22l3.9.87,1.52,2.38L75.1,60.42l-2.38,1.52-3.91-.87L68,65l-2.39,1.52Zm17.78-6.3,6.94-31.24L59,22,52.11,53.27Z"/><path class="cls-2" d="M58.82,13.78l17.57,3.9-1.3,5.86-17.57-3.9,1.3-5.86m-7.16,4.56,5.86,1.3-7.8,35.15-5.86-1.3,7.8-35.15m23.43,5.2L81,24.84,73.15,60l-5.86-1.3,7.8-35.14M49.72,54.79l17.57,3.89L66,64.54l-17.58-3.9,1.3-5.85m10-44.91-4.77,3-.44,1.95-1.95-.43-4.77,3L40,52.62l3,4.77,2,.43-.43,2,3,4.77,17.57,3.9,4.77-3,.43-1.95,2,.43,4.77-3L84.85,25.7l-3-4.77-2-.43.44-1.95-3-4.77L59.69,9.88Zm-5.2,41.87,6.07-27.34,9.76,2.17L64.26,53.91l-9.77-2.16Z"/><path class="cls-1" d="M86.65,71.17l-1.52-2.38L86,64.88,82.09,64l-1.52-2.39,7.8-35.14L90.76,25l3.9.86.87-3.9,2.38-1.52,17.58,3.9L117,26.69l-.87,3.91,3.9.86,1.52,2.39L113.76,69l-2.38,1.52-3.91-.86-.86,3.9-2.39,1.52Zm17.78-6.29,6.94-31.24-13.67-3L90.77,61.84Z"/><path class="cls-2" d="M97.48,22.36l17.57,3.9-1.3,5.86-17.57-3.9,1.3-5.86m-7.16,4.56,5.86,1.3-7.8,35.14-5.85-1.3,7.79-35.14m23.43,5.2,5.86,1.3-7.8,35.14L106,67.26l7.8-35.14M88.38,63.36,106,67.26l-1.29,5.86-17.58-3.9,1.3-5.86m10-44.9-4.77,3-.44,2-2-.44-4.77,3L78.62,61.2l3,4.77,2,.43-.43,1.95,3,4.78L103.79,77l4.77-3,.43-2,2,.44,4.77-3,7.79-35.15-3-4.77-2-.43.44-1.95-3-4.78L98.35,18.46Zm-5.2,41.86L99.22,33,109,35.16l-6.06,27.33-9.77-2.17Z"/><polygon class="cls-1" points="142.88 83.65 141.36 81.26 147.43 53.93 145.47 53.5 143.31 63.26 140.92 64.78 135.07 63.48 133.55 61.09 135.71 51.33 133.76 50.9 127.69 78.23 125.31 79.75 119.45 78.45 117.93 76.06 128.33 29.21 130.72 27.69 136.57 28.98 138.09 31.37 137.23 35.28 141.13 36.14 142.65 38.53 140.48 48.29 142.44 48.72 144.6 38.96 146.99 37.44 150.89 38.31 151.76 34.4 154.15 32.88 160 34.18 161.52 36.57 151.12 83.43 148.74 84.95 142.88 83.65"/><path class="cls-2" d="M130.28,29.64l5.86,1.3-1.3,5.86,5.86,1.3-2.6,11.71-5.86-1.3-6.5,29.29-5.85-1.3,10.39-46.86m23.43,5.2,5.86,1.3L149.17,83l-5.86-1.3,6.5-29.29L144,51.11l2.6-11.71,5.85,1.29,1.3-5.85m-15.61,15,5.86,1.3-2.6,11.72-5.86-1.3,2.6-11.72m-6.95-24.08-4.77,3L116,75.63l3,4.77,5.86,1.3,4.77-3L133.11,63l1.52,2.39,5.86,1.3,2.38-1.52-3.46,15.62,3,4.77,5.86,1.3,4.77-3L163.48,37l-3-4.77-5.86-1.3-4.77,3-.44,2-2-.43-3.58,2.28-2.28-3.58-1.95-.43.43-2L137,27l-5.85-1.3Z"/></g></g></svg>