<svg xmlns="http://www.w3.org/2000/svg" viewBox="0 0 102.33 102.33"><defs><style>.cls-1{fill:#fbbd1f;}.cls-2{fill:#0c1014;}.cls-3{fill:#313b45;}</style></defs><title>黄色齿轮</title><g id="图层_2" data-name="图层 2"><g id="图层_2-2" data-name="图层 2"><path class="cls-1" d="M90.16,76.19l-10.26-1-7.23,6.64.08,10.3-11.7,4.27-6.57-7.94-9.81-.42-7.23,7.34L26.15,90.16l1-10.26-6.63-7.23-10.3.08L5.91,61.05l7.93-6.57.42-9.81L6.92,37.44l5.26-11.29,10.25,1,7.24-6.64-.09-10.3L41.29,5.91l6.57,7.93,9.8.42,7.23-7.34,11.3,5.26-1,10.26,6.64,7.23,10.3-.09,4.27,11.71-7.94,6.57-.42,9.8,7.34,7.23Z"/><path class="cls-2" d="M59.44,102.33,52,93.39l-5.36-.23-8.15,8.28L20.84,93.2l1.09-11.56-3.63-4-11.61.09L0,59.44,8.94,52l.23-5.36L.9,38.53,9.13,20.84l11.56,1.09,4-3.63-.1-11.61L42.89,0l7.4,8.94,5.37.23L63.8.9,81.49,9.13,80.41,20.69l3.63,4,11.61-.1,6.68,18.34-8.94,7.4-.23,5.37,8.28,8.14L93.2,81.5,81.64,80.41l-4,3.63.1,11.61ZM42.66,83l14.25.61,5.74,6.93,5.07-1.85-.07-9L78.16,70l9,.85L89.39,66,83,59.67l.61-14.25,6.93-5.73-1.85-5.08-9,.08L70,24.18l.85-9L66,12.94l-6.31,6.42-14.25-.62-5.73-6.93-5.08,1.85.07,9L24.18,32.3l-9-.84-2.28,4.9,6.41,6.3-.61,14.25-6.93,5.74,1.85,5.07,9-.07L32.3,78.16l-.84,9,4.9,2.28Z"/><circle class="cls-3" cx="51.17" cy="51.17" r="13.11"/><path class="cls-2" d="M51.16,66.29a15.18,15.18,0,0,1-6.54-1.5,15.11,15.11,0,0,1,1.54-27.88h0a15.11,15.11,0,1,1,10,28.52A15.26,15.26,0,0,1,51.16,66.29Zm0-26.24a11.18,11.18,0,0,0-3.69.63h0a11.06,11.06,0,1,0,3.69-.63Z"/></g></g></svg>