<svg xmlns="http://www.w3.org/2000/svg" viewBox="0 0 87.56 87.56"><defs><style>.cls-1{fill:#fbbd1f;}.cls-2{fill:#0c1014;}</style></defs><title>黄色弹出星星</title><g id="图层_2" data-name="图层 2"><g id="图层_2-2" data-name="图层 2"><path class="cls-1" d="M52.1,82.78l-10.9.79A34,34,0,0,0,4.78,52.1L4,41.2A34,34,0,0,0,35.46,4.78L46.37,4A34,34,0,0,0,82.78,35.46l.79,10.91A34,34,0,0,0,52.1,82.78Z"/><path class="cls-2" d="M41.49,87.56l-4.28-3.7A29.88,29.88,0,0,0,26.89,63.32,29.82,29.82,0,0,0,5.07,56.09L.79,52.39,0,41.49l3.7-4.28A30.08,30.08,0,0,0,31.48,5.07L35.17.79,46.08,0l4.28,3.7A29.8,29.8,0,0,0,60.67,24.24a29.83,29.83,0,0,0,21.82,7.24l4.28,3.69.79,10.91-3.7,4.28A30.06,30.06,0,0,0,56.09,82.49l-3.7,4.28ZM8.5,48a37.69,37.69,0,0,1,23.62,9.25,37.71,37.71,0,0,1,12.57,22L48,79.07A38.1,38.1,0,0,1,79.31,42.88l-.24-3.34a37.74,37.74,0,0,1-23.63-9.25,37.77,37.77,0,0,1-12.57-22l-3.33.25A38.12,38.12,0,0,1,8.25,44.69Z"/></g></g></svg>