<svg xmlns="http://www.w3.org/2000/svg" viewBox="0 0 66.5 66.5"><defs><style>.cls-1{fill:#fbbd1f;}.cls-2{fill:#0c1014;}</style></defs><title>黄色装饰星星</title><g id="图层_2" data-name="图层 2"><g id="图层_2-2" data-name="图层 2"><path class="cls-1" d="M21.14,63l-7.63-4.41a27.44,27.44,0,0,0-10-37.49l4.41-7.63a27.44,27.44,0,0,0,37.49-10L53,7.87A27.44,27.44,0,0,0,63,45.36L58.63,53A27.44,27.44,0,0,0,21.14,63Z"/><path class="cls-2" d="M19.14,66.5l-7.63-4.41L10,56.63a23.45,23.45,0,0,0-8.58-32L0,19.14l4.41-7.63L9.87,10a23.25,23.25,0,0,0,17.79,2.35A23.26,23.26,0,0,0,41.89,1.46L47.36,0,55,4.41l1.47,5.46a23.45,23.45,0,0,0,8.58,32l1.46,5.47L62.09,55l-5.46,1.47a23.42,23.42,0,0,0-32,8.58ZM18.75,57l1.14.66A31.49,31.49,0,0,1,57,47.74l.66-1.14a31.5,31.5,0,0,1-10-37.14L46.61,8.8A31.2,31.2,0,0,1,29.73,20.11,31.23,31.23,0,0,1,9.46,18.76L8.8,19.9A31.5,31.5,0,0,1,18.75,57Z"/></g></g></svg>