<svg xmlns="http://www.w3.org/2000/svg" viewBox="0 0 149.71 156.88"><defs><style>.cls-1{fill:#fbbd1f;}.cls-2{fill:#0c1014;}</style></defs><title>黄色爆炸</title><g id="图层_2" data-name="图层 2"><g id="图层_2-2" data-name="图层 2"><polygon class="cls-1" points="105.79 32.57 72.79 63.57 21.79 2.57 37.79 75.57 1.79 93.57 49.79 100.57 68.79 155.57 85.79 106.57 147.79 72.57 105.79 72.57 105.79 32.57"/><path class="cls-2" d="M72.57,156.88H65L46.8,104.17,1.21,97.52,0,90,33.21,73.38l-15.33-70,7-3.42L73.14,57.75l29.91-28.1,6.74,2.92v36h38l1.92,7.5L89.06,109.33ZM15,91.45l35.4,5.16,3.2,2.65L68.8,143.34,82,105.25l1.86-2.19,48.31-26.49H105.79l-4-4V41.81L75.53,66.48l-5.81-.35L29.19,17.66,41.7,74.71l-2.12,4.43Z"/></g></g></svg>