<svg xmlns="http://www.w3.org/2000/svg" viewBox="0 0 592 283"><defs><style>.cls-1{fill:#fbbd1f;}.cls-2{fill:#0c1014;}.cls-3{fill:#c64a39;}.cls-4{fill:#f9e7cd;stroke:#0c1014;stroke-linejoin:bevel;stroke-width:10px;}.cls-5{fill:#2f5f8f;}.cls-6{fill:none;stroke:#313b45;stroke-miterlimit:10;stroke-width:8px;}</style></defs><title>卫星</title><g id="图层_2" data-name="图层 2"><g id="图层_2-2" data-name="图层 2"><path class="cls-1" d="M238.45,279l-4-4A32.49,32.49,0,0,0,202,242.55l-4-4V44.45l4-4A32.49,32.49,0,0,0,234.45,8l4-4h115.1l4,4A32.49,32.49,0,0,0,390,40.45l4,4v194.1l-4,4A32.49,32.49,0,0,0,357.55,275l-4,4Z"/><path class="cls-2" d="M353.55,8A36.45,36.45,0,0,0,390,44.45v194.1A36.45,36.45,0,0,0,353.55,275H238.45A36.45,36.45,0,0,0,202,238.55V44.45A36.45,36.45,0,0,0,238.45,8h115.1m0-8H238.45l-8,8A28.48,28.48,0,0,1,202,36.45l-8,8v194.1l8,8A28.48,28.48,0,0,1,230.45,275l8,8h115.1l8-8A28.48,28.48,0,0,1,390,246.55l8-8V44.45l-8-8A28.48,28.48,0,0,1,361.55,8l-8-8Z"/><path class="cls-3" d="M251.22,260A51.69,51.69,0,0,0,217,225.78V57.22A51.69,51.69,0,0,0,251.22,23h89.56A51.69,51.69,0,0,0,375,57.22V225.78A51.69,51.69,0,0,0,340.78,260Z"/><path class="cls-2" d="M337.21,28A56.74,56.74,0,0,0,370,60.79V222.21A56.74,56.74,0,0,0,337.21,255H254.79A56.74,56.74,0,0,0,222,222.21V60.79A56.74,56.74,0,0,0,254.79,28h82.42m7.43-10H247.36A46.57,46.57,0,0,1,212,53.36V229.64A46.57,46.57,0,0,1,247.36,265h97.28A46.57,46.57,0,0,1,380,229.64V53.36A46.57,46.57,0,0,1,344.64,18Z"/><rect class="cls-4" x="221" y="124" width="150" height="35" transform="translate(108.71 410.87) rotate(-80.74)"/><rect class="cls-4" x="150" y="128" width="52" height="26"/><rect class="cls-5" x="5" y="78" width="145" height="127"/><path class="cls-2" d="M145,83V200H10V83H145m10-10H0V210H155V73Z"/><line class="cls-6" x1="22" y1="88.74" x2="22" y2="193.68"/><line class="cls-6" x1="49.75" y1="88.74" x2="49.75" y2="193.68"/><line class="cls-6" x1="77.5" y1="88.74" x2="77.5" y2="193.68"/><line class="cls-6" x1="105.25" y1="88.74" x2="105.25" y2="193.68"/><line class="cls-6" x1="133" y1="88.74" x2="133" y2="193.68"/><rect class="cls-4" x="390" y="128" width="52" height="26" transform="translate(832 282) rotate(-180)"/><rect class="cls-5" x="442" y="78" width="145" height="127"/><path class="cls-2" d="M582,83V200H447V83H582m10-10H437V210H592V73Z"/><line class="cls-6" x1="570" y1="88.74" x2="570" y2="193.68"/><line class="cls-6" x1="542.25" y1="88.74" x2="542.25" y2="193.68"/><line class="cls-6" x1="514.5" y1="88.74" x2="514.5" y2="193.68"/><line class="cls-6" x1="486.75" y1="88.74" x2="486.75" y2="193.68"/><line class="cls-6" x1="459" y1="88.74" x2="459" y2="193.68"/></g></g></svg>