<svg xmlns="http://www.w3.org/2000/svg" viewBox="0 0 218.22 239.52"><defs><style>.cls-1{fill:#f9e7cd;stroke:#0c1014;stroke-linejoin:bevel;stroke-width:10px;}</style></defs><title>壳</title><g id="图层_2" data-name="图层 2"><g id="图层_2-2" data-name="图层 2"><path class="cls-1" d="M131.42,4.22s5.77,19.91,33.51,40.46S213.4,65,213.4,65a290.58,290.58,0,0,1-46.6,95h0c-17.86,24.21-41.21,48.51-71.7,71.45-1.38,1-2.78,2.07-4.19,3.11,0,0-4.12.26-12.23-2.41s-20.59-8.44-36.91-20.54l-.63-.47C24.8,199,15.72,188.85,10.73,181.76s-5.86-11-5.86-11q.87-2.48,1.75-4.9c13.07-35.86,29.53-65.27,47.5-89.4h0A290.45,290.45,0,0,1,131.42,4.22Z"/></g></g></svg>