<svg xmlns="http://www.w3.org/2000/svg" viewBox="0 0 127.53 78.42"><defs><style>.cls-1{fill:#2f5f8f;}.cls-2{fill:#0c1014;}</style></defs><title>底座</title><g id="图层_2" data-name="图层 2"><g id="图层_2-2" data-name="图层 2"><path class="cls-1" d="M27.05,73.42a31.7,31.7,0,0,1-8.84-1l-2.34-1.55C11.74,66.05,7.74,61.09,4,56.18l3.56-8c10.53-.86,28.55-4.21,54.57-15.27l1-.42C89.11,21.39,104,10.74,112,3.75l8.25,3c.92,6.12,1.71,12.45,2.36,18.8l-.51,2.76c-.24.46-2.52,4.76-9.54,10.91A99.92,99.92,0,0,1,101,47.82a154.7,154.7,0,0,1-16.91,9.37c-2.8,1.35-5.8,2.71-8.9,4l-.71.3c-3.1,1.32-6.16,2.54-9.09,3.62a154.17,154.17,0,0,1-18.46,5.68,101.08,101.08,0,0,1-14.2,2.35C30.72,73.33,28.83,73.42,27.05,73.42Z"/><path class="cls-2" d="M115.26,7.5q1.35,9.06,2.32,18.57s-1.87,3.71-8.36,9.39a93.75,93.75,0,0,1-11,8.16,150.13,150.13,0,0,1-16.36,9.06c-2.7,1.31-5.59,2.62-8.7,3.94l-.71.3q-4.65,2-8.87,3.53A147.52,147.52,0,0,1,45.74,66a95.58,95.58,0,0,1-13.48,2.24c-2,.16-3.71.23-5.21.23a27.74,27.74,0,0,1-7.37-.73Q13.5,60.4,7.93,53.14c11.91-1,30.33-4.69,56.12-15.66l1-.42c25.8-11,41.25-21.65,50.22-29.56M108.64,0C101,6.74,86.54,17.05,61.13,27.86l-1,.42c-25.41,10.8-42.86,14.06-53,14.89L0,59.23c3.82,5,7.87,10,12.05,14.92l4.68,3.09a36.19,36.19,0,0,0,10.32,1.18c1.92,0,4-.09,6.06-.27A103.42,103.42,0,0,0,48,75.68a160.76,160.76,0,0,0,19.08-5.86c3-1.1,6.11-2.35,9.29-3.7l.71-.3c3.17-1.35,6.24-2.74,9.13-4.14A159.37,159.37,0,0,0,103.67,52a105,105,0,0,0,12.12-9c7.4-6.46,10.08-11.14,10.72-12.42l1-5.52c-.65-6.43-1.46-12.84-2.38-19L108.64,0Z"/></g></g></svg>