<svg xmlns="http://www.w3.org/2000/svg" viewBox="0 0 150.8 56"><defs><style>.cls-1{fill:#329af9;}.cls-2{fill:#0c1014;}</style></defs><title>end</title><g id="图层_2" data-name="图层 2"><g id="图层_2-2" data-name="图层 2"><polygon class="cls-1" points="4 54 2 52 2 4 4 2 34 2 36 4 36 10 34 12 12 12 12 20 28 20 30 22 30 28 28 30 12 30 12 44 34 44 36 46 36 52 34 54 4 54"/><path class="cls-2" d="M34,4v6H10V22H28v6H10V46H34v6H4V4H34m0-4H4L0,4V52l4,4H34l4-4V46l-4-4H14V32H28l4-4V22l-4-4H14V14H34l4-4V4L34,0Z"/><polygon class="cls-1" points="67.6 54 65.6 52 65.6 48 61.6 48 59.6 46 59.6 36 55.6 36 53.6 34 53.6 24 51.6 24 51.6 52 49.6 54 43.6 54 41.6 52 41.6 4 43.6 2 49.6 2 51.6 4 51.6 8 55.6 8 57.6 10 57.6 20 61.6 20 63.6 22 63.6 32 65.6 32 65.6 4 67.6 2 73.6 2 75.6 4 75.6 52 73.6 54 67.6 54"/><path class="cls-2" d="M73.6,4V52h-6V46h-6V34h6V4h6m-24,0v6h6V22h-6V52h-6V4h6m12,18V34h-6V22h6m12-22h-6l-4,4V20l-2-2h-2V10l-4-4h-2V4l-4-4h-6l-4,4V52l4,4h6l4-4V36l2,2h2v8l4,4h2v2l4,4h6l4-4V4l-4-4Z"/><path class="cls-1" d="M83.2,54l-2-2V4l2-2h18l2,2V8h4l2,2v4h4l2,2V40l-2,2h-4v4l-2,2h-4v4l-2,2Zm16-10V40l2-2h4V18h-4l-2-2V12h-8V44Z"/><path class="cls-2" d="M101.2,4v6h-12V46h12v6h-18V4h18m6,6v6h-6V10h6m6,6V40h-6V16h6m-6,24v6h-6V40h6m-6-40h-18l-4,4V52l4,4h18l4-4V50h2l4-4V44h2l4-4V16l-4-4h-2V10l-4-4h-2V4l-4-4Zm-8,14h4v2l4,4h2V36h-2l-4,4v2h-4V14Z"/><polygon class="cls-1" points="134.8 54 132.8 52 132.8 40 134.8 38 146.8 38 148.8 40 148.8 52 146.8 54 134.8 54"/><path class="cls-2" d="M146.8,40V52h-12V40h12m0-4h-12l-4,4V52l4,4h12l4-4V40l-4-4Z"/></g></g></svg>