<svg xmlns="http://www.w3.org/2000/svg" viewBox="0 0 135.74 274.36"><defs><style>.cls-1{fill:#fbbd1f;}.cls-2{fill:#0c1014;}.cls-3{fill:#c64a39;}.cls-4{fill:#f9e7cd;stroke:#0c1014;stroke-linejoin:bevel;stroke-width:4.52px;}.cls-5{fill:#2f5f8f;}.cls-6{fill:none;stroke:#313b45;stroke-miterlimit:10;stroke-width:3.61px;}</style></defs><title>卫星</title><g id="图层_2" data-name="图层 2"><g id="图层_2-2" data-name="图层 2"><path class="cls-1" d="M15.91,171.54l-1.4-2.14A14.66,14.66,0,0,0,3.17,152.06l-1.4-2.14L12.4,99l2.14-1.4A14.65,14.65,0,0,0,31.88,86.29L34,84.89l85.81,17.93,1.39,2.14a14.67,14.67,0,0,0,11.35,17.34l1.4,2.14-10.63,50.88-2.14,1.4a14.65,14.65,0,0,0-17.34,11.35l-2.14,1.4Z"/><path class="cls-2" d="M33.65,86.66l85.81,17.93a16.46,16.46,0,0,0,12.74,19.48L121.57,175a17.09,17.09,0,0,0-3.38-.35,16.47,16.47,0,0,0-16.1,13.1L16.28,169.77A16.46,16.46,0,0,0,3.54,150.29L14.17,99.41a17,17,0,0,0,3.38.35,16.48,16.48,0,0,0,16.1-13.1m.74-3.53-4.28,2.79A12.9,12.9,0,0,1,17.55,96.15a13.08,13.08,0,0,1-2.64-.28l-4.28,2.8L0,149.55l2.8,4.28a12.75,12.75,0,0,1,8.12,5.54A12.76,12.76,0,0,1,12.75,169l2.79,4.28,85.81,17.93,4.28-2.8a12.88,12.88,0,0,1,12.56-10.22,13.07,13.07,0,0,1,2.64.27l4.28-2.8,10.63-50.88-2.8-4.28a12.85,12.85,0,0,1-10-15.2l-2.8-4.28L34.39,83.13Z"/><path class="cls-3" d="M23.31,164.32a23.32,23.32,0,0,0-12-18.29l8.27-39.59a23.36,23.36,0,0,0,18.29-12L112.43,110a23.32,23.32,0,0,0,12,18.29l-8.27,39.59a23.34,23.34,0,0,0-18.29,12Z"/><path class="cls-2" d="M39,97l71.37,14.91a25.57,25.57,0,0,0,11.46,17.52l-7.61,36.44a25.62,25.62,0,0,0-17.52,11.47L25.35,162.44a25.61,25.61,0,0,0-11.46-17.52l7.61-36.44A25.62,25.62,0,0,0,39,97m-2.36-5.1a21,21,0,0,1-18.89,12.36l-9,43a21.07,21.07,0,0,1,12.37,18.9l77.92,16.29A21,21,0,0,1,118,170.09l9-43a21.07,21.07,0,0,1-12.37-18.9L36.66,91.91Z"/><rect class="cls-4" x="34" y="129.28" width="67.74" height="15.81" transform="translate(53.83 -15.23) rotate(21.06)"/><rect class="cls-4" x="67.43" y="78.31" width="23.48" height="11.74" transform="translate(177.76 23.89) rotate(101.8)"/><rect class="cls-5" x="55.31" y="11.91" width="65.48" height="57.36" transform="translate(30.31 118.48) rotate(-78.2)"/><path class="cls-2" d="M68.42,5.34l51.73,10.81L107.68,75.83,56,65,68.42,5.34M64.93,0,50.61,68.52l60.56,12.65,14.32-68.52L64.93,0Z"/><line class="cls-6" x1="116.5" y1="20.93" x2="70.11" y2="11.23"/><line class="cls-6" x1="113.94" y1="33.19" x2="67.55" y2="23.5"/><line class="cls-6" x1="111.37" y1="45.46" x2="64.98" y2="35.77"/><line class="cls-6" x1="108.81" y1="57.73" x2="62.42" y2="48.04"/><line class="cls-6" x1="106.25" y1="70" x2="59.86" y2="60.3"/><rect class="cls-4" x="45.26" y="184.4" width="23.48" height="11.74" transform="matrix(0.2, -0.98, 0.98, 0.2, -140.91, 207.16)"/><rect class="cls-5" x="14.95" y="205.1" width="65.48" height="57.36" transform="translate(-190.9 232.64) rotate(-78.2)"/><path class="cls-2" d="M28.06,198.53l51.72,10.81L67.31,269,15.59,258.21l12.47-59.68m-3.5-5.34L10.25,261.71l60.56,12.65,14.32-68.52L24.56,193.19Z"/><line class="cls-6" x1="65.89" y1="263.18" x2="19.5" y2="253.49"/><line class="cls-6" x1="68.45" y1="250.91" x2="22.06" y2="241.22"/><line class="cls-6" x1="71.01" y1="238.65" x2="24.62" y2="228.95"/><line class="cls-6" x1="73.57" y1="226.38" x2="27.19" y2="216.69"/><line class="cls-6" x1="76.14" y1="214.11" x2="29.75" y2="204.42"/></g></g></svg>