<svg xmlns="http://www.w3.org/2000/svg" viewBox="0 0 75 75"><defs><style>.cls-1{fill:#329af9;}.cls-2{fill:#f9f9f9;}.cls-3{fill:#313b45;}.cls-4{fill:#c95119;}</style></defs><title>面板关闭图标</title><g id="图层_2" data-name="图层 2"><g id="图层_2-2" data-name="图层 2"><rect class="cls-1" x="3" y="3" width="72" height="72"/><rect class="cls-2" x="2" y="2" width="68" height="68"/><path class="cls-3" d="M68,4V68H4V4H68m4-4H0V72H72V0Z"/><polygon class="cls-4" points="49.59 54.41 37 41.83 24.41 54.41 21.59 54.41 17.59 50.41 17.59 47.59 30.17 35 17.59 22.41 17.59 19.59 21.59 15.59 24.41 15.59 37 28.17 49.59 15.59 52.41 15.59 56.41 19.59 56.41 22.41 43.83 35 56.41 47.59 56.41 50.41 52.41 54.41 49.59 54.41"/><path class="cls-3" d="M51,17l4,4L41,35,55,49l-4,4L37,39,23,53l-4-4L33,35,19,21l4-4L37,31,51,17m2.83-2.83H48.17L37,25.34,25.83,14.17H20.17l-4,4v5.66L27.34,35,16.17,46.17v5.66l4,4h5.66L37,44.66,48.17,55.83h5.66l4-4V46.17L46.66,35,57.83,23.83V18.17l-4-4Z"/></g></g></svg>