<svg xmlns="http://www.w3.org/2000/svg" viewBox="0 0 376.44 738.34"><defs><style>.cls-1{fill:#f9f9f9;stroke:#313b45;}.cls-1,.cls-8,.cls-9{stroke-linejoin:bevel;}.cls-1,.cls-8{stroke-width:10px;}.cls-2{fill:#2f5f8f;}.cls-3{fill:#c64a39;}.cls-4{fill:#f9e7cd;}.cls-5{fill:#fcc020;}.cls-6{fill:#c95119;}.cls-7{fill:#fbbd1f;}.cls-8,.cls-9{fill:none;stroke:#0c1014;}.cls-9{stroke-width:6px;}</style></defs><title>主视觉火箭</title><g id="图层_2" data-name="图层 2"><g id="图层_2-2" data-name="图层 2"><path class="cls-1" d="M145.05,582,102,619.83l5.57-106.36-28.9-9.16,44.14-66.16-.69-.59-1.58-5.08c-.9-2.93-1.78-5.86-2.61-8.79a60.26,60.26,0,0,1-8.66-4.74L4.92,459.79l30.4-164.16,43.32-38a406.29,406.29,0,0,1,7.48-69.43,391.39,391.39,0,0,1,18.54-64.48c27.91-72.65,68.2-112,69.91-113.64L179.86,5h16.72l5.29,5.1c1.7,1.64,42,41,69.9,113.64a396.27,396.27,0,0,1,26,133.91l43.32,38,30.4,164.16L267.2,419c-1,.66-2.2,1.42-3.68,2.24s-3.22,1.7-5,2.5c-.84,2.92-1.71,5.86-2.62,8.78l-1.57,5.08-.69.59,44.14,66.16-28.91,9.16,5.57,106.36L231.39,582,188.22,737Z"/><path class="cls-2" d="M96.75,266,52.08,305.16,28.8,430.87l87.61-34.28C102.26,348.86,96.67,305.25,96.75,266Zm-16,45.07a6.38,6.38,0,1,1,6.37-6.37A6.37,6.37,0,0,1,80.73,311.08ZM95.3,392.16a6.38,6.38,0,1,1,6.38-6.38A6.38,6.38,0,0,1,95.3,392.16Z"/><line x1="96.76" y1="266" x2="96.75" y2="266"/><path class="cls-3" d="M254.77,130.28s-21.51,16.37-66.55,16.37-66.55-16.37-66.55-16.37c26.78-69.71,65.54-107.06,65.54-107.06h2S228,60.57,254.77,130.28Z"/><path class="cls-4" d="M254.77,130.28s-21.51,16.37-66.55,16.37-66.55-16.37-66.55-16.37A378.94,378.94,0,0,0,96.75,266h0c-.08,39.24,5.51,82.85,19.66,130.58.64,2.15,1.29,4.32,2,6.5,0,0,4.11,3.48,14.69,7,10.73,3.56,28.13,7.14,54.64,7.14h1c26.51,0,43.91-3.58,54.64-7.14,10.57-3.5,14.69-7,14.69-7,.68-2.18,1.33-4.35,2-6.5,14.15-47.73,19.74-91.34,19.66-130.58h0A378.94,378.94,0,0,0,254.77,130.28ZM235.79,338s-23.18,15.16-47.57,15.16S140.65,338,140.65,338V290.13h-7.09V258.25h7.09V208.72s23.17-15.15,47.57-15.15,47.57,15.15,47.57,15.15Z"/><path class="cls-3" d="M188.22,193.57c-24.4,0-47.57,15.15-47.57,15.15v49.53h7.09v31.88h-7.09V338s23.17,15.16,47.57,15.16S235.79,338,235.79,338V208.72S212.61,193.57,188.22,193.57Zm30.36,134.22c-7.34,3.75-19.35,8.61-30.36,8.61s-23-4.85-30.36-8.61V219c7.34-3.75,19.35-8.61,30.36-8.61s23,4.86,30.36,8.62Z"/><path class="cls-2" d="M243.37,410.07q-2.18,8.39-4.85,17s-3,2.55-10.76,5.09a89,89,0,0,1-12.56,3A140.75,140.75,0,0,1,197.61,437q-4.25.21-9,.21h-.73q-4.77,0-9-.21a140.75,140.75,0,0,1-17.59-1.83,89.52,89.52,0,0,1-12.57-3c-7.75-2.54-10.75-5.09-10.75-5.09q-2.68-8.62-4.85-17c10.73,3.56,28.13,7.14,54.64,7.14h1C215.24,417.21,232.64,413.63,243.37,410.07Z"/><path class="cls-2" d="M324.35,305.16,279.69,266c.08,39.24-5.51,82.85-19.66,130.58l87.61,34.28Zm-43,87a6.38,6.38,0,1,1,6.37-6.38A6.38,6.38,0,0,1,281.34,392.16Zm14.57-81.08a6.38,6.38,0,1,1,6.38-6.37A6.37,6.37,0,0,1,295.91,311.08Z"/><line x1="279.69" y1="266" x2="279.68" y2="266"/><path class="cls-2" d="M218.58,219V327.79c-7.34,3.75-19.35,8.61-30.36,8.61s-23-4.85-30.36-8.61V219c7.34-3.75,19.35-8.61,30.36-8.61S211.23,215.2,218.58,219Z"/><rect class="cls-5" x="133.56" y="258.25" width="14.17" height="31.88"/><path class="cls-3" d="M250,500.35l4,77.25-32.39-28.46-33.4,120-33.41-120L122.43,577.6l4-77.25-19.23-6.09,41.43-62.09a89.52,89.52,0,0,0,12.57,3l-16.55,42.58,13.17,43.72L171,519.69l17.21,64.68,17.21-64.68,13.15,1.82,13.16-43.72L215.2,435.21a89,89,0,0,0,12.56-3l41.43,62.09Z"/><path class="cls-6" d="M231.74,477.79l-13.16,43.72-13.15-1.82-17.21,64.68L171,519.69l-13.15,1.82-13.17-43.72,16.55-42.58A140.75,140.75,0,0,0,178.83,437L174,477.79l14.18,43.72,14.17-43.72L197.61,437a140.75,140.75,0,0,0,17.59-1.83Z"/><path class="cls-7" d="M202.39,477.79l-14.17,43.72L174,477.79,178.83,437q4.24.21,9,.21h.73q4.78,0,9-.21Z"/><circle class="cls-7" cx="80.73" cy="304.71" r="6.38"/><circle class="cls-7" cx="95.3" cy="385.78" r="6.38"/><circle class="cls-7" cx="295.91" cy="304.71" r="6.38"/><circle class="cls-7" cx="281.34" cy="385.78" r="6.38"/><polyline class="cls-8" points="96.75 266 52.08 305.16 28.8 430.87 116.41 396.59"/><path class="cls-8" d="M189.23,23.22S333,161.69,258.06,403.09c0,0-16.7,14.12-69.34,14.12h-1c-52.63,0-69.33-14.12-69.33-14.12-74.9-241.4,68.83-379.87,68.83-379.87Z"/><path class="cls-8" d="M243.37,410.07q-2.18,8.39-4.85,17s-12,10.17-49.94,10.17h-.73c-37.9,0-49.93-10.17-49.93-10.17q-2.68-8.62-4.85-17"/><polyline class="cls-8" points="279.68 266 324.36 305.16 347.64 430.87 260.03 396.59"/><path class="cls-9" d="M140.65,290.13V338s23.17,15.15,47.57,15.15S235.79,338,235.79,338V208.72s-23.18-15.15-47.57-15.15-47.57,15.15-47.57,15.15v49.53"/><path class="cls-9" d="M188.22,336.4c-11,0-23-4.85-30.37-8.61V219c7.35-3.75,19.35-8.61,30.37-8.61s23,4.85,30.36,8.61V327.79C211.24,331.55,199.24,336.4,188.22,336.4Z"/><path class="cls-9" d="M121.67,130.28s21.51,16.37,66.55,16.37,66.55-16.37,66.55-16.37"/><rect class="cls-9" x="133.56" y="258.25" width="14.17" height="31.88"/><polyline class="cls-8" points="227.77 432.17 269.19 494.25 249.96 500.35 254.01 577.61 221.62 549.14 188.22 669.09 154.82 549.14 122.43 577.61 126.48 500.35 107.25 494.25 148.67 432.17"/><polyline class="cls-9" points="215.2 435.21 231.74 477.79 218.58 521.51 205.43 519.69 188.22 584.37 171.01 519.69 157.85 521.51 144.69 477.79 161.24 435.21"/><polyline class="cls-9" points="197.62 437.05 202.39 477.79 188.22 521.51 174.05 477.79 178.82 437.05"/><circle class="cls-9" cx="80.73" cy="304.71" r="6.38"/><circle class="cls-9" cx="95.3" cy="385.78" r="6.38"/><circle class="cls-9" cx="295.91" cy="304.71" r="6.38"/><circle class="cls-9" cx="281.34" cy="385.78" r="6.38"/></g></g></svg>