<svg xmlns="http://www.w3.org/2000/svg" viewBox="0 0 404 335.11"><defs><style>.cls-1{fill:#f9e7cd;}.cls-2{fill:#0c1014;}.cls-3{fill:#fbbd1f;stroke:#0c1014;stroke-linejoin:bevel;stroke-width:6px;}</style></defs><title>设置面板</title><g id="图层_2" data-name="图层 2"><g id="图层_2-2" data-name="图层 2"><polygon class="cls-1" points="31.38 331.11 4 303.73 4 31.38 31.38 4 372.63 4 400 31.38 400 303.73 372.63 331.11 31.38 331.11"/><path class="cls-2" d="M371,8l25,25v269l-8.16,8.15L371,327.11H33L16.16,310.23,8,302.08V33L33,8H371m3.31-8H29.72L0,29.72V305.39l29.72,29.72H374.28L404,305.39V29.72L374.28,0Z"/><circle class="cls-3" cx="32.26" cy="35.68" r="6.38"/><circle class="cls-3" cx="371.74" cy="35.68" r="6.38"/><circle class="cls-3" cx="32.26" cy="299.43" r="6.38"/><circle class="cls-3" cx="371.74" cy="299.43" r="6.38"/></g></g></svg>