<svg xmlns="http://www.w3.org/2000/svg" viewBox="0 0 103 103"><defs><style>.cls-1{fill:#329af9;}.cls-2{fill:#c95119;}.cls-3{fill:#313b45;}.cls-4{fill:#f9f9f9;}</style></defs><title>设置按钮（选中效果）</title><g id="图层_2" data-name="图层 2"><g id="图层_2-2" data-name="图层 2"><rect class="cls-1" x="3" y="3" width="100" height="100"/><rect class="cls-2" x="2" y="2" width="96" height="96"/><path class="cls-3" d="M96,4V96H4V4H96m4-4H0V100H100V0Z"/><path class="cls-4" d="M44.52,77.17l-8.6-3.44L29.34,77,24.55,72.3l3.07-6.67L24,57.12,17,54.75,17,48.07l6.88-2.55,3.44-8.6L24,30.33l4.66-4.78,6.67,3.07L43.88,25,46.25,18,52.93,18l2.55,6.88,8.6,3.44L70.66,25l4.79,4.66-3.07,6.67L76,44.88,83,47.25l.08,6.68-6.88,2.55-3.44,8.6L76,71.67,71.3,76.45l-6.67-3.07L56.12,77,53.75,84l-6.68.08ZM50,39A12,12,0,1,0,62,51,12,12,0,0,0,50,39Z"/><path class="cls-3" d="M51.55,20l1.74,4.72.62,1.67,1.65.66,6.95,2.78,1.65.66,1.6-.79,4.52-2.21,1.38,1.34L73,30.15l-2.11,4.57-.74,1.62.7,1.63,1.48,3.44,1.47,3.44.7,1.64,1.68.57L81,48.69l0,1.94,0,1.92-4.72,1.74-1.67.62L74,56.56l-.35.88L71.2,63.51l-.66,1.65.79,1.6,2.21,4.52L72.2,72.65,70.85,74l-4.57-2.11-1.65-.73L63,71.9l-6.85,2.94-1.64.7-.57,1.68L52.31,82l-1.93,0-1.93,0-1.74-4.72-.62-1.67L44.44,75,37.49,72.2l-1.65-.66-1.6.79-4.52,2.21L28.34,73.2,27,71.85l2.11-4.57.74-1.62L29.11,64l-1.48-3.44-1.47-3.44-.7-1.64-1.68-.57L19,53.31l0-1.94,0-1.92,4.72-1.74,1.67-.62L26,45.44l.35-.88,2.43-6.07.66-1.65-.79-1.6-2.21-4.52,2.12-2.17.57-.59,4.57,2.11,1.65.73L37,30.1l6.85-2.94,1.64-.7.57-1.68L47.69,20l1.93,0,1.93,0M50,65A14,14,0,1,0,36,51,14,14,0,0,0,50,65m4.32-49.07-9.5.12-2.54,7.43L35.4,26.43l-7.14-3.28L21.62,30,25.08,37,22.3,44l-7.37,2.72.12,9.5,7.43,2.54c1.18,2.75,1.78,4.14,2.95,6.88l-3.28,7.14L29,79.38,36,75.92l7,2.78,2.72,7.37,9.5-.12,2.54-7.43,6.88-3,7.14,3.28c3.32-3.39,3.32-3.4,6.64-6.8l-3.46-7,2.78-7,7.37-2.72C85,50.58,85,50.56,85,45.82l-7.43-2.54c-1.18-2.75-1.78-4.14-3-6.88l3.28-7.14-6.8-6.64-7,3.46L57,23.3l-2.72-7.37ZM50,61A10,10,0,1,1,60,51,10,10,0,0,1,50,61Z"/></g></g></svg>