<svg xmlns="http://www.w3.org/2000/svg" viewBox="0 0 330 58"><defs><style>.cls-1{fill:#329af9;}.cls-2{fill:#c64a39;}.cls-3{fill:#0c1014;}</style></defs><title>Start</title><g id="图层_2" data-name="图层 2"><g id="图层_2-2" data-name="图层 2"><polygon class="cls-1" points="6 22 2 26 2 34 6 38 53 38 57 34 57 26 53 22 6 22"/><polygon class="cls-1" points="326 22 279 22 275 26 275 34 279 38 326 38 330 34 330 26 326 22"/><polygon class="cls-1" points="149 6 145 2 115 2 112 5 109 2 85 2 81 6 81 8 79 8 75 12 75 24 79 28 81 28 81 30 85 34 99 34 99 44 79 44 75 48 75 54 79 58 103 58 107 54 107 52 109 52 113 48 113 30 109 26 107 26 107 24 103 20 89 20 89 16 109 16 112 13 115 16 123 16 123 54 127 58 133 58 137 54 137 16 145 16 149 12 149 6"/><path class="cls-1" d="M223,2l-4,4v4l-2-2h-2V6l-4-4H187l-4,4V34l-2-2h-2V18l-4-4h-2V6l-4-4h-6l-4,4v8h-2l-4,4V32h-2l-4,4V54l4,4h6l4-4V40h10V54l4,4h6l3-3,3,3h6l4-4V40h4v2l4,4h2v8l4,4h6l4-4V42l-4-4h-2V34h2l4-4V14l2,2h8V54l4,4h6l4-4V16h8l4-4V6l-4-4ZM197,26V16h10V26Z"/><polygon class="cls-2" points="4 34 2 32 2 24 4 22 51 22 53 24 53 32 51 34 4 34"/><path class="cls-3" d="M51,24v8H4V24H51m0-4H4L0,24v8l4,4H51l4-4V24l-4-4Z"/><polygon class="cls-2" points="277 34 275 32 275 24 277 22 324 22 326 24 326 32 324 34 277 34"/><path class="cls-3" d="M324,24v8H277V24h47m0-4H277l-4,4v8l4,4h47l4-4V24l-4-4Z"/><polygon class="cls-2" points="77 54 75 52 75 46 77 44 99 44 99 30 83 30 81 28 81 24 77 24 75 22 75 10 77 8 81 8 81 4 83 2 107 2 109 4 109 10 107 12 85 12 85 20 101 20 103 22 103 26 107 26 109 28 109 46 107 48 103 48 103 52 101 54 77 54"/><path class="cls-3" d="M107,4v6H83V4h24M83,10V22H77V10h6m18,12v6H83V22h18m6,6V46h-6V28h6m-6,18v6H77V46h24m6-46H83L79,4V6H77l-4,4V22l4,4h2v2l4,4H97V42H77l-4,4v6l4,4h24l4-4V50h2l4-4V28l-4-4h-2V22l-4-4H87V14h20l4-4V4l-4-4Z"/><polygon class="cls-2" points="125 54 123 52 123 12 113 12 111 10 111 4 113 2 143 2 145 4 145 10 143 12 133 12 133 52 131 54 125 54"/><path class="cls-3" d="M143,4v6H131V52h-6V10H113V4h30m0-4H113l-4,4v6l4,4h8V52l4,4h6l4-4V14h8l4-4V4l-4-4Z"/><path class="cls-2" d="M173,54l-2-2V36H157V52l-2,2h-6l-2-2V34l2-2h4V16l2-2h4V4l2-2h6l2,2V14h4l2,2V32h4l2,2V52l-2,2Zm-8-28V18h-2v8Z"/><path class="cls-3" d="M167,4V16h-6V4h6m6,12V34H155V16h6V28h6V16h6m6,18V52h-6V34h6m-24,0V52h-6V34h6M167,0h-6l-4,4v8h-2l-4,4V30h-2l-4,4V52l4,4h6l4-4V38h10V52l4,4h6l4-4V34l-4-4h-2V16l-4-4h-2V4l-4-4Z"/><path class="cls-2" d="M209,54l-2-2V42h-4l-2-2V36h-8V52l-2,2h-6l-2-2V4l2-2h24l2,2V8h4l2,2V28l-2,2h-4v8h4l2,2V52l-2,2Zm-2-28V12H193V26Z"/><path class="cls-3" d="M209,4v6H191V28h18V40h-6V34H191V52h-6V4h24m6,6V28h-6V10h6m0,30V52h-6V40h6M209,0H185l-4,4V52l4,4h6l4-4V38h4v2l4,4h2v8l4,4h6l4-4V40l-4-4h-2V32h2l4-4V10l-4-4h-2V4l-4-4ZM195,14h10V24H195V14Z"/><polygon class="cls-2" points="233 54 231 52 231 12 221 12 219 10 219 4 221 2 251 2 253 4 253 10 251 12 241 12 241 52 239 54 233 54"/><path class="cls-3" d="M251,4v6H239V52h-6V10H221V4h30m0-4H221l-4,4v6l4,4h8V52l4,4h6l4-4V14h8l4-4V4l-4-4Z"/></g></g></svg>