<svg xmlns="http://www.w3.org/2000/svg" viewBox="0 0 271 151"><defs><style>.cls-1{fill:#fff;}.cls-2{fill:#329af9;}.cls-3{fill:#f9f9f9;}.cls-4{fill:#313b45;}.cls-5{fill:#f9e7cd;}.cls-6{fill:none;stroke:#313b45;stroke-miterlimit:10;}</style></defs><title>焦虑</title><g id="图层_2" data-name="图层 2"><g id="图层_2-2" data-name="图层 2"><polygon class="cls-1" points="3 145 3 102 12 102 12 91 3 91 3 21 21 21 21 3 106 3 106 19 145 19 145 22 172 22 172 4 215 4 215 8 256 8 256 22 265 22 265 129 256 129 256 145 3 145"/><path d="M103,6V22h39v3h33V7h37v4h41V25h9V126h-9v16H6V105h9V88H6V24H24V6h79m6-6H18V18H0V94H9v5H0v49H259V132h9V19h-9V5H218V1H169V19H148V16H109V0Z"/><polygon class="cls-2" points="262 22 262 8 221 8 221 4 172 4 172 22 151 22 151 19 112 19 112 3 21 3 21 21 3 21 3 97 12 97 12 102 3 102 3 151 33 151 61 151 63 151 91 151 93 151 121 151 123 151 143 151 151 151 163 151 181 151 201 151 262 151 262 135 271 135 271 112.06 271 86 271 22 262 22"/><polygon class="cls-3" points="2 146 2 101 11 101 11 92 2 92 2 20 20 20 20 2 107 2 107 18 146 18 146 21 171 21 171 3 216 3 216 7 257 7 257 21 266 21 266 130 257 130 257 146 2 146"/><path class="cls-4" d="M105,4V20h39v3h29V5h41V9h41V23h9V128h-9v16H4V103h9V90H4V22H22V4h83m4-4H18V18H0V94H9v5H0v49H259V132h9V19h-9V5H218V1H169V19H148V16H109V0Z"/><polygon class="cls-5" points="29 119 20 119 20 128 38 128 38 119 38 110 29 110 29 119"/><polygon class="cls-5" points="59 110 50 110 50 119 50 128 68 128 68 119 59 119 59 110"/><polygon class="cls-5" points="89 110 80 110 80 119 80 128 98 128 98 119 89 119 89 110"/><polygon class="cls-5" points="119 110 110 110 110 119 110 128 128 128 128 119 119 119 119 110"/><path class="cls-5" d="M89,20H80V38H56V20H38V38H20V74h9V56h9v48h9v-.5H80v.5h9v-.5h39V90.87H89V88.06h39V75.44H89V72.63h39V60H89V56h39V38H89ZM80,90.87H47V88.06H80Zm0-15.43H47V72.63H80ZM80,60H47V56H80Z"/><polygon class="cls-5" points="178 119 178 110 169 110 169 119 160 119 160 128 178 128 178 119"/><polygon class="cls-5" points="248 103 239 103 239 94 230 94 230 103 230 112 248 112 248 103"/><polygon class="cls-5" points="198 94 198 103 198 112 216 112 216 103 207 103 207 94 198 94"/><polygon class="cls-5" points="189 57 189 61 166.5 61 166.5 73.63 189 73.63 189 76.44 189 89 189 89.06 248 89.06 248 76.44 198 76.44 198 73.63 248 73.63 248 61 198 61 198 57 248 57 248 39 198 39 198 34 239 34 239 25 198 25 198 21 189 21 189 39 140 39 140 57 149 57 149 110 149 119 140 119 140 128 158 128 158 119 158 110 158 57 189 57"/><polygon class="cls-5" points="180 104 180 115.37 180 127.94 180 128 239 128 239 115.37 189 115.37 189 104 180 104"/><polygon class="cls-6" points="29 119 20 119 20 128 38 128 38 119 38 110 29 110 29 119"/><polygon class="cls-6" points="59 110 50 110 50 119 50 128 68 128 68 119 59 119 59 110"/><polygon class="cls-6" points="89 110 80 110 80 119 80 128 98 128 98 119 89 119 89 110"/><polygon class="cls-6" points="119 110 110 110 110 119 110 128 128 128 128 119 119 119 119 110"/><path class="cls-6" d="M89,20H80V38H56V20H38V38H20V74h9V56h9v48h9v-.5H80v.5h9v-.5h39V90.87H89V88.06h39V75.44H89V72.63h39V60H89V56h39V38H89ZM80,90.87H47V88.06H80Zm0-15.43H47V72.63H80ZM80,60H47V56H80Z"/><polygon class="cls-6" points="178 119 178 110 169 110 169 119 160 119 160 128 178 128 178 119"/><polygon class="cls-6" points="248 103 239 103 239 94 230 94 230 103 230 112 248 112 248 103"/><polygon class="cls-6" points="198 94 198 103 198 112 216 112 216 103 207 103 207 94 198 94"/><polygon class="cls-6" points="189 57 189 61 166.5 61 166.5 73.63 189 73.63 189 76.44 189 89 189 89.06 248 89.06 248 76.44 198 76.44 198 73.63 248 73.63 248 61 198 61 198 57 248 57 248 39 198 39 198 34 239 34 239 25 198 25 198 21 189 21 189 39 140 39 140 57 149 57 149 110 149 119 140 119 140 128 158 128 158 119 158 110 158 57 189 57"/><polygon class="cls-6" points="180 104 180 115.37 180 127.94 180 128 239 128 239 115.37 189 115.37 189 104 180 104"/></g></g></svg>