<svg xmlns="http://www.w3.org/2000/svg" viewBox="0 0 391 150"><defs><style>.cls-1{fill:#329af9;}.cls-2{fill:#f9f9f9;}.cls-3{fill:#313b45;}.cls-4{fill:#2f5f8f;}.cls-4,.cls-7{stroke:#313b45;}.cls-4,.cls-5,.cls-7{stroke-miterlimit:10;}.cls-5{fill:none;stroke:#0c1014;}.cls-6{fill:#c64a39;}.cls-7{fill:#fcc020;}</style></defs><title>拆解号</title><g id="图层_2" data-name="图层 2"><g id="图层_2-2" data-name="图层 2"><polygon class="cls-1" points="382 49 382 3 271.25 3 252 3 175.25 3 175.25 14.37 171.25 14.37 171.25 3 151 3 122.25 3 71 3 43 3 22 3 22 20.87 3 20.87 3 150 34 150 71 150 75 150 83 150 124 150 124 129 124.25 129 124.25 150 199.25 150 212.25 150 248.25 150 248.25 138 271.25 138 271.25 120 279 120 279 150 382 150 382 101.63 391 101.63 391 49 382 49"/><polygon class="cls-2" points="278 145 278 115 266.25 115 266.25 133 243.25 133 243.25 145 123.25 145 123.25 124 119 124 119 145 2 145 2 19.87 21 19.87 21 2 166.25 2 166.25 13.37 174.25 13.37 174.25 2 377 2 377 48 386 48 386 96.63 377 96.63 377 145 278 145"/><path class="cls-3" d="M375,4V50h9V94.63h-9V143H280V113H264.25v18h-23v12h-116V122H117v21H4V21.87H23V4H164.25V15.37h12V4H375m4-4H172.25V11.37h-4V0H19V17.87H0V147H121V126h.25v21h124V135h23V117H276v30H379V98.63h9V46h-9V0Z"/><polygon class="cls-4" points="296 82 278 82 278 84.37 278 97 296 97 350 97 350 109 350 118 296 118 296 127 359 127 359 118 359 109 359 97 359 91 359 84.37 296 84.37 296 82"/><path class="cls-4" d="M359,59V20H269V62h90ZM278,38h72v6H278Z"/><rect class="cls-4" x="259.5" y="66" width="108.5" height="12.63"/><polygon class="cls-5" points="296 82 278 82 278 84.37 278 97 296 97 350 97 350 109 350 118 296 118 296 127 359 127 359 118 359 109 359 97 359 91 359 84.37 296 84.37 296 82"/><path class="cls-5" d="M359,59V20H269V62h90ZM278,38h72v6H278Z"/><rect class="cls-5" x="259.5" y="66" width="108.5" height="12.63"/><polygon class="cls-6" points="60 97 51 97 51 127 60 127 60 106 69 106 69 97 69 88 60 88 60 97"/><polygon class="cls-6" points="58 88 58 70 48 70 48 50.5 58 50.5 58 37.87 48 37.87 48 20 39 20 39 37.87 20 37.87 20 50.5 39 50.5 39 70 20 70 20 88 39 88 39 109 39 118 20 118 20 127 48 127 48 118 48 109 48 88 58 88"/><polygon class="cls-6" points="69 20 60 20 60 38 69 38 69 88 78 88 78 66.5 92 66.5 92 79 82 79 82 97 92 97 92 127 101 127 101 97 110 97 110 106 119 106 128 106 128 97 120 97 120 79 101 79 101 66.5 128 66.5 128 53.87 78 53.87 78 38 128 38 128 20 78 20 69 20"/><polygon class="cls-7" points="192.25 53 192.25 62 202.25 62 211.25 62 211.25 53 202.25 53 192.25 53"/><path class="cls-7" d="M139.25,62.5h2V127h9V100.63h14V127h9V100.63h7V127h9V49.87h-50Zm11,0h14V66h-14Zm0,25.5V78.63h14V88Zm23,0V78.63h7V88Zm7-22h-7V62.5h7Z"/><polygon class="cls-7" points="192.25 38 211.25 38 211.25 53 220.25 53 220.25 38 239.25 38 239.25 44 239.25 53 230.25 53 230.25 62 248.25 62 248.25 53 248.25 44 248.25 38 248.25 23 248.25 20 192.25 20 192.25 38"/><polygon class="cls-7" points="225.25 67 216.25 67 216.25 78.37 201.25 78.37 201.25 67 192.25 67 192.25 78.37 192.25 90.94 192.25 91 216.25 91 216.25 97 192.25 97 192.25 115 216.25 115 216.25 127 225.25 127 225.25 115 248.25 115 248.25 97 225.25 97 225.25 91 248.25 91 248.25 78.37 225.25 78.37 225.25 67"/><polygon class="cls-7" points="148.25 20 139.25 20 139.25 31.37 139.25 43.94 139.25 44 189.25 44 189.25 31.37 148.25 31.37 148.25 20"/><polygon class="cls-5" points="60 97 51 97 51 127 60 127 60 106 69 106 69 97 69 88 60 88 60 97"/><polygon class="cls-5" points="58 88 58 70 48 70 48 50.5 58 50.5 58 37.87 48 37.87 48 20 39 20 39 37.87 20 37.87 20 50.5 39 50.5 39 70 20 70 20 88 39 88 39 109 39 118 20 118 20 127 48 127 48 118 48 109 48 88 58 88"/><polygon class="cls-5" points="69 20 60 20 60 38 69 38 69 88 78 88 78 66.5 92 66.5 92 79 82 79 82 97 92 97 92 127 101 127 101 97 110 97 110 106 119 106 128 106 128 97 120 97 120 79 101 79 101 66.5 128 66.5 128 53.87 78 53.87 78 38 128 38 128 20 78 20 69 20"/><polygon class="cls-5" points="192.25 53 192.25 62 202.25 62 211.25 62 211.25 53 202.25 53 192.25 53"/><path class="cls-5" d="M139.25,62.5h2V127h9V100.63h14V127h9V100.63h7V127h9V49.87h-50Zm11,0h14V66h-14Zm0,25.5V78.63h14V88Zm23,0V78.63h7V88Zm7-22h-7V62.5h7Z"/><polygon class="cls-5" points="192.25 38 211.25 38 211.25 53 220.25 53 220.25 38 239.25 38 239.25 44 239.25 53 230.25 53 230.25 62 248.25 62 248.25 53 248.25 44 248.25 38 248.25 23 248.25 20 192.25 20 192.25 38"/><polygon class="cls-5" points="225.25 67 216.25 67 216.25 78.37 201.25 78.37 201.25 67 192.25 67 192.25 78.37 192.25 90.94 192.25 91 216.25 91 216.25 97 192.25 97 192.25 115 216.25 115 216.25 127 225.25 127 225.25 115 248.25 115 248.25 97 225.25 97 225.25 91 248.25 91 248.25 78.37 225.25 78.37 225.25 67"/><polygon class="cls-5" points="148.25 20 139.25 20 139.25 31.37 139.25 43.94 139.25 44 189.25 44 189.25 31.37 148.25 31.37 148.25 20"/></g></g></svg>