<svg xmlns="http://www.w3.org/2000/svg" viewBox="0 0 103 103"><defs><style>.cls-1{fill:#329af9;}.cls-2{fill:#f9f9f9;}.cls-3{fill:#313b45;}.cls-4{fill:#f9e7cd;}.cls-5{fill:#fbbd1f;}.cls-6{fill:#2f5f8f;stroke:#313b45;stroke-miterlimit:10;stroke-width:4px;}</style></defs><title>教程按钮（未选中效果）</title><g id="图层_2" data-name="图层 2"><g id="图层_2-2" data-name="图层 2"><rect class="cls-1" x="3" y="3" width="100" height="100"/><rect class="cls-2" x="2" y="2" width="96" height="96"/><path class="cls-3" d="M96,4V96H4V4H96m4-4H0V100H100V0Z"/><polygon class="cls-4" points="30.08 82 24 75.92 24 24.08 30.08 18 69.92 18 76 24.08 76 75.92 69.92 82 30.08 82"/><path class="cls-3" d="M69.09,20,74,24.91V75.09L69.09,80H30.91L26,75.09V24.91L30.91,20H69.09m1.65-4H29.26L22,23.26V76.74L29.26,84H70.74L78,76.74V23.26L70.74,16Z"/><rect class="cls-5" x="38" y="14" width="24" height="9"/><path class="cls-3" d="M60,16v5H40V16H60m4-4H36V25H64V12Z"/><line class="cls-6" x1="36" y1="36" x2="64" y2="36"/><line class="cls-6" x1="36" y1="46" x2="64" y2="46"/><line class="cls-6" x1="36" y1="56" x2="64" y2="56"/><line class="cls-6" x1="36" y1="66" x2="64" y2="66"/></g></g></svg>