<svg xmlns="http://www.w3.org/2000/svg" viewBox="0 0 596 739"><defs><style>.cls-1{fill:#f9e7cd;}.cls-2{fill:#0c1014;}.cls-3{fill:#fbbd1f;stroke:#0c1014;stroke-linejoin:bevel;stroke-width:6px;}</style></defs><title>教程面板</title><g id="图层_2" data-name="图层 2"><g id="图层_2-2" data-name="图层 2"><polygon class="cls-1" points="55.26 735 4 683.74 4 55.26 55.26 4 540.74 4 592 55.26 592 683.74 540.74 735 55.26 735"/><path class="cls-2" d="M539.08,8,588,56.92V682.08l-24.46,24.46L539.08,731H56.92L32.46,706.54,8,682.08V56.92L56.92,8H539.08m3.32-8H53.6L0,53.6V685.4L53.6,739H542.4L596,685.4V53.6L542.4,0Z"/><circle class="cls-3" cx="56.26" cy="54.68" r="6.38"/><circle class="cls-3" cx="56.26" cy="684.32" r="6.38"/><circle class="cls-3" cx="539.74" cy="54.68" r="6.38"/><circle class="cls-3" cx="539.74" cy="684.32" r="6.38"/></g></g></svg>