<svg xmlns="http://www.w3.org/2000/svg" viewBox="0 0 101.65 189.89"><defs><style>.cls-1{fill:#2f5f8f;}.cls-2{fill:#c64a39;}.cls-3{fill:#f9e7cd;}.cls-4{fill:#fcc020;}.cls-5{fill:#c95119;}.cls-6{fill:#fbbd1f;}.cls-7,.cls-8{fill:none;stroke:#0c1014;stroke-linejoin:bevel;}.cls-7{stroke-width:2.36px;}.cls-8{stroke-width:2.96px;}</style></defs><title>火箭尾焰短</title><g id="图层_2" data-name="图层 2"><g id="图层_2-2" data-name="图层 2"><path class="cls-1" d="M21.78,77.36,7.82,89.6.54,128.89l27.38-10.72A141.91,141.91,0,0,1,21.78,77.36Zm-5,14.09a2,2,0,1,1,2-2A2,2,0,0,1,16.77,91.45Zm4.55,25.34a2,2,0,1,1,2-2A2,2,0,0,1,21.32,116.79Z"/><line x1="21.78" y1="77.36" x2="21.78" y2="77.36"/><path class="cls-2" d="M71.17,34.94s-6.73,5.12-20.8,5.12-20.8-5.12-20.8-5.12C37.93,13.15,50.05,1.48,50.05,1.48h.63S62.8,13.15,71.17,34.94Z"/><path class="cls-3" d="M71.17,34.94s-6.73,5.12-20.8,5.12-20.8-5.12-20.8-5.12a118.07,118.07,0,0,0-7.79,42.42h0a141.91,141.91,0,0,0,6.14,40.81c.2.68.4,1.36.62,2a14.76,14.76,0,0,0,4.59,2.18c3.35,1.11,8.79,2.23,17.08,2.23h.31c8.29,0,13.73-1.12,17.08-2.23a14.76,14.76,0,0,0,4.59-2.18c.22-.68.42-1.36.62-2A141.91,141.91,0,0,0,79,77.36h0A118.3,118.3,0,0,0,71.17,34.94ZM65.23,99.87s-7.24,4.74-14.86,4.74S35.5,99.87,35.5,99.87v-15H33.28v-10H35.5V59.46s7.24-4.74,14.87-4.74,14.86,4.74,14.86,4.74Z"/><path class="cls-2" d="M50.37,54.72c-7.63,0-14.87,4.74-14.87,4.74V74.94h2.21v10H35.5v15s7.24,4.74,14.87,4.74,14.86-4.74,14.86-4.74V59.46S58,54.72,50.37,54.72Zm9.49,42a22.62,22.62,0,0,1-9.49,2.69,22.53,22.53,0,0,1-9.49-2.69v-34A22.68,22.68,0,0,1,50.37,60a22.62,22.62,0,0,1,9.49,2.7Z"/><path class="cls-1" d="M67.6,122.39q-.67,2.63-1.51,5.32a11,11,0,0,1-3.36,1.59,29.59,29.59,0,0,1-3.93.95,45.87,45.87,0,0,1-5.5.57q-1.32.06-2.82.06h-.23c-1,0-1.93,0-2.82-.06a45.87,45.87,0,0,1-5.5-.57A29,29,0,0,1,38,129.3a11,11,0,0,1-3.37-1.59q-.84-2.7-1.51-5.32c3.35,1.11,8.79,2.23,17.08,2.23h.31C58.81,124.62,64.25,123.5,67.6,122.39Z"/><path class="cls-1" d="M92.91,89.6,79,77.36a141.91,141.91,0,0,1-6.14,40.81l27.38,10.72ZM79.47,116.79a2,2,0,1,1,2-2A2,2,0,0,1,79.47,116.79ZM84,91.45a2,2,0,1,1,2-2A2,2,0,0,1,84,91.45Z"/><line x1="78.95" y1="77.36" x2="78.95" y2="77.36"/><path class="cls-1" d="M59.86,62.66v34a22.62,22.62,0,0,1-9.49,2.69,22.53,22.53,0,0,1-9.49-2.69v-34A22.68,22.68,0,0,1,50.37,60,22.62,22.62,0,0,1,59.86,62.66Z"/><rect class="cls-4" x="33.28" y="74.94" width="4.43" height="9.97"/><path class="cls-2" d="M69.66,146.59l1.86,19.6-10.71-6.33L50.37,189.4,39.92,159.86l-10.71,6.33,1.86-19.6-6-1.54L38,129.3a34.86,34.86,0,0,0,3.92.77l-5.17,10.8L40.88,152,45,151.5l5.38,16.41,5.37-16.41,4.12.46L64,140.87l-5.17-10.8a35.56,35.56,0,0,0,3.93-.77l12.94,15.75Z"/><path class="cls-5" d="M64,140.87,59.86,152l-4.12-.46-5.37,16.41L45,151.5l-4.11.46-4.12-11.09,5.17-10.8c1.54.21,3.36.38,5.5.46l-1.5,10.34,4.44,10.2,4.43-10.2-1.5-10.34c2.14-.08,4-.25,5.5-.46Z"/><path class="cls-6" d="M54.8,140.87l-4.43,10.2-4.44-10.2,1.5-10.34c.89,0,1.82.06,2.82.06h.23q1.5,0,2.82-.06Z"/><circle class="cls-6" cx="16.77" cy="89.46" r="1.99"/><circle class="cls-6" cx="21.32" cy="114.8" r="1.99"/><circle class="cls-6" cx="84.03" cy="89.46" r="1.99"/><circle class="cls-6" cx="79.47" cy="114.8" r="1.99"/><path class="cls-7" d="M35.5,84.9v15s7.24,4.74,14.87,4.74,14.86-4.74,14.86-4.74V59.46S58,54.72,50.37,54.72,35.5,59.46,35.5,59.46V74.94"/><path class="cls-7" d="M50.37,99.36a22.62,22.62,0,0,1-9.5-2.69v-34A22.77,22.77,0,0,1,50.37,60a22.62,22.62,0,0,1,9.49,2.7v34A22.62,22.62,0,0,1,50.37,99.36Z"/><path class="cls-7" d="M29.56,34.94s6.73,5.12,20.81,5.12,20.8-5.12,20.8-5.12"/><rect class="cls-7" x="33.28" y="74.94" width="4.43" height="9.97"/><polyline class="cls-7" points="58.8 130.07 63.97 140.87 59.86 151.96 55.74 151.5 50.37 167.91 44.99 151.5 40.87 151.96 36.76 140.87 41.93 130.07"/><polyline class="cls-7" points="53.3 130.53 54.79 140.87 50.37 151.07 45.94 140.87 47.43 130.53"/><circle class="cls-7" cx="16.77" cy="89.46" r="1.99"/><circle class="cls-7" cx="21.32" cy="114.8" r="1.99"/><circle class="cls-7" cx="84.03" cy="89.46" r="1.99"/><circle class="cls-7" cx="79.47" cy="114.8" r="1.99"/><polyline class="cls-8" points="21.78 77.36 7.82 89.6 0.54 128.89 27.92 118.18"/><path class="cls-8" d="M50.68,1.48S95.6,44.76,72.19,120.21c0,0-5.22,4.41-21.67,4.41h-.31c-16.45,0-21.67-4.41-21.67-4.41C5.13,44.76,50.05,1.48,50.05,1.48Z"/><path class="cls-8" d="M67.6,122.39c-.45,1.75-1,3.52-1.51,5.32,0,0-3.76,3.17-15.61,3.17h-.23c-11.85,0-15.61-3.17-15.61-3.17-.55-1.8-1.06-3.57-1.51-5.32"/><polyline class="cls-8" points="78.95 77.36 92.92 89.6 100.19 128.89 72.81 118.18"/><polyline class="cls-8" points="62.73 129.3 75.67 145.05 69.66 146.59 71.52 166.19 60.8 159.86 50.37 189.4 39.92 159.86 29.21 166.19 31.07 146.59 25.06 145.05 38.01 129.3"/></g></g></svg>