<svg xmlns="http://www.w3.org/2000/svg" viewBox="0 0 123.63 176.04"><defs><style>.cls-1{fill:#c64a39;}.cls-2{fill:#c95119;}.cls-3{fill:#fbbd1f;}.cls-4{fill:#0c1014;}</style></defs><title>尾焰</title><g id="图层_2" data-name="图层 2"><g id="图层_2-2" data-name="图层 2"><path class="cls-1" d="M107.05,51.62l3,56.59L86.29,87.36,61.82,175.23,37.34,87.36,13.62,108.21l3-56.59L2.49,47.15,32.85,1.67a65.35,65.35,0,0,0,9.2,2.22L29.93,35.09l9.64,32,9.64-1.33,12.61,47.38,12.6-47.38,9.64,1.33,9.64-32L81.58,3.89a65.53,65.53,0,0,0,9.21-2.22l30.35,45.48Z"/><path class="cls-2" d="M93.7,35.09l-9.64,32-9.64-1.33-12.6,47.38L49.21,65.79l-9.64,1.33-9.64-32L42.05,3.89A102.06,102.06,0,0,0,54.94,5.24L51.43,35.09l10.39,32,10.38-32L68.7,5.24A101.88,101.88,0,0,0,81.58,3.89Z"/><path class="cls-3" d="M72.2,35.09l-10.38,32-10.39-32L54.94,5.24q3.11.15,6.61.15h.53c2.34,0,4.54,0,6.62-.15Z"/><polygon class="cls-4" points="64.71 176.04 58.93 176.04 35.74 92.77 15.6 110.47 10.62 108.06 13.47 53.78 1.59 50.01 0 45.48 30.35 0 35.34 3.33 7.21 45.5 17.49 48.76 19.58 51.78 16.99 101.26 35.37 85.11 40.24 86.56 61.82 164.05 83.4 86.56 88.27 85.11 106.65 101.26 104.05 51.78 106.14 48.76 116.43 45.5 88.29 3.33 93.28 0 123.63 45.48 122.05 50.01 110.17 53.78 113.01 108.06 108.03 110.47 87.9 92.77 64.71 176.04"/><polygon class="cls-4" points="63.75 113.68 59.88 113.68 47.73 68.01 39.85 69.1 37.66 67.7 28.02 35.66 28.07 34.36 40.19 3.17 43.91 4.62 32.04 35.17 40.99 64.91 48.94 63.81 51.14 65.27 61.82 105.39 72.49 65.27 74.7 63.81 82.64 64.91 91.59 35.17 79.72 4.62 83.45 3.17 95.57 34.36 95.62 35.66 85.98 67.7 83.79 69.1 75.9 68.01 63.75 113.68"/><polygon class="cls-4" points="63.72 67.74 59.91 67.74 49.53 35.7 49.45 34.85 52.95 5.01 56.92 5.47 53.47 34.89 61.82 60.63 70.16 34.89 66.71 5.47 70.69 5.01 74.19 34.85 74.1 35.7 63.72 67.74"/></g></g></svg>