<svg xmlns="http://www.w3.org/2000/svg" viewBox="0 0 239.48 309.32"><defs><style>.cls-1{fill:#2f5f8f;}.cls-2{fill:#c64a39;}.cls-3{fill:#f9e7cd;}.cls-4{fill:#fcc020;}.cls-5{fill:#fbbd1f;}.cls-6{fill:#0c1014;}</style></defs><title>火箭</title><g id="图层_2" data-name="图层 2"><g id="图层_2-2" data-name="图层 2"><path class="cls-1" d="M52.73,180.87,20,209.55,3,301.65l64.18-25.12C56.77,241.56,52.67,209.62,52.73,180.87ZM41,213.89a4.67,4.67,0,1,1,4.67-4.67A4.67,4.67,0,0,1,41,213.89Zm10.68,59.39a4.67,4.67,0,1,1,4.67-4.67A4.66,4.66,0,0,1,51.67,273.28Z"/><line x1="52.74" y1="180.86" x2="52.73" y2="180.86"/><path class="cls-2" d="M168.5,81.43s-15.77,12-48.76,12S71,81.43,71,81.43C90.6,30.36,119,3,119,3h1.48S148.88,30.36,168.5,81.43Z"/><path class="cls-3" d="M168.5,81.43s-15.77,12-48.76,12S71,81.43,71,81.43a277.5,277.5,0,0,0-18.26,99.43h0c-.06,28.75,4,60.69,14.4,95.66q.7,2.37,1.44,4.76s3,2.55,10.77,5.11,20.61,5.24,40,5.24h.74c19.42,0,32.17-2.63,40-5.24s10.77-5.11,10.77-5.11q.74-2.39,1.44-4.76c10.36-35,14.46-66.91,14.4-95.66h0A277.73,277.73,0,0,0,168.5,81.43ZM154.59,233.62s-17,11.11-34.85,11.11-34.85-11.11-34.85-11.11V198.54H79.7V175.18h5.19V138.9s17-11.1,34.85-11.1,34.85,11.1,34.85,11.1Z"/><path class="cls-2" d="M119.74,127.8c-17.87,0-34.85,11.1-34.85,11.1v36.28h5.19v23.36H84.89v35.08s17,11.11,34.85,11.11,34.85-11.11,34.85-11.11V138.9S137.61,127.8,119.74,127.8ZM142,226.13c-5.38,2.75-14.17,6.3-22.24,6.3s-16.86-3.55-22.24-6.3V146.39c5.37-2.75,14.17-6.31,22.24-6.31s16.86,3.56,22.24,6.32Z"/><path class="cls-1" d="M160.14,286.4q-1.59,6.15-3.55,12.47s-2.2,1.86-7.88,3.72a64.17,64.17,0,0,1-9.2,2.23,104.16,104.16,0,0,1-12.89,1.35q-3.12.15-6.61.15h-.54c-2.33,0-4.54-.05-6.61-.15A104.16,104.16,0,0,1,100,304.82a63.83,63.83,0,0,1-9.2-2.23c-5.68-1.86-7.88-3.72-7.88-3.72q-2-6.33-3.55-12.47c7.86,2.61,20.61,5.24,40,5.24h.74C139.53,291.64,152.28,289,160.14,286.4Z"/><path class="cls-1" d="M219.47,209.55l-32.72-28.68c.06,28.75-4,60.69-14.4,95.66l64.18,25.12ZM188,273.28a4.67,4.67,0,1,1,4.67-4.67A4.66,4.66,0,0,1,188,273.28Zm10.68-59.39a4.67,4.67,0,1,1,4.67-4.67A4.68,4.68,0,0,1,198.64,213.89Z"/><line x1="186.75" y1="180.86" x2="186.74" y2="180.86"/><path class="cls-1" d="M142,146.4v79.73c-5.38,2.75-14.17,6.3-22.24,6.3s-16.86-3.55-22.24-6.3V146.39c5.37-2.75,14.17-6.31,22.24-6.31S136.6,143.64,142,146.4Z"/><rect class="cls-4" x="79.7" y="175.18" width="10.38" height="23.36"/><circle class="cls-5" cx="40.99" cy="209.22" r="4.67"/><circle class="cls-5" cx="51.67" cy="268.61" r="4.67"/><circle class="cls-5" cx="198.64" cy="209.22" r="4.67"/><circle class="cls-5" cx="187.96" cy="268.61" r="4.67"/><polygon class="cls-6" points="4.04 304.44 0 301.1 17.05 209 18.03 207.29 50.76 178.6 54.71 183.12 22.77 211.12 6.88 296.89 66.04 273.74 68.23 279.32 4.04 304.44"/><path class="cls-6" d="M120.11,294.64h-.74c-39.21,0-52.2-10.61-52.73-11.06l-.93-1.4C53.08,241.49,47.9,201.4,50.31,163A278.32,278.32,0,0,1,70.43,74.69C89.91,27.18,115.82,1.89,116.92.84L119,0h1.48l2.08.84c1.1,1,27,26.34,46.48,73.85A278.06,278.06,0,0,1,189.17,163c2.41,38.39-2.78,78.48-15.4,119.17l-.93,1.4C172.31,284,159.32,294.64,120.11,294.64Zm-49-15.2c2.91,1.89,16.23,9.2,48.23,9.2h.74c32,0,45.28-7.29,48.23-9.2,27.63-89.9,12.7-159.55-4.73-202.2-16.51-40.38-38.3-64.85-43.87-70.71-5.57,5.86-27.36,30.33-43.87,70.71C58.44,119.89,43.51,189.54,71.14,279.44Z"/><path class="cls-6" d="M120,309.32h-.54c-28.54,0-38.12-7.83-38.52-8.16l-.93-1.4c-1.3-4.19-2.5-8.43-3.59-12.6l5.81-1.51c1,3.76,2.05,7.57,3.21,11.35,2.39,1.47,12,6.32,34,6.32H120c22,0,31.58-4.83,34-6.33,1.15-3.77,2.23-7.58,3.21-11.34l5.8,1.51c-1.08,4.17-2.29,8.41-3.58,12.6l-.93,1.4C158.13,301.49,148.55,309.32,120,309.32Z"/><polygon class="cls-6" points="235.44 304.44 171.25 279.32 173.44 273.74 232.6 296.89 216.71 211.12 184.77 183.12 188.72 178.6 221.45 207.29 222.42 209 239.48 301.1 235.44 304.44"/><path class="cls-6" d="M119.74,246.72c-18.26,0-35.23-11-35.95-11.42l-.9-1.68V198.54h4v34c3.69,2.21,18.08,10.21,32.85,10.21s29.16-8,32.85-10.21V140c-3.69-2.21-18.08-10.21-32.85-10.21s-29.16,8-32.85,10.21v35.17h-4V138.9l.9-1.68c.72-.46,17.69-11.42,35.95-11.42s35.23,11,36,11.42l.9,1.68v94.72l-.9,1.68C155,235.76,138,246.72,119.74,246.72Z"/><path class="cls-6" d="M119.74,234.43c-9,0-18.39-4.08-23.16-6.52l-1.09-1.78V146.39l1.09-1.78c4.77-2.43,14.11-6.52,23.16-6.52s18.39,4.09,23.16,6.52L144,146.4v79.73l-1.09,1.78C138.13,230.35,128.78,234.43,119.74,234.43Zm-20.25-9.54c4.14,2,12.5,5.54,20.25,5.54s16.11-3.53,20.25-5.54V147.63c-4.14-2-12.5-5.54-20.25-5.54s-16.11,3.53-20.25,5.54Z"/><path class="cls-6" d="M119.74,95.43c-33.29,0-49.3-11.9-50-12.41l2.42-3.18c.16.11,15.73,11.59,47.55,11.59S167.13,80,167.28,79.84L169.71,83C169,83.53,153,95.43,119.74,95.43Z"/><path class="cls-6" d="M90.08,200.54H79.7l-2-2V175.18l2-2H90.08l2,2v23.36Zm-8.38-4h6.38V177.18H81.7Z"/><path class="cls-6" d="M41,215.89a6.67,6.67,0,1,1,6.67-6.67A6.67,6.67,0,0,1,41,215.89Zm0-9.34a2.67,2.67,0,1,0,2.67,2.67A2.67,2.67,0,0,0,41,206.55Z"/><path class="cls-6" d="M51.67,275.28a6.67,6.67,0,1,1,6.67-6.67A6.67,6.67,0,0,1,51.67,275.28Zm0-9.34a2.67,2.67,0,1,0,2.67,2.67A2.67,2.67,0,0,0,51.67,265.94Z"/><path class="cls-6" d="M198.64,215.89a6.67,6.67,0,1,1,6.67-6.67A6.67,6.67,0,0,1,198.64,215.89Zm0-9.34a2.67,2.67,0,1,0,2.67,2.67A2.66,2.66,0,0,0,198.64,206.55Z"/><path class="cls-6" d="M188,275.28a6.67,6.67,0,1,1,6.67-6.67A6.67,6.67,0,0,1,188,275.28Zm0-9.34a2.67,2.67,0,1,0,2.67,2.67A2.68,2.68,0,0,0,188,265.94Z"/><rect class="cls-3" x="92.66" y="180.77" width="54.16" height="12.64" transform="translate(-84.18 275.17) rotate(-80.74)"/><path class="cls-6" d="M121.14,217.79l-12.48-2-2.48-3.44,8.72-53.45,3.44-2.48,12.48,2,2.47,3.45-8.71,53.45Zm-8.55-7.47,6.55,1.07,7.75-47.53-6.55-1.07Z"/></g></g></svg>