<svg xmlns="http://www.w3.org/2000/svg" viewBox="0 0 536.97 152.99"><defs><style>.cls-1{fill:#2f5f8f;}.cls-2{fill:#0c1014;}</style></defs><title>蓝色云</title><g id="图层_2" data-name="图层 2"><g id="图层_2-2" data-name="图层 2"><polygon class="cls-1" points="290.72 146.49 284.23 140 284.23 131.96 12.99 131.96 6.49 125.47 6.49 74.34 12.99 67.85 75.49 67.85 75.49 12.99 81.99 6.49 436.85 6.49 443.35 12.99 443.35 44.17 523.99 44.17 530.48 50.66 530.48 140 523.99 146.49 290.72 146.49"/><path class="cls-2" d="M436.85,13V50.66H524V140H290.72V125.47H13V74.34H82V13H436.85m0-13H82L69,13V61.35H13l-13,13v51.13l13,13H277.74V140l13,13H524l13-13V50.66l-13-13H449.84V13l-13-13Z"/></g></g></svg>