<svg xmlns="http://www.w3.org/2000/svg" viewBox="0 0 608 331.51"><defs><style>.cls-1{fill:#2f5f8f;}.cls-2{fill:#0c1014;}</style></defs><title>蓝色展开云</title><g id="图层_2" data-name="图层 2"><g id="图层_2-2" data-name="图层 2"><polygon class="cls-1" points="50 326.51 45 321.51 45 254.51 10 254.51 5 249.51 5 71.35 10 66.35 82 66.35 82 10 87 5 261.33 5 266.33 10 266.33 42.67 508 42.67 513 47.67 513 170.51 598 170.51 603 175.51 603 303.51 598 308.51 513 308.51 513 321.51 508 326.51 50 326.51"/><path class="cls-2" d="M261.33,10V47.67H508V175.51h90v128H508v18H50v-72H10V71.35H87V10H261.33m0-10H87L77,10V61.35H10l-10,10V249.51l10,10H40v62l10,10H508l10-10v-8h80l10-10v-128l-10-10H518V47.67l-10-10H271.33V10l-10-10Z"/></g></g></svg>